<svg id="icones" xmlns="http://www.w3.org/2000/svg" viewBox="0 0 32 32"><g id="Group_734" data-name="Group 734"><path id="Path_860" data-name="Path 860" d="M28.14,3.86a9.78,9.78,0,0,0-16.68,6.91,11,11,0,0,0,.38,2.74.24.24,0,0,1-.07.24L1.59,23.94A2,2,0,0,0,1,25.36V29a2,2,0,0,0,2,2H6a2,2,0,0,0,2-2v-.87a.26.26,0,0,1,.26-.26h.87a2,2,0,0,0,2-2V25a.26.26,0,0,1,.26-.26h1.53a2,2,0,0,0,1.42-.59l3.91-3.9a.25.25,0,0,1,.25-.06,10.57,10.57,0,0,0,2.74.36A9.77,9.77,0,0,0,28.14,3.85ZM26.9,16.44a8,8,0,0,1-5.67,2.34,8.48,8.48,0,0,1-2.29-.31A2,2,0,0,0,17,19l-3.9,3.9a.24.24,0,0,1-.18.07H11.38a2,2,0,0,0-2,2v.87a.25.25,0,0,1-.25.25H8.25a2,2,0,0,0-2,2V29a.25.25,0,0,1-.25.25H3A.26.26,0,0,1,2.76,29V25.36a.25.25,0,0,1,.08-.18L13,15a2.05,2.05,0,0,0,.53-1.93,9,9,0,0,1-.32-2.31,8,8,0,1,1,13.68,5.67Z" fill="#edf0f8"/><path id="Path_861" data-name="Path 861" d="M21.25,5.55a5.27,5.27,0,1,0,5.27,5.27h0A5.27,5.27,0,0,0,21.25,5.55Zm0,8.79a3.52,3.52,0,1,1,3.51-3.52h0A3.54,3.54,0,0,1,21.25,14.34Z" fill="#edf0f8"/></g></svg>