<svg id="icones" xmlns="http://www.w3.org/2000/svg" viewBox="0 0 32 32"><path id="Path_1490" data-name="Path 1490" d="M30.12,8.09H23.44V2.87A.87.87,0,0,0,22.56,2H1.88A.87.87,0,0,0,1,2.87H1V25.61A4.39,4.39,0,0,0,5.39,30H26.61A4.39,4.39,0,0,0,31,25.61V9a.87.87,0,0,0-.88-.88ZM5.39,28.25a2.65,2.65,0,0,1-2.63-2.64V3.75H21.68c0,23.23,0,21.94,0,22.27a4.47,4.47,0,0,0,.86,2.22Zm23.85-2.64a2.65,2.65,0,0,1-2.63,2.64h-.53a2.65,2.65,0,0,1-2.63-2.64V9.85h5.8Z" fill="#cdd5ee"/><path id="Path_1491" data-name="Path 1491" d="M18.81,6.21H5.69A.88.88,0,1,0,5.69,8H18.81a.88.88,0,0,0,0-1.76Z" fill="#cdd5ee"/><path id="Path_1492" data-name="Path 1492" d="M18.81,10H5.69a.88.88,0,0,0,0,1.76H18.81a.88.88,0,1,0,0-1.76Z" fill="#cdd5ee"/><path id="Path_1493" data-name="Path 1493" d="M18.81,24H5.69a.88.88,0,1,0,0,1.76H18.81a.88.88,0,0,0,0-1.76Z" fill="#cdd5ee"/><path id="Path_1494" data-name="Path 1494" d="M18.81,13.71H12.25a.88.88,0,0,0-.88.88h0v6.56a.87.87,0,0,0,.88.88h6.56a.87.87,0,0,0,.88-.87h0V14.59a.88.88,0,0,0-.88-.88Zm-.88,6.57h-4.8V15.47h4.8Z" fill="#cdd5ee"/><path id="Path_1495" data-name="Path 1495" d="M5.69,16.88H8.5a.88.88,0,1,0,0-1.76H5.69a.88.88,0,1,0,0,1.76Z" fill="#cdd5ee"/><path id="Path_1496" data-name="Path 1496" d="M5.69,20.63H8.5a.88.88,0,0,0,0-1.76H5.69a.88.88,0,1,0,0,1.76Z" fill="#cdd5ee"/></svg>