<svg id="icones" xmlns="http://www.w3.org/2000/svg" viewBox="0 0 32 32"><g id="Icon_feather-bar-chart" data-name="Icon feather-bar-chart"><path d="M16,31a1.58,1.58,0,0,1-1.58-1.58V12.65a1.58,1.58,0,1,1,3.16,0V29.42A1.58,1.58,0,0,1,16,31Z" fill="#edf0f8"/><path d="M26.06,31a1.58,1.58,0,0,1-1.58-1.58V2.58a1.59,1.59,0,0,1,3.17,0V29.42A1.59,1.59,0,0,1,26.06,31Z" fill="#edf0f8"/><path d="M5.94,31a1.59,1.59,0,0,1-1.59-1.58V22.71a1.59,1.59,0,1,1,3.17,0v6.71A1.58,1.58,0,0,1,5.94,31Z" fill="#edf0f8"/></g></svg>