<svg id="icones" xmlns="http://www.w3.org/2000/svg" viewBox="0 0 32 32"><g id="chronometer"><g id="Group_1392" data-name="Group 1392"><g id="Group_1391" data-name="Group 1391"><path id="Path_1524" data-name="Path 1524" d="M25.54,8A13.32,13.32,0,0,0,16.88,4V2.76h1.3a.88.88,0,0,0,0-1.76H13.83a.88.88,0,1,0,0,1.76h1.29V4A13.37,13.37,0,0,0,8.86,6L8,5.2a2.16,2.16,0,0,0-3,0H5L3.7,6.48a2.15,2.15,0,0,0,0,3l.84.85A13.5,13.5,0,1,0,25.54,8ZM5,7.72,6.22,6.45a.39.39,0,0,1,.55,0l.64.64q-.5.41-1,.87t-.87,1l-.64-.64A.4.4,0,0,1,5,7.72ZM16,29.29A11.76,11.76,0,1,1,27.74,17.51v0A11.77,11.77,0,0,1,16,29.29Z" fill="#edf0f8"/></g></g><g id="Group_1394" data-name="Group 1394"><g id="Group_1393" data-name="Group 1393"><path id="Path_1525" data-name="Path 1525" d="M16,7.41A10.11,10.11,0,1,0,26.1,17.54v0A10.11,10.11,0,0,0,16,7.41Zm.88,18.42v-1a.88.88,0,0,0-.89-.88.87.87,0,0,0-.87.88v1A8.36,8.36,0,0,1,7.72,18.4h1a.88.88,0,0,0,0-1.76h-1a8.35,8.35,0,0,1,7.41-7.42v1a.88.88,0,1,0,1.76,0v-1a8.35,8.35,0,0,1,7.41,7.42h-1a.88.88,0,1,0,0,1.76h1a8.37,8.37,0,0,1-7.41,7.43Z" fill="#edf0f8"/></g></g><g id="Group_1396" data-name="Group 1396"><g id="Group_1395" data-name="Group 1395"><path id="Path_1526" data-name="Path 1526" d="M18.17,17H16.93V13.46a.88.88,0,0,0-1.76,0V17.9a.88.88,0,0,0,.88.88h2.12a.88.88,0,0,0,.88-.89A.87.87,0,0,0,18.17,17Z" fill="#edf0f8"/></g></g></g></svg>