<svg xmlns="http://www.w3.org/2000/svg" width="173.921" height="125.313" viewBox="0 0 173.921 125.313">
  <g id="Group_2580" data-name="Group 2580" transform="translate(-106.137 -562.344)">
    <path id="Icon_ionic-md-calendar" data-name="Icon ionic-md-calendar" d="M103.709,72.378H72.381v31.328h31.328ZM93.266,4.5V14.943H41.052V4.5H25.388V14.943H17.553A13.091,13.091,0,0,0,4.5,28v88.763a13.091,13.091,0,0,0,13.053,13.053h99.209a13.091,13.091,0,0,0,13.053-13.053V28a13.091,13.091,0,0,0-13.053-13.053H108.93V4.5Zm23.5,112.259H17.553V47.576h99.209Z" transform="translate(120.067 557.844)" fill="#cfdeef"/>
    <g id="Group_2579" data-name="Group 2579" transform="translate(-125.567 446.605)">
      <g id="Search_Engine" data-name="Search Engine" transform="translate(232.056 192.847)">
        <g id="Group_2527" data-name="Group 2527" transform="translate(0 0)">
          <g id="Group_2526" data-name="Group 2526">
            <g id="Group_2523" data-name="Group 2523" transform="translate(0.148)">
              <g id="Group_2521" data-name="Group 2521">
                <g id="Group_2514" data-name="Group 2514" transform="translate(0 0.258)">
                  <rect id="Rectangle_1938" data-name="Rectangle 1938" width="172.921" height="28.394" rx="14.197" fill="#fff" stroke="#cfdeef" stroke-width="1"/>
                </g>
                <g id="Group_2515" data-name="Group 2515" transform="translate(134.609)">
                  <path id="Path_1712" data-name="Path 1712" d="M470.251,237.445V266.1H494.41a14.326,14.326,0,0,0,14.326-14.326h0a14.326,14.326,0,0,0-14.326-14.326Z" transform="translate(-470.251 -237.445)" fill="#cfdeef"/>
                </g>
                <g id="Group_2520" data-name="Group 2520" transform="translate(144.847 7.362)">
                  <g id="Group_2517" data-name="Group 2517">
                    <g id="Group_2516" data-name="Group 2516">
                      <path id="Path_1713" data-name="Path 1713" d="M500.591,256.626a12.778,12.778,0,0,0-.244-1.462,6.032,6.032,0,0,0-2.208-3.263,5.93,5.93,0,0,0-5.61-.828,5.936,5.936,0,0,0-2.74,2.064,5.884,5.884,0,0,0,0,6.979,5.933,5.933,0,0,0,2.741,2.064,5.927,5.927,0,0,0,5.611-.828,6.031,6.031,0,0,0,2.207-3.262,12.774,12.774,0,0,0,.244-1.463,4.683,4.683,0,0,1-.134,1.491,6.021,6.021,0,0,1-2.192,3.4,6.083,6.083,0,0,1-2.584,1.171,6.171,6.171,0,0,1-3.246-.253,6.176,6.176,0,0,1-2.881-2.148,6.147,6.147,0,0,1,0-7.321,6.178,6.178,0,0,1,2.88-2.148,6.176,6.176,0,0,1,3.246-.253,6.081,6.081,0,0,1,2.584,1.171,6.02,6.02,0,0,1,2.192,3.4A4.683,4.683,0,0,1,500.591,256.626Z" transform="translate(-488.347 -250.457)" fill="#fff"/>
                    </g>
                  </g>
                  <g id="Group_2519" data-name="Group 2519" transform="translate(11.061 9.758)">
                    <g id="Group_2518" data-name="Group 2518">
                      <path id="Path_1714" data-name="Path 1714" d="M514.7,272.578a59.295,59.295,0,0,1-6.8-4.869,59.484,59.484,0,0,1,6.8,4.869Z" transform="translate(-507.898 -267.706)" fill="#fff"/>
                    </g>
                  </g>
                </g>
              </g>
              <g id="Group_2522" data-name="Group 2522" transform="translate(16.443 11.796)">
                <rect id="Rectangle_1939" data-name="Rectangle 1939" width="105.708" height="6.077" fill="#ebebeb"/>
              </g>
            </g>
          </g>
        </g>
      </g>
      <g id="Character" transform="translate(261.023 134.746)">
        <g id="Group_2578" data-name="Group 2578">
          <g id="Group_2534" data-name="Group 2534" transform="translate(44.118 63.959)">
            <g id="Group_2529" data-name="Group 2529">
              <g id="Group_2528" data-name="Group 2528">
                <path id="Path_1716" data-name="Path 1716" d="M372.845,252.94c-.515-.6-.566-1.107.591-1.211,2.553-.23,4.433-1.344,4.73-1.989s-.513-1.276-1.2-.888a9.558,9.558,0,0,1-2.486.7,6.239,6.239,0,0,1-2.071.028c-.595-.093-1.117-.193-1.584-.292a12.561,12.561,0,0,1-3.868-1.492l-5.713,6.106,2.679,3.028a4.069,4.069,0,0,0,3.578,1.686,18.435,18.435,0,0,0,5.39-1.877c.418-.642,4.12,1.641,5.312,2.5s2.073.64,2.028-.183c-.031-.561-3.617-3.267-4.816-4.087a15.033,15.033,0,0,1-2.567-2.029" transform="translate(-361.239 -247.799)" fill="#ffbe9d"/>
              </g>
            </g>
            <g id="Group_2531" data-name="Group 2531" transform="translate(5.993 8.765)">
              <g id="Group_2530" data-name="Group 2530">
                <path id="Path_1717" data-name="Path 1717" d="M374.087,264.974c.006.035-.165.108-.46.1a1.969,1.969,0,0,1-1.733-1.311c-.088-.282-.065-.466-.029-.47.081-.019.221.672.876,1.151A3.877,3.877,0,0,0,374.087,264.974Z" transform="translate(-371.832 -263.292)" fill="#eb996e"/>
              </g>
            </g>
            <g id="Group_2533" data-name="Group 2533" transform="translate(8.357 7.902)">
              <g id="Group_2532" data-name="Group 2532">
                <path id="Path_1718" data-name="Path 1718" d="M378.165,263.42c0,.036-.162.1-.444.079a1.951,1.951,0,0,1-1.647-1.281c-.087-.269-.068-.445-.032-.45.082-.02.234.631.851,1.1A4.377,4.377,0,0,0,378.165,263.42Z" transform="translate(-376.011 -261.767)" fill="#eb996e"/>
              </g>
            </g>
          </g>
          <g id="Group_2535" data-name="Group 2535" transform="translate(34.517 10.004)">
            <path id="Path_1719" data-name="Path 1719" d="M370.54,152.429c.239,5.014,6.353,11.881,10.9,12.992,2.391.584,5.142.309,7.036,1.915,3.249,2.755,1.349,8.466,3.54,12.161,1.348,2.272,4.023,3.387,5.539,5.544,2.518,3.585.828,9-2.609,11.674s-8.014,3.181-12.321,3.069c-9.474-.245-19.176-3.256-26.024-9.972-3.217-3.154-15.8-12.895-11.415-35.979" transform="translate(-344.269 -152.429)" fill="#263238"/>
          </g>
          <g id="Group_2552" data-name="Group 2552" transform="translate(0 33.526)">
            <path id="Path_1720" data-name="Path 1720" d="M378.241,206.414,342.22,195.72a22.845,22.845,0,0,0-5.246-1.579l-12.161.081a11.824,11.824,0,0,0-4.665.976L287.36,206.089a6.263,6.263,0,0,0-4.1,6.091h0c0,3.494,2.519,6.327,5.626,6.327h15.14c-.043.143-.066.222-.066.222l52.662.2v-.02l20.1.045c3.107,0,5.626-2.86,5.626-6.388A6.322,6.322,0,0,0,378.241,206.414Z" transform="translate(-283.257 -194.065)" fill="#0b66b1"/>
            <g id="Group_2537" data-name="Group 2537" transform="translate(55.866 14.975)">
              <g id="Group_2536" data-name="Group 2536">
                <path id="Path_1721" data-name="Path 1721" d="M413.9,221.744a1.338,1.338,0,0,1-.327-.016l-.928-.105c-.8-.1-1.969-.232-3.411-.371a102.711,102.711,0,0,0-22.583.3c-1.437.177-2.6.337-3.4.459l-.925.13a1.382,1.382,0,0,1-.326.025,1.357,1.357,0,0,1,.316-.084l.916-.184c.8-.158,1.955-.35,3.392-.553a90.529,90.529,0,0,1,22.631-.3c1.442.166,2.606.327,3.406.464l.92.16A1.392,1.392,0,0,1,413.9,221.744Z" transform="translate(-382.006 -220.476)" fill="#263238"/>
              </g>
            </g>
            <g id="Group_2539" data-name="Group 2539" transform="translate(24.696 5.334)" opacity="0.6">
              <g id="Group_2538" data-name="Group 2538">
                <path id="Path_1722" data-name="Path 1722" d="M381.526,205.592a.59.59,0,0,1-.1.121l-.317.335c-.284.289-.7.716-1.273,1.235a20.487,20.487,0,0,1-2.189,1.763,10.836,10.836,0,0,1-3.363,1.6,8.584,8.584,0,0,1-4.5-.089,22.313,22.313,0,0,1-4.739-2.093,28.794,28.794,0,0,0-5.131-2.406,7.916,7.916,0,0,0-5.867.3c-1.9.854-3.508,2.157-5.27,3.1-.436.243-.9.431-1.345.632a14.135,14.135,0,0,1-1.383.461,13.425,13.425,0,0,1-2.775.479,14.3,14.3,0,0,1-9.215-2.535,25.155,25.155,0,0,1-2.783-2.472,13.566,13.566,0,0,0-2.155-1.762,5.981,5.981,0,0,0-2.208-.828,3.383,3.383,0,0,1,.615.073,5.193,5.193,0,0,1,1.652.656,13.222,13.222,0,0,1,2.209,1.74,25.832,25.832,0,0,0,2.79,2.421,14.164,14.164,0,0,0,9.076,2.434,13.169,13.169,0,0,0,2.718-.479,14.1,14.1,0,0,0,1.352-.454c.437-.2.887-.382,1.315-.622,1.732-.925,3.343-2.233,5.287-3.112a8.2,8.2,0,0,1,6.072-.309,28.753,28.753,0,0,1,5.177,2.443,22.31,22.31,0,0,0,4.674,2.1,8.413,8.413,0,0,0,4.384.123,10.8,10.8,0,0,0,3.323-1.538,21.734,21.734,0,0,0,2.2-1.712c.579-.5,1.011-.917,1.309-1.192l.337-.313A.669.669,0,0,1,381.526,205.592Z" transform="translate(-326.909 -203.435)" fill="#fff"/>
              </g>
            </g>
            <g id="Group_2540" data-name="Group 2540" transform="translate(23.338 16.171)" opacity="0.2">
              <path id="Path_1723" data-name="Path 1723" d="M324.51,222.589l22.769,4.293-2.63,4.284-.693.011Z" transform="translate(-324.51 -222.589)"/>
            </g>
            <g id="Group_2542" data-name="Group 2542" transform="translate(65.413 11.672)" opacity="0.6">
              <g id="Group_2541" data-name="Group 2541">
                <path id="Path_1724" data-name="Path 1724" d="M425.729,214.637a1.561,1.561,0,0,1,.011.349,7.613,7.613,0,0,1-.1,1,8.632,8.632,0,0,1-5.671,6.706,8.762,8.762,0,0,1-3.2.5,14.591,14.591,0,0,1-3.416-.625c-1.141-.321-2.236-.676-3.317-.894a9.632,9.632,0,0,0-3.147-.163,10.05,10.05,0,0,0-4.909,2.011,9.866,9.866,0,0,0-2.439,2.665l-.295.491-.188.375a1.6,1.6,0,0,1-.172.3,1.512,1.512,0,0,1,.118-.328l.165-.391.273-.509a9.487,9.487,0,0,1,2.411-2.772,10.108,10.108,0,0,1,5-2.115,9.793,9.793,0,0,1,3.236.15c1.1.219,2.208.575,3.34.894a14.548,14.548,0,0,0,3.347.619,8.626,8.626,0,0,0,7.322-3.629,8.957,8.957,0,0,0,1.431-3.31C425.7,215.117,425.7,214.635,425.729,214.637Z" transform="translate(-398.881 -214.637)" fill="#fff"/>
              </g>
            </g>
            <g id="Group_2550" data-name="Group 2550" transform="translate(3.677 12.655)">
              <g id="Group_2543" data-name="Group 2543" transform="translate(0.457)">
                <path id="Path_1725" data-name="Path 1725" d="M290.563,227.431s41.162,18.163,40.95,17.751,6.535-12.325,6.535-12.325L304.7,216.375Z" transform="translate(-290.563 -216.375)" fill="#0b66b1"/>
              </g>
              <g id="Group_2545" data-name="Group 2545" transform="translate(19.351 2.35)">
                <g id="Group_2544" data-name="Group 2544">
                  <path id="Path_1726" data-name="Path 1726" d="M323.961,220.531a5.5,5.5,0,0,1,.848.355l2.265,1.068c1.907.913,4.533,2.192,7.425,3.621s5.5,2.739,7.389,3.7l2.224,1.152a5.535,5.535,0,0,1,.8.459,5.414,5.414,0,0,1-.847-.355l-2.265-1.068c-1.907-.913-4.533-2.192-7.427-3.622s-5.5-2.739-7.388-3.7l-2.224-1.151A5.436,5.436,0,0,1,323.961,220.531Z" transform="translate(-323.961 -220.529)" fill="#263238"/>
                </g>
              </g>
              <g id="Group_2547" data-name="Group 2547" transform="translate(0 7.504)" opacity="0.6">
                <g id="Group_2546" data-name="Group 2546">
                  <path id="Path_1727" data-name="Path 1727" d="M318.147,230a3.539,3.539,0,0,1-.383,1.221,5.763,5.763,0,0,1-2.455,2.454,7.54,7.54,0,0,1-2.286.814,9.013,9.013,0,0,1-2.783.033,21.033,21.033,0,0,1-6-2.014,31.364,31.364,0,0,0-5.838-2.3,10.5,10.5,0,0,0-2.7-.312,8.413,8.413,0,0,0-2.328.393,6.358,6.358,0,0,0-2.872,1.8,11.746,11.746,0,0,0-.746,1.023,3.812,3.812,0,0,1,.658-1.1,6.266,6.266,0,0,1,2.895-1.923,8.48,8.48,0,0,1,2.385-.44,10.568,10.568,0,0,1,2.766.292,30.386,30.386,0,0,1,5.9,2.3,21.322,21.322,0,0,0,5.915,2.012,8.907,8.907,0,0,0,2.7,0,7.445,7.445,0,0,0,2.23-.757,5.816,5.816,0,0,0,2.452-2.323A9.7,9.7,0,0,0,318.147,230Z" transform="translate(-289.756 -229.639)" fill="#fff"/>
                </g>
              </g>
              <g id="Group_2549" data-name="Group 2549" transform="translate(30.635 19.961)" opacity="0.6">
                <g id="Group_2548" data-name="Group 2548">
                  <path id="Path_1728" data-name="Path 1728" d="M359.138,252.008c-.008.055-.913-.1-2.383-.12a19.982,19.982,0,0,0-2.574.131,19.683,19.683,0,0,0-6.047,1.712,20.077,20.077,0,0,0-2.261,1.239c-1.24.791-1.93,1.395-1.966,1.352a2.685,2.685,0,0,1,.46-.451,13.37,13.37,0,0,1,1.391-1.074,17.592,17.592,0,0,1,2.259-1.31,18.317,18.317,0,0,1,6.134-1.737,17.491,17.491,0,0,1,2.61-.069,13.246,13.246,0,0,1,1.748.185A2.667,2.667,0,0,1,359.138,252.008Z" transform="translate(-343.907 -251.658)" fill="#fff"/>
                </g>
              </g>
            </g>
            <g id="Group_2551" data-name="Group 2551" transform="translate(54.398)" opacity="0.2">
              <path id="Path_1729" data-name="Path 1729" d="M379.631,194.006c-.681,1.9.341,3.956,1.332,5.718a15.533,15.533,0,0,0,2.387,3.464,5.226,5.226,0,0,0,3.743,1.682c1.848-.061,3.5-1.425,5.349-1.319a7.091,7.091,0,0,1,3.4,1.518,26.905,26.905,0,0,0,5.706,3.161,10.246,10.246,0,0,0,6.414.4,6.4,6.4,0,0,0,4.439-4.394" transform="translate(-379.411 -194.006)"/>
            </g>
          </g>
          <g id="Group_2575" data-name="Group 2575" transform="translate(35.436)">
            <g id="Group_2568" data-name="Group 2568">
              <g id="Group_2567" data-name="Group 2567">
                <g id="Group_2553" data-name="Group 2553" transform="translate(5.506 2.026)">
                  <path id="Path_1730" data-name="Path 1730" d="M369.457,169.3c.094-2.216.214-4.222.214-4.222s4.953-.625,5.166-5.679-.29-16.7-.29-16.7l-9.116-4.378-9.807,7.9,1.538,23.216a6.156,6.156,0,0,0,6.427,5.743h0A6.158,6.158,0,0,0,369.457,169.3Z" transform="translate(-355.625 -138.328)" fill="#ffbe9d"/>
                </g>
                <g id="Group_2557" data-name="Group 2557" transform="translate(21.693 13.434)">
                  <g id="Group_2554" data-name="Group 2554" transform="translate(0.622 1.475)">
                    <path id="Path_1731" data-name="Path 1731" d="M386.6,161.735a.63.63,0,1,1-.641-.636A.638.638,0,0,1,386.6,161.735Z" transform="translate(-385.337 -161.099)" fill="#263238"/>
                  </g>
                  <g id="Group_2556" data-name="Group 2556">
                    <g id="Group_2555" data-name="Group 2555">
                      <path id="Path_1732" data-name="Path 1732" d="M386.731,159.253c-.08.085-.552-.313-1.23-.339s-1.182.319-1.254.226c-.036-.041.046-.2.266-.357a1.638,1.638,0,0,1,1.984.089C386.7,159.052,386.77,159.215,386.731,159.253Z" transform="translate(-384.238 -158.491)" fill="#263238"/>
                    </g>
                  </g>
                </g>
                <g id="Group_2561" data-name="Group 2561" transform="translate(14.177 13.564)">
                  <g id="Group_2558" data-name="Group 2558" transform="translate(0.622 1.345)">
                    <path id="Path_1733" data-name="Path 1733" d="M373.311,161.735a.63.63,0,1,1-.642-.636A.638.638,0,0,1,373.311,161.735Z" transform="translate(-372.052 -161.099)" fill="#263238"/>
                  </g>
                  <g id="Group_2560" data-name="Group 2560">
                    <g id="Group_2559" data-name="Group 2559">
                      <path id="Path_1734" data-name="Path 1734" d="M373.446,159.483c-.08.085-.552-.313-1.23-.338s-1.182.318-1.254.226c-.036-.041.046-.2.266-.357a1.64,1.64,0,0,1,1.983.089C373.416,159.283,373.485,159.445,373.446,159.483Z" transform="translate(-370.953 -158.722)" fill="#263238"/>
                    </g>
                  </g>
                </g>
                <g id="Group_2563" data-name="Group 2563" transform="translate(18.995 14.092)">
                  <g id="Group_2562" data-name="Group 2562">
                    <path id="Path_1735" data-name="Path 1735" d="M379.692,165.723a4.127,4.127,0,0,1,1.105-.169c.174-.012.338-.042.37-.168a1.018,1.018,0,0,0-.108-.555l-.491-1.434a26.087,26.087,0,0,1-1.093-3.743,25.914,25.914,0,0,1,1.37,3.646c.164.5.32.982.468,1.442a1.151,1.151,0,0,1,.079.732.432.432,0,0,1-.289.26,1.086,1.086,0,0,1-.3.032A4.157,4.157,0,0,1,379.692,165.723Z" transform="translate(-379.468 -159.654)" fill="#263238"/>
                  </g>
                </g>
                <g id="Group_2564" data-name="Group 2564" transform="translate(16.874 20.775)">
                  <path id="Path_1736" data-name="Path 1736" d="M375.836,171.55c-.694-.455,1.915,1.125,3.3,1.1a1.854,1.854,0,0,1-2.236.693A1.47,1.47,0,0,1,375.836,171.55Z" transform="translate(-375.72 -171.467)" fill="#fff"/>
                </g>
                <g id="Group_2565" data-name="Group 2565" transform="translate(12.994 26.632)">
                  <path id="Path_1737" data-name="Path 1737" d="M375.419,183.968a12.061,12.061,0,0,1-6.558-2.147s1.542,3.682,6.472,3.388Z" transform="translate(-368.861 -181.821)" fill="#eb996e"/>
                </g>
                <g id="Group_2566" data-name="Group 2566">
                  <path id="Path_1738" data-name="Path 1738" d="M346.08,149.655h0c-.018,4.375-1.163,15.945,6.812,17.549l-.29-15.934s7.722-3.641,9.026-11.225l.047.044c.5,1.144,1.376,3.6.841,5.605l7.231,1.782.832.761a9.95,9.95,0,0,0-2.393-10.762c-4.968-5.118-9.213-1.409-11.877-1.729-1.771-.213-7.914-.171-10.416,10.407Z" transform="translate(-345.893 -134.746)" fill="#263238"/>
                </g>
              </g>
            </g>
            <g id="Group_2574" data-name="Group 2574" transform="translate(4.033 16.519)">
              <g id="Group_2572" data-name="Group 2572">
                <g id="Group_2569" data-name="Group 2569">
                  <path id="Path_1739" data-name="Path 1739" d="M355.9,164.129a1.778,1.778,0,0,0-2.13.51,2.905,2.905,0,0,0,2.892,4.77" transform="translate(-353.022 -163.945)" fill="#ffbe9d"/>
                </g>
                <g id="Group_2571" data-name="Group 2571" transform="translate(1.018 1.486)">
                  <g id="Group_2570" data-name="Group 2570">
                    <path id="Path_1740" data-name="Path 1740" d="M356.521,169.035c0,.036-.226.075-.579-.02a1.526,1.526,0,0,1-1.058-.938,1.127,1.127,0,0,1,.03-.825,1.193,1.193,0,0,1,.431-.5c.318-.205.56-.191.564-.158s-.2.107-.436.322a.985.985,0,0,0-.309,1.069,1.5,1.5,0,0,0,.849.836C356.313,168.953,356.526,168.99,356.521,169.035Z" transform="translate(-354.82 -166.572)" fill="#eb996e"/>
                  </g>
                </g>
              </g>
              <g id="Group_2573" data-name="Group 2573" transform="translate(1.63 4.936)">
                <path id="Path_1741" data-name="Path 1741" d="M356.331,172.679a.574.574,0,1,0,.218-.009" transform="translate(-355.903 -172.67)" fill="#e8505b"/>
              </g>
            </g>
          </g>
          <g id="Group_2576" data-name="Group 2576" transform="translate(43.617 50.103)">
            <path id="Path_1742" data-name="Path 1742" d="M372.919,231.617v-8.309s-12.339,2.56-12.565,8.21Z" transform="translate(-360.354 -223.308)" fill="#ffbe9d"/>
          </g>
          <g id="Group_2577" data-name="Group 2577" transform="translate(54.898 31.598)">
            <path id="Path_1743" data-name="Path 1743" d="M380.294,191.127a10.339,10.339,0,0,0,10.125,9.513c1.822.032,3.742-.4,5.405.343,1.446.647,2.377,2.049,3.516,3.15a10.433,10.433,0,0,0,10.345,2.339c1.494-.5,3.869-1.575,4.147-3.126.212-1.182-1.233-2.356-2.084-3.2a10.533,10.533,0,0,0-3.039-1.9c-8.789-4.128-18.225-7.131-27.922-7.644" transform="translate(-380.294 -190.599)" fill="#263238"/>
          </g>
        </g>
      </g>
    </g>
  </g>
</svg>
