<svg id="icones" xmlns="http://www.w3.org/2000/svg" viewBox="0 0 32 32"><g id="diamond"><path id="Path_1523" data-name="Path 1523" d="M30.93,11.55,27.35,3.34a.89.89,0,0,0-.81-.53H5.45a.87.87,0,0,0-.8.53L1.07,11.55a.88.88,0,0,0,.14.92L15.33,28.88a.87.87,0,0,0,1.24.09l.1-.09L30.79,12.47a.88.88,0,0,0,.14-.92ZM20.07,12.78,16,25.44,11.93,12.78ZM12.33,11,16,5.32,19.66,11Zm5.28-6.45h7.32l-3.66,5.7Zm-6.88,5.7L7.06,4.57h7.33Zm3.1,14.17-10-11.66h6.29Zm8.08-11.66H28.2l-10,11.66Zm1-1.76L26.4,5.55,28.78,11ZM5.61,5.55,9.12,11H3.22Z" fill="#edf0f8"/></g></svg>