<svg xmlns="http://www.w3.org/2000/svg" width="169.12" height="128.94" viewBox="0 0 169.12 128.94">
  <g id="Grupo_1174" data-name="Grupo 1174" transform="translate(-70.024 -166.708)">
    <g id="Grupo_1175" data-name="Grupo 1175" transform="translate(125.217 166.708)">
      <rect id="Retângulo_673" data-name="Retângulo 673" width="57.195" height="81.213" transform="translate(0.397 0.397)" fill="#fff"/>
      <path id="Caminho_1140" data-name="Caminho 1140" d="M245.668,248.716h-57.2a.4.4,0,0,1-.4-.4V167.105a.4.4,0,0,1,.4-.4h57.2a.4.4,0,0,1,.4.4v81.213A.4.4,0,0,1,245.668,248.716Zm-56.8-.794h56.4V167.5h-56.4Z" transform="translate(-188.075 -166.708)" fill="#1766b1"/>
    </g>
    <g id="Grupo_1176" data-name="Grupo 1176" transform="translate(130.283 171.819)">
      <rect id="Retângulo_674" data-name="Retângulo 674" width="47.063" height="76.102" transform="translate(0.398 0.397)" fill="#f0cfc8"/>
      <path id="Caminho_1141" data-name="Caminho 1141" d="M246.371,254.536H199.307a.4.4,0,0,1-.4-.4v-76.1a.4.4,0,0,1,.4-.4h47.063a.4.4,0,0,1,.4.4v76.1A.4.4,0,0,1,246.371,254.536Zm-46.666-.794h46.269V178.435H199.7Z" transform="translate(-198.91 -177.64)" fill="#1766b1"/>
    </g>
    <g id="Grupo_1178" data-name="Grupo 1178" transform="translate(118.475 247.921)">
      <rect id="Retângulo_675" data-name="Retângulo 675" width="70.679" height="12.216" transform="translate(0.397 0.397)" fill="#fff"/>
      <rect id="Retângulo_676" data-name="Retângulo 676" width="70.679" height="4.801" transform="translate(0.397 7.812)" fill="#def3f2"/>
      <path id="Caminho_1145" data-name="Caminho 1145" d="M244.732,353.423H174.052a.4.4,0,0,1-.4-.4V340.809a.4.4,0,0,1,.4-.4h70.679a.4.4,0,0,1,.4.4v12.216A.4.4,0,0,1,244.732,353.423Zm-70.282-.794h69.884V341.206H174.45Z" transform="translate(-173.655 -340.412)" fill="#1766b1"/>
    </g>
    <g id="Grupo_1179" data-name="Grupo 1179" transform="translate(113.337 260.138)">
      <rect id="Retângulo_677" data-name="Retângulo 677" width="80.956" height="12.216" transform="translate(0.397 0.397)" fill="#fff"/>
      <rect id="Retângulo_678" data-name="Retângulo 678" width="80.956" height="4.923" transform="translate(0.397 7.691)" fill="#def3f2"/>
      <path id="Caminho_1146" data-name="Caminho 1146" d="M244.018,379.552H163.062a.4.4,0,0,1-.4-.4V366.938a.4.4,0,0,1,.4-.4h80.956a.4.4,0,0,1,.4.4v12.216A.4.4,0,0,1,244.018,379.552Zm-80.558-.794h80.161V367.335H163.46Z" transform="translate(-162.665 -366.541)" fill="#1766b1"/>
    </g>
    <g id="Grupo_1180" data-name="Grupo 1180" transform="translate(107.81 272.354)">
      <path id="Caminho_1147" data-name="Caminho 1147" d="M151.694,393.52v9.719c1.629-1.143,3.026-2.454,6.231-2.454,5.682,0,5.682,4.12,11.364,4.12s5.681-4.12,11.362-4.12,5.681,4.12,11.362,4.12,5.682-4.12,11.364-4.12,5.682,4.12,11.364,4.12,5.682-4.12,11.364-4.12,5.681,4.12,11.364,4.12c3.432,0,4.792-1.5,6.582-2.692V393.52Z" transform="translate(-151.297 -393.123)" fill="#fff"/>
      <path id="Caminho_1148" data-name="Caminho 1148" d="M151.694,403.475v5.064c1.629-1.143,3.026-2.454,6.231-2.454,5.682,0,5.682,4.12,11.364,4.12s5.681-4.12,11.362-4.12,5.681,4.12,11.362,4.12,5.682-4.12,11.364-4.12,5.682,4.12,11.364,4.12,5.682-4.12,11.364-4.12,5.681,4.12,11.364,4.12c3.432,0,4.792-1.5,6.582-2.692v-4.039Z" transform="translate(-151.297 -398.423)" fill="#def3f2"/>
      <path id="Caminho_1149" data-name="Caminho 1149" d="M237.015,404.85a8.913,8.913,0,0,1-5.915-2.136,8.471,8.471,0,0,0-10.9,0,9.259,9.259,0,0,1-11.83,0,8.471,8.471,0,0,0-10.9,0,9.258,9.258,0,0,1-11.83,0,8.468,8.468,0,0,0-10.9,0,9.258,9.258,0,0,1-11.83,0,8.471,8.471,0,0,0-10.9,0c-.183.133-.367.266-.553.4a.4.4,0,0,1-.626-.325v-9.719a.4.4,0,0,1,.4-.4H243.6a.4.4,0,0,1,.4.4v8.693a.4.4,0,0,1-.177.331c-.3.2-.594.412-.884.623A8.917,8.917,0,0,1,237.015,404.85Zm-11.363-4.915a8.912,8.912,0,0,1,5.915,2.135,8.476,8.476,0,0,0,10.9,0c.242-.176.484-.351.734-.522v-8.085h-91.56v8.547a9.247,9.247,0,0,1,11.748.059,8.47,8.47,0,0,0,10.9,0,9.258,9.258,0,0,1,11.828,0,8.47,8.47,0,0,0,10.9,0,9.261,9.261,0,0,1,11.83,0,8.471,8.471,0,0,0,10.9,0A8.914,8.914,0,0,1,225.651,399.935Z" transform="translate(-150.844 -392.67)" fill="#1766b1"/>
    </g>
    <path id="Caminho_1156" data-name="Caminho 1156" d="M244.58,436.418a6.462,6.462,0,0,1-4.293-1.548,5.94,5.94,0,0,0-7.653,0,6.729,6.729,0,0,1-8.586,0,5.94,5.94,0,0,0-7.653,0,6.462,6.462,0,0,1-4.292,1.548.4.4,0,1,1,0-.794,5.721,5.721,0,0,0,3.826-1.4,6.73,6.73,0,0,1,8.586,0,5.939,5.939,0,0,0,7.653,0,6.73,6.73,0,0,1,8.586,0,5.723,5.723,0,0,0,3.826,1.4.4.4,0,0,1,0,.794Z" transform="translate(-75.44 -141.62)" fill="#1766b1"/>
    <path id="Caminho_1157" data-name="Caminho 1157" d="M102.9,438.236a6.461,6.461,0,0,1-4.292-1.547,5.939,5.939,0,0,0-7.653,0,6.73,6.73,0,0,1-8.586,0,5.939,5.939,0,0,0-7.653,0,6.461,6.461,0,0,1-4.292,1.547.4.4,0,1,1,0-.794,5.723,5.723,0,0,0,3.826-1.4,6.728,6.728,0,0,1,8.586,0,5.941,5.941,0,0,0,7.653,0,6.728,6.728,0,0,1,8.586,0,5.722,5.722,0,0,0,3.826,1.4.4.4,0,1,1,0,.794Z" transform="translate(0 -142.588)" fill="#1766b1"/>
    <g id="Grupo_1181" data-name="Grupo 1181" transform="translate(130.283 220.453)">
      <path id="Caminho_1159" data-name="Caminho 1159" d="M246.823,283.821s-17.571-6.27-47.063,8.657v11.6h47.063Z" transform="translate(-199.363 -282.116)" fill="#fff5c2"/>
      <path id="Caminho_1160" data-name="Caminho 1160" d="M246.823,294.058s-17.571-4.838-47.063,6.679v8.948h47.063Z" transform="translate(-199.363 -287.725)" fill="#fee567"/>
      <path id="Caminho_1161" data-name="Caminho 1161" d="M246.371,304.019H199.307a.4.4,0,0,1-.4-.4v-11.6a.4.4,0,0,1,.218-.355c15.3-7.743,27.345-9.695,34.756-9.968,8.063-.3,12.438,1.226,12.62,1.292a.4.4,0,0,1,.263.375v20.255A.4.4,0,0,1,246.371,304.019Zm-46.666-.794h46.269V283.659c-2.3-.68-19.347-4.947-46.269,8.61Z" transform="translate(-198.91 -281.662)" fill="#1766b1"/>
    </g>
    <g id="Grupo_1185" data-name="Grupo 1185" transform="translate(136.086 200.858)">
      <g id="Grupo_1182" data-name="Grupo 1182" transform="translate(9.34 9.432)">
        <path id="Caminho_1162" data-name="Caminho 1162" d="M239,260.773h0a1.692,1.692,0,0,0-1.687,1.687v3.483h-4.844a.327.327,0,0,0-.326.326v2.721a.327.327,0,0,0,.326.326H239a1.692,1.692,0,0,0,1.687-1.687h0v-5.17A1.692,1.692,0,0,0,239,260.773Z" transform="translate(-231.75 -260.376)" fill="#59c3bd"/>
        <path id="Caminho_1163" data-name="Caminho 1163" d="M246.557,260.773h0a1.618,1.618,0,0,0-.224.023v8.521h.224a1.692,1.692,0,0,0,1.687-1.687v-5.17A1.692,1.692,0,0,0,246.557,260.773Z" transform="translate(-239.303 -260.376)" fill="#9eddd9"/>
        <path id="Caminho_1164" data-name="Caminho 1164" d="M238.551,269.261h-6.531a.725.725,0,0,1-.724-.723v-2.721a.725.725,0,0,1,.724-.724h4.446v-3.086a2.085,2.085,0,0,1,4.169,0v5.17A2.087,2.087,0,0,1,238.551,269.261Zm-6.459-.794h6.459a1.291,1.291,0,0,0,1.289-1.29v-5.17a1.289,1.289,0,1,0-2.579,0v3.483a.4.4,0,0,1-.4.4h-4.773Z" transform="translate(-231.297 -259.923)" fill="#1766b1"/>
      </g>
      <g id="Grupo_1183" data-name="Grupo 1183" transform="translate(6.157)">
        <path id="Caminho_1165" data-name="Caminho 1165" d="M230.667,271.516h-4.912a.417.417,0,0,1-.415-.415V243.472a2.88,2.88,0,0,1,2.871-2.871h0a2.88,2.88,0,0,1,2.871,2.871V271.1A.417.417,0,0,1,230.667,271.516Z" transform="translate(-224.943 -240.203)" fill="#59c3bd"/>
        <path id="Caminho_1166" data-name="Caminho 1166" d="M235.193,272.528h-1.715c-.079,0-.145-.181-.145-.4V245.289c0-1.534.451-2.788,1-2.788h0c.551,0,1,1.255,1,2.788v26.835C235.338,272.346,235.273,272.528,235.193,272.528Z" transform="translate(-229.199 -241.215)" fill="#9eddd9"/>
        <path id="Caminho_1167" data-name="Caminho 1167" d="M230.215,271.46H225.3a.813.813,0,0,1-.813-.812V243.019a3.269,3.269,0,1,1,6.537,0v27.629A.813.813,0,0,1,230.215,271.46Zm-2.456-30.915a2.476,2.476,0,0,0-2.474,2.474v27.629l4.93.018a.019.019,0,0,0,.017-.018V243.019A2.476,2.476,0,0,0,227.759,240.545Z" transform="translate(-224.49 -239.75)" fill="#1766b1"/>
      </g>
      <g id="Grupo_1184" data-name="Grupo 1184" transform="translate(0 4.537)">
        <path id="Caminho_1168" data-name="Caminho 1168" d="M220.715,255.473h-5.17V251.99a1.692,1.692,0,0,0-1.687-1.687h0a1.692,1.692,0,0,0-1.687,1.687v5.17h0a1.673,1.673,0,0,0,.06.443c.01.036.022.073.034.108a1.685,1.685,0,0,0,.242.456c.016.022.033.043.051.064a1.706,1.706,0,0,0,.293.279q.065.048.135.091l.071.041a1.631,1.631,0,0,0,.147.071c.05.022.1.041.155.057s.107.03.161.042a1.659,1.659,0,0,0,.339.035h6.857" transform="translate(-211.774 -249.906)" fill="#59c3bd"/>
        <path id="Caminho_1169" data-name="Caminho 1169" d="M222.976,255.748v-.241h-5.17v-3.483a1.691,1.691,0,0,0-1.389-1.656v5.38Z" transform="translate(-214.034 -249.94)" fill="#9eddd9"/>
        <path id="Caminho_1170" data-name="Caminho 1170" d="M220.262,258.792h-6.857a2.069,2.069,0,0,1-.42-.043,1.868,1.868,0,0,1-.2-.051c-.066-.021-.13-.044-.192-.071s-.122-.056-.182-.087c-.029-.015-.059-.034-.089-.051-.056-.034-.111-.072-.165-.112a2.107,2.107,0,0,1-.361-.344l-.062-.079a2.091,2.091,0,0,1-.3-.563c-.015-.045-.029-.09-.042-.134a2.087,2.087,0,0,1-.074-.549v-5.17a2.085,2.085,0,0,1,4.169,0v3.086h4.772a.4.4,0,1,1,0,.794h-5.17a.4.4,0,0,1-.4-.4v-3.483a1.29,1.29,0,1,0-2.579,0v5.17a1.28,1.28,0,0,0,.046.338c.007.028.016.056.026.083a1.3,1.3,0,0,0,.186.348l.04.051a1.3,1.3,0,0,0,.223.211c.034.025.069.049.1.071l.052.03c.038.021.076.039.115.055s.078.031.117.043.08.022.121.031a1.273,1.273,0,0,0,.261.028h6.857a.4.4,0,1,1,0,.794Z" transform="translate(-211.321 -249.453)" fill="#1766b1"/>
      </g>
    </g>
    <g id="Grupo_1186" data-name="Grupo 1186" transform="translate(130.283 229.706)">
      <path id="Caminho_1171" data-name="Caminho 1171" d="M199.76,302.888s19.631-4.748,47.063,11.417v6.178H199.76Z" transform="translate(-199.363 -301.871)" fill="#fee567"/>
      <path id="Caminho_1172" data-name="Caminho 1172" d="M199.76,316.422s19.631-3.074,47.063,7.39v4H199.76Z" transform="translate(-199.363 -309.199)" fill="#fed302"/>
      <path id="Caminho_1173" data-name="Caminho 1173" d="M246.371,320.462H199.307a.4.4,0,0,1-.4-.4V302.47a.4.4,0,0,1,.3-.386c.2-.048,20.1-4.6,47.358,11.461a.4.4,0,0,1,.195.343v6.178A.4.4,0,0,1,246.371,320.462Zm-46.666-.794h46.269v-5.553c-25.051-14.689-43.691-11.818-46.269-11.321Z" transform="translate(-198.91 -301.453)" fill="#1766b1"/>
    </g>
    <g id="Grupo_1187" data-name="Grupo 1187" transform="translate(162.554 171.819)">
      <path id="Caminho_1174" data-name="Caminho 1174" d="M283.574,254.592l-14.793-4.767V183.256l14.793-4.767Z" transform="translate(-268.384 -178.093)" fill="#fff"/>
      <path id="Caminho_1175" data-name="Caminho 1175" d="M288.75,180.248v72.585l5.457,1.758v-76.1Z" transform="translate(-279.017 -178.093)" fill="#def3f2"/>
      <path id="Caminho_1176" data-name="Caminho 1176" d="M283.122,254.537a.376.376,0,0,1-.122-.019l-14.793-4.767a.4.4,0,0,1-.275-.378V182.8a.4.4,0,0,1,.275-.378L283,177.659a.4.4,0,0,1,.519.378v76.1a.4.4,0,0,1-.4.4Zm-14.4-5.453,14,4.511V178.583l-14,4.51Z" transform="translate(-267.932 -177.64)" fill="#1766b1"/>
    </g>
    <g id="Grupo_1188" data-name="Grupo 1188" transform="translate(163.107 207.05)">
      <path id="Caminho_1177" data-name="Caminho 1177" d="M272.068,256.951c0,1.715-.471,3.106-1.052,3.106s-1.052-1.39-1.052-3.106.471-3.106,1.052-3.106S272.068,255.235,272.068,256.951Z" transform="translate(-269.568 -253.448)" fill="#fff"/>
      <path id="Caminho_1178" data-name="Caminho 1178" d="M270.564,260c-1,0-1.449-1.815-1.449-3.5s.453-3.5,1.449-3.5,1.448,1.816,1.448,3.5S271.56,260,270.564,260Zm-.007-6.212c-.168.052-.648.965-.648,2.709s.48,2.657.662,2.709c.169-.052.648-.965.648-2.709S270.74,253.842,270.557,253.789Z" transform="translate(-269.115 -252.995)" fill="#1766b1"/>
    </g>
    <g id="Grupo_1189" data-name="Grupo 1189" transform="translate(160.927 207.722)">
      <path id="Retângulo_679" data-name="Retângulo 679" d="M0,0H.378A2.434,2.434,0,0,1,2.812,2.434v0A2.434,2.434,0,0,1,.378,4.869H0a0,0,0,0,1,0,0V0A0,0,0,0,1,0,0Z" transform="translate(0.397 0.397)" fill="#fff"/>
      <path id="Caminho_1179" data-name="Caminho 1179" d="M265.228,260.095h-.377a.4.4,0,0,1-.4-.4v-4.869a.4.4,0,0,1,.4-.4h.377a2.831,2.831,0,1,1,0,5.663Zm.02-4.868V259.3a2.037,2.037,0,0,0,0-4.073Z" transform="translate(-264.453 -254.432)" fill="#1766b1"/>
    </g>
    <g id="Grupo_1190" data-name="Grupo 1190" transform="translate(159.776 207.722)">
      <path id="Caminho_1180" data-name="Caminho 1180" d="M264.944,257.716c0,1.345-.471,2.434-1.052,2.434s-1.052-1.09-1.052-2.434.471-2.434,1.052-2.434S264.944,256.372,264.944,257.716Z" transform="translate(-262.444 -254.885)" fill="#fff"/>
      <path id="Caminho_1181" data-name="Caminho 1181" d="M263.44,260.095c-.951,0-1.449-1.424-1.449-2.831s.5-2.831,1.449-2.831,1.448,1.425,1.448,2.831S264.391,260.095,263.44,260.095Zm0-4.868c-.19,0-.655.714-.655,2.037s.465,2.037.655,2.037.654-.714.654-2.037S263.63,255.226,263.44,255.226Z" transform="translate(-261.991 -254.432)" fill="#1766b1"/>
    </g>
    <g id="Grupo_1191" data-name="Grupo 1191" transform="translate(109.332 178.302)">
      <path id="Caminho_1182" data-name="Caminho 1182" d="M162.63,195.664a7.638,7.638,0,0,1,3.493.846,7.223,7.223,0,0,1,6.834-4.154c3.524,0,6.455,2.14,7.09,4.97a6.381,6.381,0,0,1,7.584,5.765,3.4,3.4,0,0,1,.017.34,1.3,1.3,0,0,1-.017.172,1.729,1.729,0,0,1-1.7,1.47H156.677a1.733,1.733,0,0,1-1.728-1.728A7.681,7.681,0,0,1,162.63,195.664Z" transform="translate(-154.552 -191.959)" fill="#fff"/>
      <path id="Caminho_1183" data-name="Caminho 1183" d="M162.63,203.532a10.792,10.792,0,0,1,3.493.568c.967-1.619,3.658-2.786,6.834-2.786,3.524,0,6.455,1.435,7.09,3.333a9.466,9.466,0,0,1,1.216-.079c3.359,0,6.107,1.738,6.369,3.946a1.534,1.534,0,0,1,.017.228.6.6,0,0,1-.017.115,1.654,1.654,0,0,1-1.7.986H156.677c-.95,0-1.728-.521-1.728-1.159C154.949,205.839,158.388,203.532,162.63,203.532Z" transform="translate(-154.552 -196.728)" fill="#def3f2"/>
      <path id="Caminho_1184" data-name="Caminho 1184" d="M185.478,205.017H156.224a2.127,2.127,0,0,1-2.125-2.125,8.088,8.088,0,0,1,8.079-8.079,7.968,7.968,0,0,1,3.3.708,7.724,7.724,0,0,1,7.031-4.016c3.5,0,6.538,2.046,7.383,4.916a6.8,6.8,0,0,1,7.688,6.185,3.435,3.435,0,0,1,.018.39,1.883,1.883,0,0,1-.022.218A2.135,2.135,0,0,1,185.478,205.017Zm-23.3-9.409a7.292,7.292,0,0,0-7.284,7.284,1.331,1.331,0,0,0,1.33,1.33h29.254a1.337,1.337,0,0,0,1.309-1.133.894.894,0,0,0,.013-.106c0-.055,0-.223-.013-.287a6,6,0,0,0-7.117-5.433l-.378.073-.085-.376c-.606-2.7-3.424-4.659-6.7-4.659a6.827,6.827,0,0,0-6.465,3.9l-.162.4-.388-.2A7.2,7.2,0,0,0,162.178,195.609Z" transform="translate(-154.099 -191.506)" fill="#1766b1"/>
    </g>
    <path id="Caminho_1188" data-name="Caminho 1188" d="M240.96,413.124a8.915,8.915,0,0,1-5.916-2.136,8.473,8.473,0,0,0-10.9,0,9.261,9.261,0,0,1-11.832,0,8.472,8.472,0,0,0-10.9,0,9.259,9.259,0,0,1-11.83,0,8.471,8.471,0,0,0-10.9,0,9.258,9.258,0,0,1-11.83,0,8.468,8.468,0,0,0-10.9,0,9.258,9.258,0,0,1-11.83,0,8.47,8.47,0,0,0-10.9,0,9.258,9.258,0,0,1-11.83,0A8.144,8.144,0,0,0,115.96,409a.4.4,0,1,1,0-.794,8.911,8.911,0,0,1,5.915,2.135,8.47,8.47,0,0,0,10.9,0,9.26,9.26,0,0,1,11.83,0,8.47,8.47,0,0,0,10.9,0,9.258,9.258,0,0,1,11.828,0,8.47,8.47,0,0,0,10.9,0,9.261,9.261,0,0,1,11.83,0,8.471,8.471,0,0,0,10.9,0,9.261,9.261,0,0,1,11.831,0,8.473,8.473,0,0,0,10.9,0,9.263,9.263,0,0,1,11.832,0,8.145,8.145,0,0,0,5.45,1.985.4.4,0,0,1,0,.795Z" transform="translate(-24.248 -128.59)" fill="#1766b1"/>
    <path id="Caminho_1158" data-name="Caminho 1158" d="M393.453,438.034a6.466,6.466,0,0,1-4.294-1.548,5.942,5.942,0,0,0-7.654,0,6.73,6.73,0,0,1-8.587,0,5.941,5.941,0,0,0-7.654,0,6.463,6.463,0,0,1-4.293,1.548.4.4,0,1,1,0-.794,5.721,5.721,0,0,0,3.826-1.4,6.731,6.731,0,0,1,8.587,0,5.941,5.941,0,0,0,7.654,0,6.732,6.732,0,0,1,8.587,0,5.722,5.722,0,0,0,3.827,1.4.4.4,0,1,1,0,.794Z" transform="translate(-154.707 -142.48)" fill="#1766b1"/>
  </g>
</svg>
