<svg id="icones" xmlns="http://www.w3.org/2000/svg" viewBox="0 0 32 32"><path d="M25.53,3.72h-2.7V2.39a1.39,1.39,0,1,0-2.77,0V3.72H11.94V2.39a1.39,1.39,0,1,0-2.77,0V3.72H6.47A4.12,4.12,0,0,0,2.36,7.83V26.89A4.11,4.11,0,0,0,6.47,31H25.53a4.11,4.11,0,0,0,4.11-4.11V7.83A4.12,4.12,0,0,0,25.53,3.72ZM6.47,6.5h2.7V7.83a1.39,1.39,0,1,0,2.77,0V6.5h8.12V7.83a1.39,1.39,0,1,0,2.77,0V6.5h2.7a1.33,1.33,0,0,1,1.34,1.33v4.06H5.13V7.83A1.33,1.33,0,0,1,6.47,6.5ZM25.53,28.23H6.47a1.34,1.34,0,0,1-1.34-1.34V14.66H26.87V26.89A1.34,1.34,0,0,1,25.53,28.23Z" fill="#edf0f8"/></svg>