<svg id="icones" xmlns="http://www.w3.org/2000/svg" viewBox="0 0 32 32"><path id="Icon_metro-profile" data-name="Icon metro-profile" d="M28.85,8H26.76V4.82l-4.33-.07,0,3.21h-13l.08-3.21-4.24.07V8L3.14,8A2.16,2.16,0,0,0,1,10.11v15a2.14,2.14,0,0,0,2.14,2.14H28.86A2.14,2.14,0,0,0,31,25.11v-15A2.13,2.13,0,0,0,28.85,8ZM23.5,5.82h2.14v4.29H23.5ZM9.57,13.12a2.8,2.8,0,0,1,2.35,3.08,2.8,2.8,0,0,1-2.35,3.08A2.78,2.78,0,0,1,7.23,16.2,2.78,2.78,0,0,1,9.57,13.12ZM6.36,5.82H8.5v4.29H6.36ZM4.93,22.91s.25-2,.83-2.42A7.88,7.88,0,0,1,8,19.85S9.07,21,9.53,21s1.54-1.15,1.54-1.15a8,8,0,0,1,2.24.64c.68.45.85,2.42.85,2.42Zm21.78-1H17.07V20.82h9.64Zm0-2.14H17.07V18.68h9.64Zm0-2.14H17.07V16.54h9.64Zm0-2.15H17.07V14.39h9.64Z" fill="#777"/></svg>