<svg xmlns="http://www.w3.org/2000/svg" width="328.67" height="187.314" viewBox="0 0 328.67 187.314">
  <g id="Group_1321" data-name="Group 1321" transform="translate(-56.806 -31.464)">
    <g id="OBJECTS" transform="translate(57.772 31.464)">
      <g id="Group_1216" data-name="Group 1216" transform="translate(0 0)">
        <g id="Group_1195" data-name="Group 1195">
          <g id="Group_1193" data-name="Group 1193" transform="translate(12.267)">
            <g id="Group_1192" data-name="Group 1192" transform="translate(23.73 31.119)">
              <path id="Path_1189" data-name="Path 1189" d="M382.59,218.856a128.136,128.136,0,1,0-253.968,24.26H380.286A128.788,128.788,0,0,0,382.59,218.856Z" transform="translate(-126.318 -90.721)" fill="#fbf4ef"/>
            </g>
            <circle id="Ellipse_422" data-name="Ellipse 422" cx="24.071" cy="24.071" r="24.071" transform="translate(0 19.819) rotate(-24.31)" fill="#fbf4ef"/>
            <circle id="Ellipse_423" data-name="Ellipse 423" cx="15.719" cy="15.719" r="15.719" transform="matrix(0.849, -0.528, 0.528, 0.849, 272.137, 68.245)" fill="#fbf4ef"/>
          </g>
          <g id="Group_1194" data-name="Group 1194" transform="translate(0 9.876)">
            <path id="Path_1190" data-name="Path 1190" d="M457.714,123.466h71.155s-.343-3.2-8.25-5.754-13.578,4-22.515,0-13.677-9.729-25.192-6.532S457.714,123.466,457.714,123.466Z" transform="translate(-247.685 -78.75)" fill="none" stroke="#fff" stroke-miterlimit="10" stroke-width="2.216"/>
            <path id="Path_1191" data-name="Path 1191" d="M139.752,175.858h48.677s-.235-2.352-5.644-4.233-9.288,2.939-15.4,0-9.357-7.157-17.234-4.806A16.42,16.42,0,0,0,139.752,175.858Z" transform="translate(-96.7 -105.288)" fill="none" stroke="#fff" stroke-miterlimit="10" stroke-width="1.748"/>
            <path id="Path_1192" data-name="Path 1192" d="M669.274,245.8a2.833,2.833,0,1,1-2.833-2.872A2.853,2.853,0,0,1,669.274,245.8Z" transform="translate(-345.455 -141.755)" fill="none" stroke="#fff" stroke-miterlimit="10" stroke-width="1.933"/>
            <path id="Path_1193" data-name="Path 1193" d="M284.832,53.142A2.833,2.833,0,1,1,282,50.27,2.852,2.852,0,0,1,284.832,53.142Z" transform="translate(-162.902 -50.27)" fill="none" stroke="#fff" stroke-miterlimit="10" stroke-width="1.933"/>
            <path id="Path_1194" data-name="Path 1194" d="M542.257,74.919a2.057,2.057,0,1,1-2.057-2.086A2.072,2.072,0,0,1,542.257,74.919Z" transform="translate(-285.877 -60.984)" fill="#fff"/>
            <ellipse id="Ellipse_424" data-name="Ellipse 424" cx="4.046" cy="4.103" rx="4.046" ry="4.103" transform="translate(0 100.355)" fill="none" stroke="#fff" stroke-miterlimit="10" stroke-width="1.933"/>
          </g>
        </g>
        <g id="Group_1215" data-name="Group 1215" transform="translate(16.435 84.142)">
          <g id="Group_1196" data-name="Group 1196" transform="translate(124.957)">
            <path id="Path_1195" data-name="Path 1195" d="M428.791,253.089a100.3,100.3,0,0,1,10.554-28.879c5.5-9.819,13.583-20.092,25.808-32.52,0,0-.383,2.533-1.387,6.718a109.5,109.5,0,0,1-5.41,16.462C453.025,227.8,443.445,243.425,428.791,253.089Z" transform="translate(-375.343 -191.69)" fill="#f9ebe3"/>
            <path id="Path_1196" data-name="Path 1196" d="M408.218,276.624c4.2-7.656,2.425-17.919-.827-27.024-3.266-9.151-7.945-17.182-9.243-21.161a84.383,84.383,0,0,0-3.723,19.95C393.944,259,395.937,271.171,408.218,276.624Z" transform="translate(-358.994 -209.14)" fill="#f9ebe3"/>
            <path id="Path_1197" data-name="Path 1197" d="M419.131,307.4c8.47-7.844,19.052-11.544,29.332-13.707,10.22-2.18,20.1-2.792,26.507-3.973a64.432,64.432,0,0,1-5.174,5.1,82.537,82.537,0,0,1-13.459,9.949C445.344,311.265,431.008,315.255,419.131,307.4Z" transform="translate(-370.756 -238.238)" fill="#f9ebe3"/>
            <path id="Path_1198" data-name="Path 1198" d="M381.478,312.786c7.044-9.089,3.852-21.152-1.168-30.523a81.3,81.3,0,0,0-11.839-16.417,53.817,53.817,0,0,0-1.007,5.516,72.163,72.163,0,0,0-.73,13.072C367.159,294.5,369.957,306.383,381.478,312.786Z" transform="translate(-345.85 -226.904)" fill="#f9ebe3"/>
            <path id="Path_1199" data-name="Path 1199" d="M395.739,345.8c8.01-5.776,19.011-8.781,30.219-9.139,11.2-.309,22.713,2.109,31.288,8.076a66.655,66.655,0,0,1-13.75,6.057c-8.022,2.542-18.335,3.961-27.138.288-8.822-3.685-13.93-5.058-16.874-5.434C396.533,345.244,395.739,345.8,395.739,345.8Z" transform="translate(-359.648 -260.516)" fill="#f9ebe3"/>
            <path id="Path_1200" data-name="Path 1200" d="M353.1,340.655a7.015,7.015,0,0,1,.085.835c.143.017.286.037.43.053.255.006.508.018.763.026,2.07-5.371,1.062-12.439-2.66-18.745a34.385,34.385,0,0,0-24.7-16.262,46.828,46.828,0,0,0,3.259,9.787c2.458,5.327,6.548,11.614,13.465,14.953C350.452,334.516,352.633,337.964,353.1,340.655Z" transform="translate(-327.014 -246.237)" fill="#f9ebe3"/>
          </g>
          <g id="Group_1197" data-name="Group 1197" transform="translate(42.751 14.365)">
            <path id="Path_1201" data-name="Path 1201" d="M208.7,268.714a84.977,84.977,0,0,1-17.974-18.342c-5.478-7.7-10.439-17.544-15.629-31.326,0,0,1.757,1.193,4.535,3.448a92.41,92.41,0,0,1,10.446,9.991C197.929,241.163,206.371,254.05,208.7,268.714Z" transform="translate(-172.671 -219.045)" fill="#f9ebe3"/>
            <path id="Path_1202" data-name="Path 1202" d="M209.632,315.414c-4.3-5.937-12.518-8.22-20.365-8.961-7.885-.746-15.4-.01-18.792-.429a70.292,70.292,0,0,0,13.6,9.937C191.8,320.1,201.511,322.891,209.632,315.414Z" transform="translate(-170.475 -260.348)" fill="#f9ebe3"/>
            <path id="Path_1203" data-name="Path 1203" d="M245.022,281.9c-3.026-9.277-2.272-18.7-.477-27.349,1.764-8.608,4.582-16.4,5.824-21.728a56.522,56.522,0,0,1,2.082,5.779,72.606,72.606,0,0,1,2.939,13.848C256.578,263.182,254.8,275.586,245.022,281.9Z" transform="translate(-204.901 -225.588)" fill="#f9ebe3"/>
            <path id="Path_1204" data-name="Path 1204" d="M227.061,347.124c-4.424-8.625-14.449-10.461-23.078-9.941a63.506,63.506,0,0,0-16.125,3.246,44.923,44.923,0,0,0,3.767,2.731,59.152,59.152,0,0,0,9.476,5.2C208.724,351.607,218.486,353.682,227.061,347.124Z" transform="translate(-178.729 -275.105)" fill="#f9ebe3"/>
            <path id="Path_1205" data-name="Path 1205" d="M261.333,312.135c-1.642-8.19-.232-17.689,3.213-26.407,3.481-8.7,9.089-16.66,16.365-21.114a58.427,58.427,0,0,1-.051,12.689c-.767,7.051-3.127,15.459-8.773,20.9s-8.373,8.881-9.628,11C261.184,311.331,261.333,312.135,261.333,312.135Z" transform="translate(-213.294 -240.684)" fill="#f9ebe3"/>
            <path id="Path_1206" data-name="Path 1206" d="M271.816,349.878c-2.588-5.341-1.029-12.882,3.431-19.174,4.494-6.27,11.953-11.3,21.556-10.685a35,35,0,0,1-3.492,8.542c-2.538,4.469-6.637,9.235-12.637,10.9-5.8,1.627-7.992,4.265-8.756,6.449A6.457,6.457,0,0,0,271.816,349.878Z" transform="translate(-218.002 -266.968)" fill="#f9ebe3"/>
          </g>
          <g id="Group_1199" data-name="Group 1199" transform="translate(31.466 47.237)">
            <g id="Group_1198" data-name="Group 1198">
              <path id="Path_1207" data-name="Path 1207" d="M205.8,333.908a4.2,4.2,0,0,1,.914.05,26.422,26.422,0,0,0,5.359-.118c.012-.014.022-.023.034-.037,1.739-2.117-2.1-.919,3.848-8.155,3.008-3.661.735-16.128-9.784-26.858,4.291,8.472,2.459,20.074,1.511,16.927-.982-3.259-.907-17.215-6.3-21.183a63.888,63.888,0,0,0-19.834-9.92c8.006,9.632,9.942,18.461,7.157,18.494-1.207.014-6.4-18.7-15.046-20.273a91.514,91.514,0,0,0-24.665-.694c.791,7.62,1.266,14.754,4.143,20.278,6.817,13.084,27.7,11.713,29.24,15.342,1.18,2.779-17.974.324-26.25-6.685,3.8,8.905,10.817,16.961,15.947,20.56s17.9-2.772,21.282-2.822c3.252-.048,2.241,2.977-6.519,5.023.576-.035-.568.073,0,0,.984-.209,1.02.131,2-.076a4.541,4.541,0,0,1,2.622.062,44.261,44.261,0,0,1,4.924.014,18.923,18.923,0,0,1,2.342,0A27.817,27.817,0,0,1,205.8,333.908Z" transform="translate(-148.987 -281.639)" fill="#d0dbe4" fill-rule="evenodd"/>
            </g>
            <path id="Path_1208" data-name="Path 1208" d="M168.054,300.866s20.646,11.823,49.152,41.788" transform="translate(-158.041 -290.769)" fill="none" stroke="#fbf4ef" stroke-miterlimit="10" stroke-width="1.046" fill-rule="evenodd"/>
            <line id="Line_149" data-name="Line 149" x2="4.034" y2="11.627" transform="translate(27.304 14.076)" fill="none" stroke="#fbf4ef" stroke-miterlimit="10" stroke-width="1.046"/>
          </g>
          <g id="Group_1201" data-name="Group 1201" transform="translate(191.659 50.646)">
            <g id="Group_1200" data-name="Group 1200">
              <path id="Path_1209" data-name="Path 1209" d="M521.032,309.872c3.035-5.756,3.567-13.206,4.432-21.163a95.621,95.621,0,0,0-25.771.6c-9.04,1.6-14.561,21.123-15.822,21.1-2.909-.048-.842-9.262,7.572-19.283a66.741,66.741,0,0,0-20.772,10.262c-5.658,4.118-5.652,18.7-6.695,22.1-1.006,3.283-2.861-8.848,1.665-17.676-11.044,11.156-13.482,24.168-10.359,28.009,6.173,7.59,11.128-.771,12.934,1.449.51.627.689.84.039,1.693a7.533,7.533,0,0,1,1.987.014c.99-.034,2.247-.392,3.062-.111.53-.023.878-.1,1.408-.121.2-.025.8-.008.994,0,3.962-.179,7.317.12,11.285.151.672.005,1.342.023,2.012.039a117.646,117.646,0,0,1,16.349-.183A57.8,57.8,0,0,0,517.865,318.9c-8.682,7.28-28.7,9.747-27.458,6.85C492.035,321.967,513.844,323.506,521.032,309.872Z" transform="translate(-454.028 -288.13)" fill="#d0dbe4" fill-rule="evenodd"/>
            </g>
            <path id="Path_1210" data-name="Path 1210" d="M528.6,308.223s-15.9,6.9-45.833,38.061" transform="translate(-467.676 -297.671)" fill="none" stroke="#fbf4ef" stroke-miterlimit="10" stroke-width="1.046" fill-rule="evenodd"/>
            <line id="Line_150" data-name="Line 150" x1="3.991" y2="11.324" transform="translate(38.852 14.62)" fill="none" stroke="#fbf4ef" stroke-miterlimit="10" stroke-width="1.046"/>
          </g>
          <g id="Group_1202" data-name="Group 1202" transform="translate(96.124 89.577)">
            <path id="Path_1211" data-name="Path 1211" d="M332.317,371.868a40.783,40.783,0,0,0,1.441-9.6,26.562,26.562,0,0,1-6.895,10.048C328.684,372.206,330.5,371.925,332.317,371.868Z" transform="translate(-298.109 -362.264)" fill="#94d0db" fill-rule="evenodd"/>
            <path id="Path_1212" data-name="Path 1212" d="M273.546,378.081c.806.012,1.607-.006,2.406-.033-1.078-.84-2.348-1.893-3.843-3.21.264,1.144.507,2.219.74,3.252C273.083,378.083,273.315,378.078,273.546,378.081Z" transform="translate(-272.109 -368.235)" fill="#94d0db" fill-rule="evenodd"/>
          </g>
          <g id="Group_1203" data-name="Group 1203" transform="translate(66.057 17.924)">
            <path id="Path_1213" data-name="Path 1213" d="M256.239,306.438a3.647,3.647,0,0,1,1.881.337,41.378,41.378,0,0,1,4.895-.278c.736-.055,1.468-.081,2.2-.085,1.212-.144,2.42-.326,3.659-.426,1.46-.119,2.922-.061,4.384-.068-6.392-18.382-24.622-62.307-57.823-80.1,0,0-7.874,30.488,34.185,81.233,1.726-.111,3.431-.309,5.149-.48C255.259,306.52,255.747,306.473,256.239,306.438Z" transform="translate(-214.855 -225.822)" fill="#edd0c1"/>
            <line id="Line_151" data-name="Line 151" x2="39.573" y2="66.569" transform="translate(6.819 13.842)" fill="none" stroke="#fbf4ef" stroke-miterlimit="10" stroke-width="1.046"/>
            <line id="Line_152" data-name="Line 152" y1="15.082" x2="1.441" transform="translate(25.767 30.634)" fill="none" stroke="#fbf4ef" stroke-miterlimit="10" stroke-width="1.046"/>
            <line id="Line_153" data-name="Line 153" x2="9.047" y2="3.287" transform="translate(29.488 63.907)" fill="none" stroke="#fbf4ef" stroke-miterlimit="10" stroke-width="1.046"/>
          </g>
          <g id="Group_1204" data-name="Group 1204" transform="translate(157.576 16.191)">
            <path id="Path_1214" data-name="Path 1214" d="M396.206,302.535c2.45.373,5.051.717,7.492,1.137a24.118,24.118,0,0,1,2.658.4c.885-.069,1.5.49,2.28.581.135.016.263.04.393.06,46.356-50.437,39.461-82.2,39.461-82.2-47.231,25.262-50.269,53.449-59.363,78.819,1.739.331,3.475.678,5.224.956C394.954,302.392,395.788,302.257,396.206,302.535Z" transform="translate(-389.128 -222.522)" fill="#edd0c1"/>
            <line id="Line_154" data-name="Line 154" x1="43.286" y2="66.753" transform="translate(9.307 13.589)" fill="none" stroke="#fbf4ef" stroke-miterlimit="10" stroke-width="1.046"/>
            <line id="Line_155" data-name="Line 155" x1="0.831" y1="14.75" transform="translate(31.588 29.952)" fill="none" stroke="#fbf4ef" stroke-miterlimit="10" stroke-width="1.046"/>
            <line id="Line_156" data-name="Line 156" x1="9.168" y2="2.933" transform="translate(18.824 62.733)" fill="none" stroke="#fbf4ef" stroke-miterlimit="10" stroke-width="1.046"/>
          </g>
          <g id="Group_1209" data-name="Group 1209" transform="translate(0 36.876)">
            <g id="Group_1206" data-name="Group 1206" transform="translate(16.252)">
              <path id="Path_1215" data-name="Path 1215" d="M149.743,334.629s-24.823-17.114-21.787-51.583" transform="translate(-123.664 -271.947)" fill="none" stroke="#e2c2af" stroke-miterlimit="10" stroke-width="2.062"/>
              <g id="Group_1205" data-name="Group 1205">
                <circle id="Ellipse_425" data-name="Ellipse 425" cx="4.663" cy="4.663" r="4.663" transform="translate(0 4.334)" fill="#d0dbe4"/>
                <path id="Path_1216" data-name="Path 1216" d="M130.224,264.391a2.673,2.673,0,1,1-2.859-2.473A2.673,2.673,0,0,1,130.224,264.391Z" transform="translate(-122.328 -261.911)" fill="#d0dbe4"/>
              </g>
            </g>
            <g id="Group_1208" data-name="Group 1208" transform="translate(0 30.748)">
              <path id="Path_1217" data-name="Path 1217" d="M135.364,359.71c.025.012-25.837,2.678-36.691-22.549" transform="translate(-93.629 -328.391)" fill="none" stroke="#e2c2af" stroke-miterlimit="10" stroke-width="2.062"/>
              <g id="Group_1207" data-name="Group 1207" transform="translate(0 0)">
                <path id="Path_1218" data-name="Path 1218" d="M97.438,328.77a3.7,3.7,0,1,1-5.106-1.139A3.7,3.7,0,0,1,97.438,328.77Z" transform="translate(-89.803 -323.592)" fill="#d0dbe4"/>
                <circle id="Ellipse_426" data-name="Ellipse 426" cx="2.12" cy="2.12" r="2.12" transform="translate(0 4.139) rotate(-77.427)" fill="#d0dbe4"/>
              </g>
            </g>
          </g>
          <g id="Group_1214" data-name="Group 1214" transform="translate(251.127 36.876)">
            <g id="Group_1211" data-name="Group 1211">
              <path id="Path_1219" data-name="Path 1219" d="M567.27,334.629s24.822-17.114,21.785-51.583" transform="translate(-567.27 -271.947)" fill="none" stroke="#e2c2af" stroke-miterlimit="10" stroke-width="2.062"/>
              <g id="Group_1210" data-name="Group 1210" transform="translate(16.752)">
                <path id="Path_1220" data-name="Path 1220" d="M599.182,274.489a4.663,4.663,0,1,0,4.987-4.314A4.663,4.663,0,0,0,599.182,274.489Z" transform="translate(-599.17 -265.829)" fill="#d0dbe4"/>
                <path id="Path_1221" data-name="Path 1221" d="M601.886,264.391a2.673,2.673,0,1,0,2.858-2.473A2.672,2.672,0,0,0,601.886,264.391Z" transform="translate(-600.456 -261.911)" fill="#d0dbe4"/>
              </g>
            </g>
            <g id="Group_1213" data-name="Group 1213" transform="translate(0.595 30.75)">
              <path id="Path_1222" data-name="Path 1222" d="M568.4,359.71c-.025.012,25.837,2.678,36.691-22.549" transform="translate(-568.403 -328.394)" fill="none" stroke="#e2c2af" stroke-miterlimit="10" stroke-width="2.062"/>
              <g id="Group_1212" data-name="Group 1212" transform="translate(33.523 0)">
                <path id="Path_1223" data-name="Path 1223" d="M632.816,328.77a3.7,3.7,0,1,0,5.106-1.139A3.7,3.7,0,0,0,632.816,328.77Z" transform="translate(-632.239 -323.594)" fill="#d0dbe4"/>
                <circle id="Ellipse_427" data-name="Ellipse 427" cx="2.12" cy="2.12" r="2.12" transform="translate(3.152 0.917) rotate(-12.482)" fill="#d0dbe4"/>
              </g>
            </g>
          </g>
        </g>
      </g>
    </g>
    <g id="DESIGNED_BY_FREEPIK" data-name="DESIGNED BY FREEPIK" transform="translate(58.474 48.508)">
      <g id="Group_1320" data-name="Group 1320">
        <ellipse id="Ellipse_428" data-name="Ellipse 428" cx="160.15" cy="3.405" rx="160.15" ry="3.405" transform="translate(0 163.46)" fill="#dfd0b0"/>
        <g id="Group_1242" data-name="Group 1242" transform="translate(246.08 14.125)">
          <g id="Group_1217" data-name="Group 1217" transform="translate(24.33 10.098)">
            <path id="Path_1224" data-name="Path 1224" d="M577.223,120.166a2.388,2.388,0,0,1-1.71-1.544,6.854,6.854,0,0,1-.666-2.6c-.413.368-.717.519-.8.367a6.658,6.658,0,0,1,1.308-3.034,7.01,7.01,0,0,1,6.081-3.3,6.036,6.036,0,0,1,5.61,3.7c.756,1.585,5.577,12.8,7.708,15.571,1.919,2.5,4.767,5.223,7.4,6.3-2.239,3.831-12.867,9.426-20.224,8.339C575.567,133.994,577.223,120.166,577.223,120.166Z" transform="translate(-574.03 -110.045)" fill="#583323"/>
            <path id="Path_1225" data-name="Path 1225" d="M579.783,112.536a5.254,5.254,0,0,0-3.771,3.445c-.059,1.123,1.041-.7,1.041-.7a2.758,2.758,0,0,0,.107,2.331c.5,1.1,1.428,1.575,1.735,2.924s-.129,7.132.87,12.61,2.816,8.8,3.684,9.836c5.532-.128,12.278-3.369,15.626-6.366-2.242-1.971-5.882-6.163-9.007-14.79s-4.19-9.557-6.351-9.983A5.892,5.892,0,0,0,579.783,112.536Z" transform="translate(-574.97 -110.853)" fill="#45281e"/>
          </g>
          <g id="Group_1218" data-name="Group 1218" transform="translate(21.189 117.858)">
            <path id="Path_1226" data-name="Path 1226" d="M591.046,350.514H569.628a.525.525,0,0,1-.511-.663c.628-2.146,5.107-4.33,7.093-5.194l.036-.016c2.968-1.287,5.59-2.118,4.943-5.228-.651-1.951-3.188-9-5.315-14.885-1.705-4.71-3.145-8.671-3.145-8.671l13.372-.613,1.3,9.285,3.154,22.5Z" transform="translate(-568.546 -315.244)" fill="#d46e6a"/>
            <path id="Path_1227" data-name="Path 1227" d="M590.689,324.529H579.16c-1.705-4.71-3.145-8.671-3.145-8.671l13.372-.613Z" transform="translate(-571.832 -315.244)" fill="#d05860"/>
            <path id="Path_1228" data-name="Path 1228" d="M590.81,377.313l-22.067-.029c-.868.029-.715-.874-.617-1.207.628-2.146,5.6-3.974,7.587-4.837l.036-.016a26.52,26.52,0,0,1,2.219,3.4c2.668-.212,8.186-.681,12.092-1.016Z" transform="translate(-568.049 -341.826)" fill="#9a2531"/>
          </g>
          <g id="Group_1219" data-name="Group 1219" transform="translate(29.819 118.407)">
            <path id="Path_1229" data-name="Path 1229" d="M603.036,351.285H585.818c-1.446,0,.867-2.372,3.239-3.3a33.354,33.354,0,0,0,3.876-1.909,8.781,8.781,0,0,0,.934-.628c1.3-1.01,1.477-1.991,1.235-3.728-.577-4.142-1.776-11.079-2.773-16.661-.874-4.909-1.594-8.772-1.594-8.772l13.593,1.215-.372,7.521-.846,17.084a10.438,10.438,0,0,0,.544,3.912,17.673,17.673,0,0,1,.638,2.328,10.359,10.359,0,0,1,.19,1.43A1.44,1.44,0,0,1,603.036,351.285Z" transform="translate(-584.903 -316.29)" fill="#db897f"/>
            <path id="Path_1230" data-name="Path 1230" d="M595.584,316.29l13.593,1.215-.372,7.521c-3.559,0-8.368.02-11.627.037C596.3,320.154,595.584,316.29,595.584,316.29Z" transform="translate(-589.754 -316.29)" fill="#d05860"/>
            <path id="Path_1231" data-name="Path 1231" d="M602.749,378.174l-17.7-.058c-1.706-.26.769-2.894,3.066-3.991.689-.33,2.345-1.006,4.107-1.764.385-.166.781-.318,1.223-.541.989,1.339,2.913,4.3,2.913,4.3l7.657-1.584a9.728,9.728,0,0,1,.325,2.075C604.385,377.432,604.224,378.289,602.749,378.174Z" transform="translate(-584.482 -342.658)" fill="#cb3636"/>
          </g>
          <g id="Group_1220" data-name="Group 1220" transform="translate(18.515 54.367)">
            <path id="Path_1232" data-name="Path 1232" d="M594.848,240.492l.641,23.394H566.453s-3.363-16.7-3.491-25.477c-.209-14.284,7.053-34.659,7.8-37.146.038-.124.057-.19.057-.19v-5.216l10.569-1.514,7.445,1.02,1.131.156,4.368.6a25.011,25.011,0,0,1,3.2,5.145,27.645,27.645,0,0,1,2.121,6.22C601.1,214.373,594.848,240.492,594.848,240.492Z" transform="translate(-562.958 -194.343)" fill="#45333d"/>
            <path id="Path_1233" data-name="Path 1233" d="M604.593,201.262H577.82c.038-.124.057-.19.057-.19v-5.216l10.569-1.514,7.445,1.02,1.131.156,4.368.6A25.014,25.014,0,0,1,604.593,201.262Z" transform="translate(-570.015 -194.343)" fill="#382a33"/>
            <path id="Path_1234" data-name="Path 1234" d="M612.079,242.01c.392,6.289,1.874,17.622,2.576,22.8h-1.034c-.592-5.211-2.13-18.824-2.41-21.755-.347-3.644,5.207-20.072,4.686-31.872a33.222,33.222,0,0,0-4.158-14.9l1.131.156a43.639,43.639,0,0,1,3.894,14.508C617.284,219.972,612.426,238.366,612.079,242.01Z" transform="translate(-585.863 -195.265)" fill="#382a33"/>
            <path id="Path_1235" data-name="Path 1235" d="M593.459,315.293h-3.917c.314-3.725.88-8.935,1.322-12.689C591.7,307.794,592.743,312.384,593.459,315.293Z" transform="translate(-575.581 -245.751)" fill="#382a33"/>
          </g>
          <g id="Group_1223" data-name="Group 1223">
            <g id="Group_1221" data-name="Group 1221">
              <path id="Path_1236" data-name="Path 1236" d="M532.488,99.241a1.959,1.959,0,0,1-2.411-.044c-.726-.641-.75-2-1.044-2.969-1-1.343-1.63-2.4-1.19-2.777-.25-.635-.092-.965.129-1.044-.174-.562.037-.811.336-.743a26.171,26.171,0,0,1,2.538,2.445l.583-.256h0a3.877,3.877,0,0,0-1.246-1.7c-.433-.337-.85-.795-.691-1.23.188-.515,2.228,1.008,2.7,1.638a6.834,6.834,0,0,1,1.359,3.486C533.88,98.1,533.81,98.324,532.488,99.241Z" transform="translate(-527.7 -90.816)" fill="#d46e6a"/>
              <path id="Path_1237" data-name="Path 1237" d="M530.238,98.83a2.774,2.774,0,0,1,1.247-2.058,2.6,2.6,0,0,1,1.9-.441A5.045,5.045,0,0,0,530.238,98.83Z" transform="translate(-528.905 -93.418)" fill="#d05860"/>
              <path id="Path_1238" data-name="Path 1238" d="M534.427,97.02s-.626-1.279-1.026-1.214-.378.672-.268,1.037a1.756,1.756,0,0,0,.43.887,3.86,3.86,0,0,0,.9.488,3.141,3.141,0,0,0-.141,1.666c.214.713.93,1.268,1.482,1.034s.8-.841.638-1.784-.274-1.48-.588-1.716A5.022,5.022,0,0,0,534.427,97.02Z" transform="translate(-530.247 -93.184)" fill="#db897f"/>
              <path id="Path_1239" data-name="Path 1239" d="M530.068,96.273s-.858-.989-1.851-2.428c.909.928,2.125,2.152,2.125,2.152Z" transform="translate(-527.946 -92.254)" fill="#d05860"/>
              <path id="Path_1240" data-name="Path 1240" d="M527.971,95.833s1.084,1.753,1.448,2.163a3.6,3.6,0,0,1,.272-.391S528.536,96.372,527.971,95.833Z" transform="translate(-527.829 -93.198)" fill="#d05860"/>
            </g>
            <g id="Group_1222" data-name="Group 1222" transform="translate(1.812 5.989)">
              <path id="Path_1241" data-name="Path 1241" d="M536.18,103.718c-.047-.1-.12-1.357-.578-1.487s-.713.9-.713.9-.86-.834-1.074-.444.062,1.394.025,1.336-1.019-1.107-1.249-.691.062,1.215.025,1.157-1.365-.8-1.458-.19.767,1.171.767,1.171.348,12.611,5.541,19.147a5.133,5.133,0,0,0,1.591,1.329c7.126,3.833,16.051,4.589,19.585,4.137,4.733-.605,7.064-8.335,1.544-9.824-3.174-.857-16.6-2.477-16.6-2.477Z" transform="translate(-531.151 -102.22)" fill="#e1c737"/>
              <path id="Path_1242" data-name="Path 1242" d="M550.225,133.355c-1.9.555-3.606,2.2-2.966,2.425s2.176-1.254,2.176-1.254-.912,1.825-.258,1.74C550.736,136.065,550.225,133.355,550.225,133.355Z" transform="translate(-538.735 -117.005)" fill="#cd9a36"/>
            </g>
          </g>
          <g id="Group_1226" data-name="Group 1226" transform="translate(40.744 23.708)">
            <g id="Group_1224" data-name="Group 1224" transform="translate(13.158 31.675)">
              <path id="Path_1243" data-name="Path 1243" d="M631.817,203.617c.276-.244.869-.847.869-.847a1.188,1.188,0,0,0,.994-.22,4.044,4.044,0,0,1,.619-.565c.273-.191.9.046,1.042-.341s.188-.509.264-.567.666.02.848-.385a5.319,5.319,0,0,0-.106-2.81c-.328-1.249-2.159-1.812-3.051-1.534,0,0-2.52.968-2.87,1.571s.494,2.418.494,2.418-.345,1.031-.23,1.184a.307.307,0,0,0,.213.081.808.808,0,0,0,.775-.374c-.012.039-.023.079-.036.117a9.717,9.717,0,0,0-.561,2.2C631.147,203.826,631.541,203.86,631.817,203.617Z" transform="translate(-630.341 -196.279)" fill="#db897f"/>
              <path id="Path_1244" data-name="Path 1244" d="M631.412,204.206a.808.808,0,0,0,.775-.374l.5-2.072A9.859,9.859,0,0,0,631.412,204.206Z" transform="translate(-630.849 -198.881)" fill="#d05860"/>
            </g>
            <g id="Group_1225" data-name="Group 1225">
              <path id="Path_1245" data-name="Path 1245" d="M625.444,168.467c-.077.077.406,1.9-.324,2.07-.362.083-.779-1.225-.779-1.225s-.558,1.627-1.038,1.053a1.475,1.475,0,0,1-.177-1.362s-.8,1.116-1.424.7-.129-1.359-.129-1.359-1.629.715-1.943.141,1.523-1.518,1.523-1.518l1.672-15.531s-12.558-3.987-14.616-5.908-4.562-7.949-1.485-9.357,19.886,4.686,24,9.874C635.012,151.444,629.486,164.443,625.444,168.467Z" transform="translate(-605.285 -135.962)" fill="#e1c737"/>
              <path id="Path_1246" data-name="Path 1246" d="M640.423,159.947s2.913-2.131,1.952-2.619-3.128,3.4-3.128,3.4,3.432.759,3.617-.027S640.423,159.947,640.423,159.947Z" transform="translate(-621.412 -146.087)" fill="#cd9a36"/>
            </g>
          </g>
          <g id="Group_1228" data-name="Group 1228" transform="translate(22.954 22.74)">
            <g id="Group_1227" data-name="Group 1227">
              <path id="Path_1247" data-name="Path 1247" d="M598.293,167.548l-11.852-.26-.681-.016-10.98-.038a4.606,4.606,0,0,1-2.423-2.782,4.45,4.45,0,0,1,.936-2.2,7.693,7.693,0,0,0,1.028-6.069c-1.113-4.5-2.521-8.983-2.717-11.087-.577-6.2.056-8.07,2.812-9.58a11.67,11.67,0,0,1,3.166-.864,40.2,40.2,0,0,1,4.431-.468c.154-.008.31-.016.467-.022a39.974,39.974,0,0,1,5.353.114c3.7.347,7.007,1.327,8.161,3.35C597.383,140.059,598.293,167.548,598.293,167.548Z" transform="translate(-571.409 -134.118)" fill="#e1c737"/>
              <path id="Path_1248" data-name="Path 1248" d="M596,167.325l-.681-.016c-.283-1.412-1.1-4.782-1.35-6.2-.8-4.594-1.424-9.213-1.835-13.857q-.31-3.482-.463-6.975c-.085-2.011-.182-4.045-.1-6.062.154-.008.31-.016.467-.022.149,2.386.153,4.784.287,7.172.259,4.569.681,9.127,1.3,13.661C594.106,158.5,595.319,163.891,596,167.325Z" transform="translate(-580.969 -134.155)" fill="#cd9a36"/>
              <path id="Path_1249" data-name="Path 1249" d="M591.777,142.662c-1.474.6-2.287-1.641-3.1-1.97s-1.474.814-1.474.814-.652-.929-1.2-.985-1.53,1.415-2.239,1.685-2.673.484-3.21-2.733a6.058,6.058,0,0,1,1.333-4.825,42.445,42.445,0,0,1,10.25-.377,9.706,9.706,0,0,1,.962,2.831C593.367,138.739,593.251,142.065,591.777,142.662Z" transform="translate(-575.712 -134.118)" fill="#cd9a36"/>
            </g>
          </g>
          <g id="Group_1241" data-name="Group 1241" transform="translate(25.746 13.319)">
            <g id="Group_1231" data-name="Group 1231" transform="translate(0.481 14.311)">
              <g id="Group_1229" data-name="Group 1229" transform="translate(0 0.233)">
                <path id="Path_1250" data-name="Path 1250" d="M581.975,153.983c-.988.211-2.058-2.341-2.058-2.341a5.058,5.058,0,0,1-.732-.095,2.18,2.18,0,0,1-1.5-.834c-.472-.865,3.106-4.205,4.8-5.541s3.476-2.121,3.473.088S582.963,153.773,581.975,153.983Z" transform="translate(-577.643 -143.873)" fill="#cb3636"/>
                <path id="Path_1251" data-name="Path 1251" d="M582.512,151.931a5.546,5.546,0,0,0-1.2,2.263,5.061,5.061,0,0,1-.732-.095,5.229,5.229,0,0,1,.512-1.279,11.369,11.369,0,0,1,3.743-3.572C584.782,149.3,583.523,150.685,582.512,151.931Z" transform="translate(-579.037 -146.426)" fill="#9a2531"/>
                <path id="Path_1252" data-name="Path 1252" d="M589.336,147.369s-4.745,7.588-3.889,7.734S588.354,149.854,589.336,147.369Z" transform="translate(-581.299 -145.533)" fill="#9a2531"/>
              </g>
              <g id="Group_1230" data-name="Group 1230" transform="translate(6.801)">
                <path id="Path_1253" data-name="Path 1253" d="M595.864,152.987c1.009.062,1.688-2.622,1.688-2.622a5.05,5.05,0,0,0,.71-.2,2.181,2.181,0,0,0,1.358-1.048c.339-.926-3.7-3.7-5.568-4.767s-3.752-1.581-3.421.6S594.856,152.926,595.864,152.987Z" transform="translate(-590.593 -143.429)" fill="#cb3636"/>
                <path id="Path_1254" data-name="Path 1254" d="M598.505,150.63a5.541,5.541,0,0,1,1.525,2.059,5.046,5.046,0,0,0,.71-.2,5.2,5.2,0,0,0-.7-1.189,11.366,11.366,0,0,0-4.232-2.977C595.869,148.362,597.32,149.547,598.505,150.63Z" transform="translate(-593.071 -145.752)" fill="#9a2531"/>
                <path id="Path_1255" data-name="Path 1255" d="M591.314,147.1s5.82,6.8,5,7.071S592.654,149.408,591.314,147.1Z" transform="translate(-590.936 -145.17)" fill="#9a2531"/>
              </g>
            </g>
            <path id="Path_1256" data-name="Path 1256" d="M586.8,132.612a4.948,4.948,0,0,0-3.275,3.015c-1.063,2.517-.129,4.676.564,4.491,1.186-.318,1.3-1.611,2.343-1.707a1.706,1.706,0,0,0,2.7-.189,4.917,4.917,0,0,1,2.1,1.086c1.319,1.207,1.62.607,1.706-1.62a7.192,7.192,0,0,0-.781-3.362C591.285,132.526,588.923,131.894,586.8,132.612Z" transform="translate(-579.727 -123.844)" fill="#e1c737"/>
            <g id="Group_1240" data-name="Group 1240">
              <g id="Group_1232" data-name="Group 1232" transform="translate(0 3.954)">
                <path id="Path_1257" data-name="Path 1257" d="M577.771,123.733c-1.179-.208-1.181.961-.868,1.6a2.525,2.525,0,0,0,1.771,1.461.591.591,0,0,0,.691-.238S579.081,123.965,577.771,123.733Z" transform="translate(-576.727 -123.708)" fill="#d46e6a"/>
                <path id="Path_1258" data-name="Path 1258" d="M577.61,125.8s-.408-.946-.058-1.262,1.061.453,1.474,1.329c-.2-.157-.577.015-.494.256a1.084,1.084,0,0,0,.713.648,1.1,1.1,0,0,1-1.153-.758c-.046-.359.578-.427.578-.427s-.541-.771-.79-.668S577.61,125.8,577.61,125.8Z" transform="translate(-577.051 -124.068)" fill="#d05860"/>
              </g>
              <g id="Group_1233" data-name="Group 1233" transform="translate(4.818 4.607)">
                <path id="Path_1259" data-name="Path 1259" d="M591.67,130.023a1.845,1.845,0,0,1,.164,1.174c-.293,1.5-1.185,3.113-2.609,3.288a3.152,3.152,0,0,1-2.377-1.083,1.827,1.827,0,0,1-.5-1.736,2.959,2.959,0,0,0,.065-.963c-.006-.068-.015-.14-.024-.213-.13-1.019-.487-2.462-.487-2.462l4.527-3.079s.165,1.385.5,2.825A11.072,11.072,0,0,0,591.67,130.023Z" transform="translate(-585.901 -124.95)" fill="#d46e6a"/>
                <path id="Path_1260" data-name="Path 1260" d="M590.933,127.775a4.163,4.163,0,0,1-.763,1.113,6.172,6.172,0,0,1-3.782,1.6c-.13-1.019-.487-2.462-.487-2.462l4.527-3.079S590.594,126.335,590.933,127.775Z" transform="translate(-585.901 -124.95)" fill="#d05860"/>
              </g>
              <g id="Group_1234" data-name="Group 1234" transform="translate(1.449)">
                <path id="Path_1261" data-name="Path 1261" d="M587.26,122.452a2.865,2.865,0,0,1-1.667,2.153c-.977.512-3.48,1.3-4.374.327s-1.746-4.506-1.732-5.533v0c.011-1.024.11-1.262.549-1.686.9-.871,1.564-1.531,1.564-1.531a4.923,4.923,0,0,0,1.174,1.606c.668.5,1.58.422,2.921.648s1.26.529,1.624,1.266a2.768,2.768,0,0,1,.144.339C587.65,120.575,587.545,121.025,587.26,122.452Z" transform="translate(-579.487 -116.178)" fill="#db897f"/>
                <path id="Path_1262" data-name="Path 1262" d="M587.466,120.037a2.97,2.97,0,0,0-1.077-.692c-.865-.256-1.991-.035-3.188-.49-.492-.187-.792-.415-1.641-1.4a11.414,11.414,0,0,0-2.072,1.94c.011-1.024.11-1.262.549-1.686.9-.871,1.564-1.531,1.564-1.531a4.922,4.922,0,0,0,1.174,1.606c.668.5,1.58.422,2.921.648s1.26.529,1.624,1.266A2.779,2.779,0,0,1,587.466,120.037Z" transform="translate(-579.488 -116.178)" fill="#d46e6a"/>
              </g>
              <g id="Group_1235" data-name="Group 1235" transform="translate(3.945 2.991)">
                <path id="Path_1263" data-name="Path 1263" d="M584.239,121.873a1.222,1.222,0,0,1,.67,1.173,1.793,1.793,0,0,1-.556,1.148,5.409,5.409,0,0,0,.155-1.312A2.716,2.716,0,0,0,584.239,121.873Z" transform="translate(-584.239 -121.873)" fill="#d05860"/>
                <path id="Path_1264" data-name="Path 1264" d="M586.33,125.534c-.074-.173-.962.186-.869.244S586.46,125.838,586.33,125.534Z" transform="translate(-584.816 -123.589)" fill="#d05860"/>
              </g>
              <g id="Group_1236" data-name="Group 1236" transform="translate(4.003 5.378)">
                <path id="Path_1265" data-name="Path 1265" d="M587.195,127.813a1.808,1.808,0,0,1-1.661.928h-.055a1.032,1.032,0,0,1-1.1-.854.861.861,0,0,1,.086-.46.561.561,0,0,1,.308-.27c.219-.079.553-.019.786-.085.644-.179.926-.569,1.3-.445a.6.6,0,0,1,.166.085.725.725,0,0,1,.277.511A1.159,1.159,0,0,1,587.195,127.813Z" transform="translate(-584.36 -126.506)" fill="#45333d"/>
                <path id="Path_1266" data-name="Path 1266" d="M587.1,126.711a1.937,1.937,0,0,1-1.176.871,1.589,1.589,0,0,1-1.383-.156.565.565,0,0,1,.308-.27c.219-.079.553-.019.787-.085.644-.179.926-.569,1.3-.445A.614.614,0,0,1,587.1,126.711Z" transform="translate(-584.44 -126.506)" fill="#fff"/>
                <path id="Path_1267" data-name="Path 1267" d="M588.2,128.334a1.808,1.808,0,0,1-1.661.928h-.055a.7.7,0,0,1,.76-.738c.068-.456.622-.98,1.058-.779A1.161,1.161,0,0,1,588.2,128.334Z" transform="translate(-585.36 -127.027)" fill="#d05860"/>
                <path id="Path_1268" data-name="Path 1268" d="M584.363,127.8a.671.671,0,0,1,.369-.567c.282-.108.608-.006.955-.092s.615-.411.883-.475a.569.569,0,0,1,.716.471.623.623,0,0,0-.571-.716c-.361-.015-.746.425-1.165.489s-.831-.045-1.049.207A.932.932,0,0,0,584.363,127.8Z" transform="translate(-584.349 -126.419)" fill="#d05860"/>
              </g>
              <g id="Group_1237" data-name="Group 1237" transform="translate(5.486 2.438)">
                <path id="Path_1269" data-name="Path 1269" d="M588.642,122.968a.543.543,0,0,0-.681-.145.537.537,0,0,0-.2.7.494.494,0,0,0,.742.19A.549.549,0,0,0,588.642,122.968Z" transform="translate(-587.425 -121.742)" fill="#45333d"/>
                <path id="Path_1270" data-name="Path 1270" d="M587.173,121.553a.944.944,0,0,1,.724-.3,1.476,1.476,0,0,1,.7.218s-.162-.758-.856-.644A.7.7,0,0,0,587.173,121.553Z" transform="translate(-587.173 -120.82)" fill="#45333d"/>
              </g>
              <g id="Group_1238" data-name="Group 1238" transform="translate(2.342 2.841)">
                <path id="Path_1271" data-name="Path 1271" d="M582.874,123.653a.543.543,0,0,0-.681-.145.537.537,0,0,0-.2.7.493.493,0,0,0,.741.19A.549.549,0,0,0,582.874,123.653Z" transform="translate(-581.542 -122.471)" fill="#45333d"/>
                <path id="Path_1272" data-name="Path 1272" d="M581.19,122.46a.946.946,0,0,1,.652-.432,1.482,1.482,0,0,1,.726.078s-.288-.677-.884-.483A.794.794,0,0,0,581.19,122.46Z" transform="translate(-581.187 -121.588)" fill="#45333d"/>
              </g>
              <path id="Path_1273" data-name="Path 1273" d="M586.651,131.688c-.2-.116.045-.575.468-.682s.834.143.726.349A1.643,1.643,0,0,1,586.651,131.688Z" transform="translate(-581.406 -123.207)" fill="#d46e6a"/>
              <g id="Group_1239" data-name="Group 1239" transform="translate(9.005 2.51)">
                <path id="Path_1274" data-name="Path 1274" d="M595.2,121.044c1.3-.438,1.5.884,1.256,1.666a2.308,2.308,0,0,1-1.752,1.956c-.592.168-.822-.151-.822-.151S593.753,121.53,595.2,121.044Z" transform="translate(-593.875 -120.957)" fill="#db897f"/>
                <path id="Path_1275" data-name="Path 1275" d="M596.47,123.292s.3-1.14-.151-1.437-1.122.694-1.439,1.755c.2-.212.655-.082.6.2a1.239,1.239,0,0,1-.7.855,1.254,1.254,0,0,0,1.174-1.055c-.01-.413-.727-.384-.727-.384s.48-.964.779-.891S596.47,123.292,596.47,123.292Z" transform="translate(-594.308 -121.358)" fill="#d05860"/>
              </g>
            </g>
          </g>
        </g>
        <g id="Group_1270" data-name="Group 1270" transform="translate(174.318 9.932)">
          <g id="Group_1245" data-name="Group 1245" transform="translate(0 88.975)">
            <g id="Group_1243" data-name="Group 1243" transform="translate(0.406)">
              <path id="Path_1276" data-name="Path 1276" d="M424.994,252.694s-.363,5.927-.844,11.236a60.011,60.011,0,0,1-1.007,7.736c-.715,2.429-14.779,25.963-20.159,33.786a7.74,7.74,0,0,0-.924,7.039,11.123,11.123,0,0,0,.885,1.884,7.641,7.641,0,0,0,1.139,1.484c2.112,2.112,3.422,3.581,3.8,4.619a.57.57,0,0,1-.541.76h-4.412a5.922,5.922,0,0,1-5.633-4.056,14.284,14.284,0,0,0-1.893-3.927c-2.169-2.95-3.818-4.9-3.557-6.29a5.748,5.748,0,0,1,1.787-2.361l.025-.023A10.278,10.278,0,0,0,396.193,301l13.79-32.771V252.26Z" transform="translate(-391.822 -252.26)" fill="#db897f"/>
              <path id="Path_1277" data-name="Path 1277" d="M441.415,252.694s-.363,5.927-.844,11.236H426.4V252.26Z" transform="translate(-408.244 -252.26)" fill="#d05860"/>
              <path id="Path_1278" data-name="Path 1278" d="M437.606,285.131c-2.429-.087-1,3.688.3,5.163s4.946-3.731,4.078-4.512S437.606,285.131,437.606,285.131Z" transform="translate(-412.937 -267.865)" fill="#d46e6a"/>
            </g>
            <g id="Group_1244" data-name="Group 1244" transform="translate(0 51.972)">
              <path id="Path_1279" data-name="Path 1279" d="M391.179,356.018a13.161,13.161,0,0,0-.044,3.774c.18,2.338.838,6.664,1.057,8.616a.715.715,0,0,0,.711.635h0a.715.715,0,0,0,.715-.705l.164-9.935Z" transform="translate(-391.049 -353.502)" fill="#9a2531"/>
              <path id="Path_1280" data-name="Path 1280" d="M407.192,368.406l-4.729-.044c-3.253-.087-4.842-1.651-5.64-4.078a16.008,16.008,0,0,0-2.082-4.121c-2.169-2.95-3.731-4.9-3.471-6.29a4.65,4.65,0,0,1,2.039-2.646c.341,1.314,2.455,9.158,5.38,10.542a3.6,3.6,0,0,0,4.121-.652,10.953,10.953,0,0,0,1.215,1.562c2.256,2.516,3.481,3.82,3.861,4.859C408.022,367.908,407.585,368.406,407.192,368.406Z" transform="translate(-391.141 -351.227)" fill="#cb3636"/>
            </g>
          </g>
          <g id="Group_1248" data-name="Group 1248" transform="translate(36.806 92.837)">
            <g id="Group_1246" data-name="Group 1246" transform="translate(0 0)">
              <path id="Path_1281" data-name="Path 1281" d="M495.529,323.174l-3.441.048c-1.561.016-2.853-.869-4.326-2.362a32.746,32.746,0,0,0-3.034-3.067c-1.714-1.3-4.759-1.8-5.444-3.105s.594-3.346.594-3.346-14.921-30.916-17.033-37.537a34.636,34.636,0,0,1-1.238-5.5,44.314,44.314,0,0,1-.421-8.543l12.62-.146s.9,3.512,2.244,8.689c2.983,11.525,7.97,30.693,10.151,38.508a25.16,25.16,0,0,0,2.883,6.532c2.913,4.681,5.418,7.594,6.962,8.628C496.63,322.36,496.277,323.174,495.529,323.174Z" transform="translate(-461.135 -259.613)" fill="#db897f"/>
              <path id="Path_1282" data-name="Path 1282" d="M476.051,268.3H461.607a44.314,44.314,0,0,1-.421-8.543l12.62-.146S474.712,263.125,476.051,268.3Z" transform="translate(-461.135 -259.613)" fill="#d05860"/>
              <path id="Path_1283" data-name="Path 1283" d="M478.243,285.949c.434-.955,5.206-1.3,5.9-.434s.452,4.4-1.128,4.512C480.586,290.2,477.809,286.9,478.243,285.949Z" transform="translate(-469.237 -271.677)" fill="#d05860"/>
            </g>
            <g id="Group_1247" data-name="Group 1247" transform="translate(16.927 49.629)">
              <path id="Path_1284" data-name="Path 1284" d="M494.111,356.018a13.161,13.161,0,0,0-.044,3.774c.18,2.338.838,6.664,1.057,8.616a.715.715,0,0,0,.711.635h0a.715.715,0,0,0,.715-.705l.164-9.935Z" transform="translate(-493.659 -355.02)" fill="#9a2531"/>
              <path id="Path_1285" data-name="Path 1285" d="M494.037,354.118a83.571,83.571,0,0,1,5.778,6.536,12.715,12.715,0,0,0,1.966,2.2,4.45,4.45,0,0,0,2.724,1.1,2.992,2.992,0,0,0,2.283-1.1,6.957,6.957,0,0,0,.726-.735c.016.022,5.577,3.567,6.935,5.006a.755.755,0,0,1-.578,1.27l-7.315.087c-1,0-2.63-.434-4.057-2.634a12.291,12.291,0,0,0-2.34-2.529c-1.435-1.215-4.22-2.237-5.86-3.2C492.371,358.991,494.037,354.118,494.037,354.118Z" transform="translate(-493.368 -354.118)" fill="#cb3636"/>
            </g>
          </g>
          <g id="Group_1251" data-name="Group 1251" transform="translate(38.683)">
            <g id="Group_1249" data-name="Group 1249" transform="translate(18.065)">
              <path id="Path_1286" data-name="Path 1286" d="M503.6,87.241a8.791,8.791,0,0,1,.393,1.849c.1.994-.824,2.706-2.06,2.441s-2.543-2.588-2.667-3.356a11.846,11.846,0,0,1,.31-5.152c.421-.537.651.179.711.613.044.315.057,2,.061,2.9,0,.075,0,.142,0,.2,0,.221,0,.36,0,.36l.289-.359.024-.028s0-.085.017-.229c.063-.7.344-2.8,1.471-3.486.654-.03,1.139,2.752,1.271,3.6.023.152.036.241.036.241S503.516,86.987,503.6,87.241Z" transform="translate(-499.109 -82.832)" fill="#d46e6a"/>
              <path id="Path_1287" data-name="Path 1287" d="M504.1,90.074s.062.15.143.4a10.508,10.508,0,0,0-2.962-.5c-.1,0-.192,0-.289,0-.152,0-.3.007-.454.016a.063.063,0,0,1-.013-.125c.155-.037.311-.068.466-.095.111-.02.222-.038.331-.053a7.6,7.6,0,0,1,2.742.111C504.088,89.985,504.1,90.074,504.1,90.074Z" transform="translate(-499.756 -86.068)" fill="#d05860"/>
              <path id="Path_1288" data-name="Path 1288" d="M502.037,93.334a2.339,2.339,0,0,1-1.737-.823,3.736,3.736,0,0,1-.929-2.533c.176-.5.889-1.823.889-1.823s-.325-1.17-.148-1.422.883-.065,1.151.738a2.573,2.573,0,0,1-.46,2.559,2.3,2.3,0,0,1,1.794,2C502.772,93.368,502.037,93.334,502.037,93.334Z" transform="translate(-499.217 -84.634)" fill="#db897f"/>
            </g>
            <g id="Group_1250" data-name="Group 1250" transform="translate(0 6.416)">
              <path id="Path_1289" data-name="Path 1289" d="M468.021,122.339c1.106.907,20.737.983,21.951-2.661,2.488-7.52-1.475-23.89-1.909-24.323s-.78,1.128-.78,1.128-.868-1.735-1.128-1.388,0,1.475,0,1.475-1.3-1.908-1.562-1.3a5.747,5.747,0,0,0-.347,1.388s-1.041-1.215-1.3-.955.434,1.909.434,1.909l-.608,15.1-15.816.341S461.253,116.786,468.021,122.339Z" transform="translate(-464.709 -95.049)" fill="#faf0d1"/>
              <path id="Path_1290" data-name="Path 1290" d="M499.818,129.612s.636,4.569,1.5,3.817-.232-2.545-.232-2.545,1.446,1.5,1.446.52S499.818,129.612,499.818,129.612Z" transform="translate(-481.381 -111.461)" fill="#ead8ac"/>
            </g>
          </g>
          <g id="Group_1252" data-name="Group 1252" transform="translate(19.823 8.255)">
            <path id="Path_1291" data-name="Path 1291" d="M448.827,108.095c.087,0,.566-.054,1.093-.909a3.551,3.551,0,0,0,.5-1.78s1.013-.232.955-1.678-2.429-3.152-2.429-3.152a3.268,3.268,0,0,0-1.793-1.793,7.422,7.422,0,0,0-7.288,2.256,4.565,4.565,0,0,0-.087,5.842c-.376.521-.4.723-.954.9s-3.008-.289-5.177.289a6.677,6.677,0,0,0-4.107,2.69,4.17,4.17,0,0,0,.868,5.668c2.284,1.909,6.565,3.066,9.341,1.331s4.049-4.946,5.235-6.913A7.471,7.471,0,0,1,448.827,108.095Z" transform="translate(-428.796 -98.552)" fill="#45333d"/>
            <path id="Path_1292" data-name="Path 1292" d="M450.77,106.528s1.446-.9,1.417-1.764a3.284,3.284,0,0,0-2.343-2.719,2.673,2.673,0,0,0-2.4-1.735c-.781-.058-5.235.694-6.016,3.124a5.767,5.767,0,0,0,.925,4.714,3.982,3.982,0,0,1-2.458,1.793c-1.909.607-5.466.318-7.028,1.88a3.833,3.833,0,0,0,.2,5.64c1.735,1.36,7.057,3.008,10.5-.347S450.77,106.528,450.77,106.528Z" transform="translate(-430.19 -99.385)" fill="#382a33"/>
          </g>
          <g id="Group_1253" data-name="Group 1253" transform="translate(19.911 23.669)">
            <path id="Path_1293" data-name="Path 1293" d="M455.7,152.921c0,1.157-2.661,2.95-2.661,2.95H430.195a93.319,93.319,0,0,0-.668-13.641c-.925-7.751-.7-11.482.629-12.756.945-.9,3.991-1.317,5.67-1.479.681-.067,1.137-.092,1.137-.092s4.281-.028,10.077.475c1.2.1,2.164.189,2.942.272,2.987.319,3.238.627,3.467,2,.29,1.735.059,18.162.059,18.162S455.7,151.763,455.7,152.921Z" transform="translate(-428.964 -127.902)" fill="#faf0d1"/>
            <path id="Path_1294" data-name="Path 1294" d="M456.76,137.223c-2.31,2.248-6.306-1.312-6.306-1.312s-2.871,4-6.741,2.435c-3.177-1.28-2.4-7.99-2.019-10.351.681-.067,1.137-.092,1.137-.092s4.28-.028,10.077.475c1.2.1,2.164.189,2.942.272C457.405,130.9,458.618,135.414,456.76,137.223Z" transform="translate(-434.834 -127.902)" fill="#ead8ac"/>
            <path id="Path_1295" data-name="Path 1295" d="M459.11,161.233h-.581c-.091-8.983-.457-21.749-.457-21.749l.463-.289s.179,3.767.312,9.214C458.964,153.143,459.075,159.268,459.11,161.233Z" transform="translate(-442.786 -133.265)" fill="#ead8ac"/>
          </g>
          <g id="Group_1254" data-name="Group 1254" transform="translate(15.332 51.637)">
            <path id="Path_1296" data-name="Path 1296" d="M458.966,226.621H421.092s-1.654-21.186-.34-31.115c.1-.731.209-1.4.34-2,1.9-8.695,4.962-12.35,4.962-12.35H448.9l.023,2.449.038,4.184Z" transform="translate(-420.245 -181.16)" fill="#cb3636"/>
            <path id="Path_1297" data-name="Path 1297" d="M449.384,183.609c-2.992-.034-6.617-.163-6.617-.163v12.061H421.211c.1-.731.209-1.4.34-2,1.9-8.695,4.962-12.35,4.962-12.35h22.848Z" transform="translate(-420.704 -181.16)" fill="#9a2531"/>
            <path id="Path_1298" data-name="Path 1298" d="M427.341,226.621h-.791a244.922,244.922,0,0,1-1.174-27.124,33.859,33.859,0,0,1,5.586-18.336h.83c-1.82,2.681-4.756,8.326-5.462,17.556C425.816,205.446,426.961,221.609,427.341,226.621Z" transform="translate(-422.662 -181.16)" fill="#9a2531"/>
          </g>
          <g id="Group_1265" data-name="Group 1265" transform="translate(27.883 12.042)">
            <g id="Group_1259" data-name="Group 1259" transform="translate(1.418)">
              <g id="Group_1255" data-name="Group 1255" transform="translate(0 4.968)">
                <path id="Path_1299" data-name="Path 1299" d="M452.831,127.521c-3.139,0-5.4-2.787-5.986-5.752,1.408-.234,1.79-.38,2.172-.967a9.619,9.619,0,0,0,.571-2.645c.12-.944.212-1.939.25-2.637.088-1.583,5.163,3.669,5.163,3.669a5.893,5.893,0,0,0-.321,1.807,2.6,2.6,0,0,0,.029.305,1.249,1.249,0,0,0,.821,1.056S455.97,127.521,452.831,127.521Z" transform="translate(-446.845 -115.222)" fill="#d46e6a"/>
                <path id="Path_1300" data-name="Path 1300" d="M457.16,120.995a5.906,5.906,0,0,1-1.438-.106,5.23,5.23,0,0,1-3.653-2.733c.12-.944.212-1.939.249-2.637.088-1.583,5.163,3.669,5.163,3.669A5.894,5.894,0,0,0,457.16,120.995Z" transform="translate(-449.326 -115.222)" fill="#d05860"/>
              </g>
              <g id="Group_1256" data-name="Group 1256" transform="translate(10.111 3.359)">
                <path id="Path_1301" data-name="Path 1301" d="M468.143,112.2c1.194-.312,1.02,1.068.62,1.71a2.159,2.159,0,0,1-1.99,1.359c-.553.019-.675-.315-.675-.315S466.81,112.553,468.143,112.2Z" transform="translate(-466.098 -112.158)" fill="#d46e6a"/>
                <path id="Path_1302" data-name="Path 1302" d="M468.786,114.362s.535-.949.217-1.312-1.14.372-1.67,1.247c.225-.144.587.071.473.314a1.165,1.165,0,0,1-.809.609,1.161,1.161,0,0,0,1.272-.682c.091-.37-.537-.5-.537-.5s.649-.754.89-.622S468.786,114.362,468.786,114.362Z" transform="translate(-466.524 -112.536)" fill="#d05860"/>
              </g>
              <g id="Group_1257" data-name="Group 1257" transform="translate(2.742)">
                <path id="Path_1303" data-name="Path 1303" d="M461.094,107.876c-.034.255-.089.554-.147.878-.4,2.07-1.295,5.208-2.084,5.934-.731.672-3.644.6-5.321-1.015a5.945,5.945,0,0,1-1.467-3.972,2.559,2.559,0,0,1,.089-.907l0,0a2.452,2.452,0,0,1,.946-1.329s.015-.01.025-.019c.839-.579,2.315-.373,3.325-.461a2.73,2.73,0,0,0,2.315-1.216C459.269,106.689,460.486,106.861,461.094,107.876Z" transform="translate(-452.066 -105.762)" fill="#db897f"/>
                <path id="Path_1304" data-name="Path 1304" d="M461.186,107.876c-.034.255-.089.554-.147.878a4.3,4.3,0,0,0-2.021-1.6c-.947.5-1.285.642-4.336.848a4.115,4.115,0,0,0-2.423.785,2.452,2.452,0,0,1,.946-1.329s.015-.01.025-.019c.839-.579,2.315-.373,3.325-.461a2.731,2.731,0,0,0,2.315-1.216C459.361,106.689,460.578,106.861,461.186,107.876Z" transform="translate(-452.158 -105.762)" fill="#d46e6a"/>
              </g>
              <g id="Group_1258" data-name="Group 1258" transform="translate(0.557 2.631)">
                <path id="Path_1305" data-name="Path 1305" d="M449,110.777c-1.365-.095-1.226,1.236-.792,1.93a2.307,2.307,0,0,0,2.191,1.447c.615.012.756-.354.756-.354S450.518,110.881,449,110.777Z" transform="translate(-447.905 -110.772)" fill="#db897f"/>
                <path id="Path_1306" data-name="Path 1306" d="M449.027,113.2s-.578-1.026-.219-1.427,1.262.387,1.837,1.332c-.248-.154-.654.087-.531.351a1.24,1.24,0,0,0,.89.651,1.254,1.254,0,0,1-1.4-.723c-.095-.4.606-.556.606-.556s-.709-.811-.979-.664S449.027,113.2,449.027,113.2Z" transform="translate(-448.278 -111.197)" fill="#d05860"/>
              </g>
            </g>
            <g id="Group_1264" data-name="Group 1264" transform="translate(3.865 1.027)">
              <g id="Group_1260" data-name="Group 1260" transform="translate(4.877 1.736)">
                <path id="Path_1307" data-name="Path 1307" d="M462.265,111.024a2.939,2.939,0,0,0-.506,1.5c.053.608.824,1.113.824,1.113a5.535,5.535,0,0,1-.4-1.244C462.178,111.964,462.265,111.024,462.265,111.024Z" transform="translate(-461.249 -111.024)" fill="#d05860"/>
                <path id="Path_1308" data-name="Path 1308" d="M461.591,115.709c.116-.087-.765-.077-.8.043C460.752,115.926,461.128,116.056,461.591,115.709Z" transform="translate(-460.792 -113.222)" fill="#d05860"/>
              </g>
              <path id="Path_1309" data-name="Path 1309" d="M458.017,116.5a1.823,1.823,0,0,0,1.128,1.389c1,.376,1.692-.709,1.692-.709Z" transform="translate(-454.598 -111.89)" fill="#45333d"/>
              <path id="Path_1310" data-name="Path 1310" d="M459.386,120.687c-.072-.058.275-.463.81-.391.43.058.593.52.492.579A3.31,3.31,0,0,1,459.386,120.687Z" transform="translate(-455.243 -113.687)" fill="#d46e6a"/>
              <g id="Group_1261" data-name="Group 1261" transform="translate(6.558 0.804)">
                <path id="Path_1311" data-name="Path 1311" d="M466.132,110.153s-.237-.338-1.053-.39a1.518,1.518,0,0,0-1.058.3,1.01,1.01,0,0,1,1.112-.814A1.022,1.022,0,0,1,466.132,110.153Z" transform="translate(-464.006 -109.25)" fill="#45333d"/>
                <path id="Path_1312" data-name="Path 1312" d="M463.993,112.2a1.426,1.426,0,0,1,.911-.463,1.814,1.814,0,0,1,1.012.376,1.428,1.428,0,0,0-1.027-.868C464.181,111.169,463.993,112.2,463.993,112.2Z" transform="translate(-463.993 -110.194)" fill="#45333d"/>
              </g>
              <g id="Group_1262" data-name="Group 1262" transform="translate(2.339 0.661)">
                <path id="Path_1313" data-name="Path 1313" d="M455.959,111.68a2.507,2.507,0,0,1,1.1-.253,1.946,1.946,0,0,1,1.03.5c-.011-.032-.09-.951-.846-1.073A1.111,1.111,0,0,0,455.959,111.68Z" transform="translate(-455.959 -109.86)" fill="#45333d"/>
                <path id="Path_1314" data-name="Path 1314" d="M456.117,109.589a2.416,2.416,0,0,1,1.273-.1,2.061,2.061,0,0,1,1.012.391.994.994,0,0,0-1.012-.9A1.191,1.191,0,0,0,456.117,109.589Z" transform="translate(-456.034 -108.977)" fill="#45333d"/>
              </g>
              <g id="Group_1263" data-name="Group 1263">
                <path id="Path_1315" data-name="Path 1315" d="M456.5,107.719a2.569,2.569,0,0,0-.778.1c-2.037.6-1.675,3.887.434,4.061a2.1,2.1,0,0,0,2.247-1.849,2.279,2.279,0,0,0-.737-1.876A1.685,1.685,0,0,0,456.5,107.719Zm1.589,2.256a1.72,1.72,0,0,1-1.959,1.519,1.746,1.746,0,0,1,.419-3.462A1.786,1.786,0,0,1,458.092,109.975Z" transform="translate(-452.867 -107.718)" fill="#ead8ac"/>
                <path id="Path_1316" data-name="Path 1316" d="M464.146,108.071a2.569,2.569,0,0,0-.778.1c-2.036.6-1.674,3.887.434,4.06a2.1,2.1,0,0,0,2.246-1.849,2.281,2.281,0,0,0-.737-1.876A1.691,1.691,0,0,0,464.146,108.071Zm1.589,2.256a1.72,1.72,0,0,1-1.958,1.519,1.746,1.746,0,0,1,.419-3.463A1.786,1.786,0,0,1,465.735,110.327Z" transform="translate(-456.497 -107.885)" fill="#ead8ac"/>
                <path id="Path_1317" data-name="Path 1317" d="M453.017,111.424a3.758,3.758,0,0,0-1.46.123.08.08,0,0,0-.007.147,3.38,3.38,0,0,0,1.453.073C453.187,111.743,453.22,111.441,453.017,111.424Z" transform="translate(-451.506 -109.469)" fill="#ead8ac"/>
              </g>
            </g>
            <path id="Path_1318" data-name="Path 1318" d="M444.171,127.643l1.648-.289s1.424,6.072,5.784,5.755c3.181-.231,2.314-5.466,2.314-5.466l1.432.427a10.657,10.657,0,0,1,2.155,5.56c.087,2.979-1.909,2.835-2.834,2.459a22.5,22.5,0,0,1-3.211-2.227s-1.475,2.748-3.7,2.921-3.384-1.156-3.529-4.28S444.171,127.643,444.171,127.643Z" transform="translate(-444.145 -116.015)" fill="#45333d"/>
          </g>
          <g id="Group_1269" data-name="Group 1269" transform="translate(3.708 24.642)">
            <path id="Path_1319" data-name="Path 1319" d="M406.339,188.068h27.67V169.4H406.471Z" transform="translate(-402.018 -148.579)" fill="#5c79b8"/>
            <g id="Group_1268" data-name="Group 1268">
              <g id="Group_1266" data-name="Group 1266" transform="translate(15.041 34.757)">
                <path id="Path_1320" data-name="Path 1320" d="M433.178,202.063c-.349-.116-1.131-.44-1.131-.44a1.188,1.188,0,0,1-1,.186,4.073,4.073,0,0,0-.791-.279c-.326-.069-.813.395-1.093.093s-.371-.395-.464-.419-.605.279-.931-.023a5.329,5.329,0,0,1-1-2.628c-.186-1.279,1.28-2.512,2.209-2.6,0,0,2.7-.093,3.256.325s.489,2.419.489,2.419.721.815.675,1a.309.309,0,0,1-.165.159.808.808,0,0,1-.859-.042c.026.032.053.064.079.094a9.7,9.7,0,0,1,1.377,1.81C433.876,201.994,433.528,202.179,433.178,202.063Z" transform="translate(-426.752 -195.94)" fill="#db897f"/>
                <path id="Path_1321" data-name="Path 1321" d="M437.167,201.8a.808.808,0,0,1-.859-.042l-1.269-1.711A9.872,9.872,0,0,1,437.167,201.8Z" transform="translate(-430.687 -197.892)" fill="#d05860"/>
              </g>
              <g id="Group_1267" data-name="Group 1267">
                <path id="Path_1322" data-name="Path 1322" d="M411.95,166.8c.1.04.369,1.909,1.107,1.779.366-.065.238-1.432.238-1.432s1.15,1.28,1.366.564a1.477,1.477,0,0,0-.369-1.323s1.171.716,1.583.087-.412-1.3-.412-1.3,1.779.022,1.844-.629-2-.8-2-.8l-7.6-13.645s10-8.575,11.147-11.147,1.1-9.1-2.287-9.194-16.477,12.079-18.239,18.463C396.494,154.867,406.657,164.675,411.95,166.8Z" transform="translate(-398.11 -129.756)" fill="#faf0d1"/>
                <path id="Path_1323" data-name="Path 1323" d="M409.977,165.128s-3.514-.824-2.82-1.649,4.208,1.909,4.208,1.909-2.863,2.039-3.34,1.388S409.977,165.128,409.977,165.128Z" transform="translate(-402.363 -145.696)" fill="#ead8ac"/>
              </g>
            </g>
          </g>
        </g>
        <g id="Group_1294" data-name="Group 1294" transform="translate(81.733)">
          <g id="Group_1271" data-name="Group 1271" transform="translate(3.19 74.03)">
            <path id="Path_1324" data-name="Path 1324" d="M236.381,204.943s-13.939,27.382-15.506,36.29,30.846,34.393,30.846,33.9,5.526-13.279,5.526-13.279l-18.8-20.042,13.031-30.352a12.934,12.934,0,0,0,1.072-6.433C247.02,204.779,236.381,204.943,236.381,204.943Z" transform="translate(-220.82 -204.89)" fill="#382a33"/>
          </g>
          <g id="Group_1272" data-name="Group 1272" transform="translate(17.157 72.787)">
            <path id="Path_1325" data-name="Path 1325" d="M282.61,297.948s-.806-.353-3.693-1.455l-1.189-.452c-2.239-.846-3.657-2.032-8.161-3.67.8-9.56,2.366-88.912,2.366-88.912s3.043-.358,7.23-.527c.338-.013.685-.025,1.037-.036,2.414-.074,5.129-.076,7.828.086C289.78,213.021,282.61,297.948,282.61,297.948Z" transform="translate(-257.935 -202.677)" fill="#45333d"/>
            <path id="Path_1326" data-name="Path 1326" d="M286.3,296.338l-1.189-.452c3-19.686,7.252-63.665,6.709-79.118-5.816-3.588-5.567-10.641-5.567-13.733a2.741,2.741,0,0,1,.293-.258c.631-.477.945-.164,1.037-.036a.488.488,0,0,1,.03.047s-.989,11.505,5.321,12.619C293.155,223.885,289.56,272.851,286.3,296.338Z" transform="translate(-265.314 -202.522)" fill="#382a33"/>
            <path id="Path_1327" data-name="Path 1327" d="M272.092,376c-.143,0-4.145-.051-8.994-.116-8.006-.107-16.547-.247-15.61-.247,1.178-2.277,5.289-4.821,8.426-6.51,2.137-1.15,3.822-1.9,3.822-1.9A85.284,85.284,0,0,1,272.092,376Z" transform="translate(-247.417 -280.733)" fill="#583323"/>
            <path id="Path_1328" data-name="Path 1328" d="M279.774,376c-.143,0-4.145-.051-8.994-.116l-7.185-6.758c2.137-1.15,3.822-1.9,3.822-1.9A85.282,85.282,0,0,1,279.774,376Z" transform="translate(-255.1 -280.733)" fill="#45281e"/>
          </g>
          <g id="Group_1275" data-name="Group 1275">
            <g id="Group_1273" data-name="Group 1273">
              <path id="Path_1329" data-name="Path 1329" d="M215.687,73.081a2.642,2.642,0,0,0,4.367-.294c.039-.078.505-1,.592-4.052s-1.234-4.876-1.618-4.815-.174,1.269-.026,1.845a5.863,5.863,0,0,1,.072,2.4,1.108,1.108,0,0,1-.11.269c-.018-.088-.037-.174-.056-.26a5.4,5.4,0,0,0-2.6-3.789.377.377,0,0,0-.194-.028c-.066.016-.132.095-.2.218a20.123,20.123,0,0,0-.848,3.016c-.059.234-.124.513-.18.828-.038.215-.074.446-.1.689A5.456,5.456,0,0,0,215.687,73.081Z" transform="translate(-214.747 -63.919)" fill="#d46e6a"/>
              <path id="Path_1330" data-name="Path 1330" d="M217.41,76.984c1.679-.729,1.206-4.351,1.206-4.351l1.308-.723-.806.049-.165.009-4.016.245c-.038.215-.074.446-.1.689A3.937,3.937,0,0,1,217.41,76.984Z" transform="translate(-214.79 -67.714)" fill="#d05860"/>
              <path id="Path_1331" data-name="Path 1331" d="M216.983,64.968c.1.207.259.391.381.595a11.761,11.761,0,0,1,.572,1.09,9.56,9.56,0,0,1,.781,2.488c.029.172.278.117.262-.05a8.962,8.962,0,0,0-.631-2.642,5.292,5.292,0,0,0-.973-1.67.377.377,0,0,0-.194-.028C217.115,64.765,217.049,64.844,216.983,64.968Z" transform="translate(-215.809 -64.311)" fill="#d05860"/>
              <path id="Path_1332" data-name="Path 1332" d="M221.6,76.4a1.455,1.455,0,0,1-1.4-1.3,2.008,2.008,0,0,1,.131-1.115,8.412,8.412,0,0,1,.572-.971.982.982,0,0,0,.047-1.022,4.9,4.9,0,0,1-.615-1.492c-.009-.515.3-1.84.9-1.623s.587,1.784.587,1.784a11.318,11.318,0,0,1,1.245,2.887,2.731,2.731,0,0,1-.883,2.717A1.175,1.175,0,0,1,221.6,76.4Z" transform="translate(-217.324 -66.263)" fill="#db897f"/>
            </g>
            <g id="Group_1274" data-name="Group 1274" transform="translate(0.33 8.922)">
              <path id="Path_1333" data-name="Path 1333" d="M219.112,103.615c2.151,3.072,11.026,11.511,16.48,12.1s6.741-3.9,5.892-6.094c-.8-2.076-10.363-7.964-14.707-11.3-1.825-3.873-5.869-15.465-5.869-15.465l.08-1.816-5.556-.127.2,2.308C214.78,88.014,216.06,99.256,219.112,103.615Z" transform="translate(-215.375 -80.909)" fill="#5c79b8"/>
              <path id="Path_1334" data-name="Path 1334" d="M232.515,115.323c-.472.333-1.041.735-1.428,1.011a.342.342,0,0,1-.54-.283c.009-.545.38-1.246,1.744-1.348A.342.342,0,0,1,232.515,115.323Z" transform="translate(-222.58 -96.956)" fill="#4c689a"/>
              <path id="Path_1335" data-name="Path 1335" d="M234.613,116.637a.342.342,0,0,1,.576.307,1.741,1.741,0,0,1-.695,1.248,1.337,1.337,0,0,1-.819.144.342.342,0,0,1-.2-.583Z" transform="translate(-223.922 -97.827)" fill="#4c689a"/>
              <path id="Path_1336" data-name="Path 1336" d="M215.483,80.909l.2,2.308,5.273-.364.08-1.816Z" transform="translate(-215.426 -80.909)" fill="#4c689a"/>
            </g>
          </g>
          <g id="Group_1278" data-name="Group 1278" transform="translate(38.775 0.232)">
            <g id="Group_1276" data-name="Group 1276" transform="translate(14.554)">
              <path id="Path_1337" data-name="Path 1337" d="M323.618,71.694a5.247,5.247,0,0,0,1.5-2.947c.45-1.865-2.036-4.009-2.315-4.075-.575-.137-.627.211-.627.211s-.5-.623-.743-.509-.2.444-.2.444-.611-.445-.784-.231a.669.669,0,0,0-.087.535s-.7-.539-.861-.013c-.108.354,1.081,2.379,1.081,2.379a9.955,9.955,0,0,0-1.5,2.834,2.127,2.127,0,0,0,1.7,2.372A3.017,3.017,0,0,0,323.618,71.694Z" transform="translate(-317.614 -64.36)" fill="#d46e6a"/>
              <path id="Path_1338" data-name="Path 1338" d="M318.313,74.479s-1.9-1.092-2.012-2.447c-.081-.987,1.76-2.451,1.76-2.451s-.05-1.581.541-1.558.862,1.044.814,1.745-1.228,1.794-1.228,1.794,1.448.1,1.9,1.119A1.366,1.366,0,0,1,318.313,74.479Z" transform="translate(-316.298 -66.1)" fill="#db897f"/>
              <path id="Path_1339" data-name="Path 1339" d="M324.834,65.356a1.472,1.472,0,0,0,.321.7c.328.494,1.283,1.642,1.447,1.931-.164.538-.991.884-1.561,1.822a2.91,2.91,0,0,0-.333,1.972,3.818,3.818,0,0,1,.8-1.978c.682-.723,1.543-1.447,1.587-1.776A28.192,28.192,0,0,1,324.834,65.356Z" transform="translate(-320.268 -64.833)" fill="#d05860"/>
              <path id="Path_1340" data-name="Path 1340" d="M322.71,70.987c-.043.074.962-.2,3.321-.576C325.686,70.107,323.085,70.341,322.71,70.987Z" transform="translate(-319.342 -67.171)" fill="#d05860"/>
              <path id="Path_1341" data-name="Path 1341" d="M323.464,69a20.332,20.332,0,0,1-1.122-1.887c-.02-.037-.087-.009-.071.03a17.633,17.633,0,0,0,.959,1.993C323.308,69.278,323.56,69.134,323.464,69Z" transform="translate(-319.133 -65.657)" fill="#d05860"/>
              <path id="Path_1342" data-name="Path 1342" d="M325.383,68.649c-.394-.683-.861-1.3-1.313-1.942-.045-.065-.149,0-.11.064.4.677.757,1.354,1.214,2C325.26,68.893,325.458,68.779,325.383,68.649Z" transform="translate(-319.932 -65.462)" fill="#d05860"/>
            </g>
            <g id="Group_1277" data-name="Group 1277" transform="translate(0 7.294)">
              <path id="Path_1343" data-name="Path 1343" d="M317.3,102.663c-2.556,5.773-19.712,14.185-23.259,12.949s-6.734-4.182-4.948-8.166c1.071-2.392,13.279-6.1,16.743-8.33-.363-7.872-1.26-14.945-1.711-18.148-.163-1.16-.268-1.812-.268-1.812l6.186-.907.494,2.227s1.486.413,1.733,1.237A72.793,72.793,0,0,1,317.3,102.663Z" transform="translate(-288.584 -78.249)" fill="#5c79b8"/>
              <path id="Path_1344" data-name="Path 1344" d="M324.35,80.476l-6.412.492c-.163-1.16-.268-1.812-.268-1.812l6.186-.907Z" transform="translate(-302.395 -78.249)" fill="#4c689a"/>
              <path id="Path_1345" data-name="Path 1345" d="M324.705,118.492c.547.185,1.207.41,1.656.566a.342.342,0,0,0,.437-.424c-.163-.52-.716-1.087-2.054-.8A.342.342,0,0,0,324.705,118.492Z" transform="translate(-305.626 -97.009)" fill="#4c689a"/>
              <path id="Path_1346" data-name="Path 1346" d="M323.319,120.334a.342.342,0,0,0-.465.457,1.736,1.736,0,0,0,1.02,1,1.337,1.337,0,0,0,.826-.093.342.342,0,0,0,.024-.615Z" transform="translate(-304.839 -98.213)" fill="#4c689a"/>
            </g>
          </g>
          <g id="Group_1293" data-name="Group 1293" transform="translate(16.077 18.478)">
            <g id="Group_1281" data-name="Group 1281" transform="translate(0 16.18)">
              <path id="Path_1347" data-name="Path 1347" d="M278.55,170.661c0,.086-8.27.082-16.178.06l-1.154-.005c-6.8-.021-13.019-.055-13.019-.055s-2.474-.165-2.8-1.484,1.814-3.3,1.814-3.3-.088-34.268,1.484-34.8a36.168,36.168,0,0,1,5.752-.7c3.27-.242,7.388-.425,11.044-.454,4.645-.035,8.544.18,9.01.846,1.154,1.649,3.39,34.784,3.39,34.784a3.857,3.857,0,0,1,2.309,2.309C280.859,169.672,278.55,170.5,278.55,170.661Z" transform="translate(-245.36 -129.915)" fill="#5c79b8"/>
              <path id="Path_1348" data-name="Path 1348" d="M282.766,154.319l6.158.165v4.289c0,.99-2.749,2.749-2.749,2.749s-2.53-.77-3.079-1.924S282.766,154.319,282.766,154.319Z" transform="translate(-263.102 -141.503)" fill="#4c689a"/>
              <g id="Group_1279" data-name="Group 1279" transform="translate(8.681 0.004)">
                <path id="Path_1349" data-name="Path 1349" d="M273.451,134.375a8.733,8.733,0,0,1-2.846,4.743,29.776,29.776,0,0,0-3.051-3.176,15.63,15.63,0,0,0-3.382,2.515,6.612,6.612,0,0,1-2.226-3.918,11.972,11.972,0,0,1,.349-4.164c3.27-.242,7.388-.425,11.044-.454A7.729,7.729,0,0,1,273.451,134.375Z" transform="translate(-261.89 -129.922)" fill="#4c689a"/>
              </g>
              <g id="Group_1280" data-name="Group 1280" transform="translate(12.235 3.654)">
                <path id="Path_1350" data-name="Path 1350" d="M275.88,170.188c-.109,3.08-2.144,7.973-2.144,7.973a10.451,10.451,0,0,1-4.674-6.324c-.861-3.448-.164-23.065.409-28.426.158-1.478.266-2.393.266-2.393l1.7.22s.2.936.5,2.425C273.018,148.893,275.966,167.792,275.88,170.188Z" transform="translate(-268.658 -138.842)" fill="#e1c737"/>
                <path id="Path_1351" data-name="Path 1351" d="M272.679,143.664a6.5,6.5,0,0,1-2.473-.253c.158-1.478.266-2.393.266-2.393l1.7.22S272.373,142.175,272.679,143.664Z" transform="translate(-269.393 -138.842)" fill="#cd9a36"/>
                <path id="Path_1352" data-name="Path 1352" d="M269.219,138.129a5.434,5.434,0,0,0,1.279,2.145c.742.536,2.02-.578,2.227-1.938-.337-.7-.869-1.444-1.717-1.462A2.318,2.318,0,0,0,269.219,138.129Z" transform="translate(-268.924 -136.873)" fill="#e1c737"/>
              </g>
            </g>
            <path id="Path_1353" data-name="Path 1353" d="M266.173,128.017a5.429,5.429,0,0,0-1.485,2.351,5.658,5.658,0,0,0,.866,4.99,9.781,9.781,0,0,1,3.176-2.268,7.362,7.362,0,0,1,3.175,2.639c.921-1.1,2.434-3.959,1.32-6.1S270.338,125.955,266.173,128.017Z" transform="translate(-254.427 -112.37)" fill="#5c79b8"/>
            <g id="Group_1292" data-name="Group 1292" transform="translate(4.329)">
              <g id="Group_1282" data-name="Group 1282">
                <path id="Path_1354" data-name="Path 1354" d="M267.591,107.257a4.424,4.424,0,0,1-1.678,2.931,4.49,4.49,0,0,1-2.038.89,10.069,10.069,0,0,1-6.5-1.231c-.024-.014-.047-.027-.071-.044a3.9,3.9,0,0,1-1.643-3.587s-1.113,1.236-1.609.989,1.526-2.886,1.526-2.886a3,3,0,0,1-1.9-.083c-.619-.411,2.722-1.937,2.722-1.937s-1.526-.495-1.692-.989,3.423-.372,3.423-.372-1.4-1.567-.288-1.814,9.278,2.144,9.732,5.65A9.675,9.675,0,0,1,267.591,107.257Z" transform="translate(-253.604 -99.105)" fill="#583323"/>
                <path id="Path_1355" data-name="Path 1355" d="M268.132,110.322a15.563,15.563,0,0,1-.689,1.416,4.49,4.49,0,0,1-2.038.89,10.069,10.069,0,0,1-6.5-1.231c-.024-.014-.047-.027-.071-.044a5.649,5.649,0,0,1-.432-.92,4.518,4.518,0,0,1-.056-3.574c-.034.021-.669.435-1.044.274s1.76-1.759,1.76-1.759-2.062.329-2.227-.028,3.272-.962,3.272-.962-1.484-.852-1.237-1.1,3.189.551,3.189.551-1.431-1.046-.8-1.429,5.664,2.419,6.488,3.82A7.128,7.128,0,0,1,268.132,110.322Z" transform="translate(-255.135 -100.654)" fill="#45281e"/>
              </g>
              <g id="Group_1283" data-name="Group 1283" transform="translate(6.812 10.932)">
                <path id="Path_1356" data-name="Path 1356" d="M272.815,126.108a2.919,2.919,0,0,1-3.051,3.106,4.1,4.1,0,0,1-3.189-1.924,3.239,3.239,0,0,0,.55-1.567c0-.035,0-.074-.007-.117-.067-.854-.516-3.319-.516-3.319l4.757-2.364s.192,1.589.526,3.206A10.921,10.921,0,0,0,272.815,126.108Z" transform="translate(-266.575 -119.922)" fill="#d46e6a"/>
                <path id="Path_1357" data-name="Path 1357" d="M271.909,123.128a5.159,5.159,0,0,1-2.093,2.073,4.267,4.267,0,0,1-2.674.4c-.067-.854-.516-3.319-.516-3.319l4.757-2.364S271.576,121.511,271.909,123.128Z" transform="translate(-266.6 -119.922)" fill="#d05860"/>
              </g>
              <g id="Group_1291" data-name="Group 1291" transform="translate(1.772 5.6)">
                <g id="Group_1284" data-name="Group 1284" transform="translate(0 3.21)">
                  <path id="Path_1358" data-name="Path 1358" d="M258.109,115.921c-1.21-.281-1.277.931-.988,1.615a2.1,2.1,0,0,0,1.754,1.613c.549.1.729-.208.729-.208S259.455,116.235,258.109,115.921Z" transform="translate(-256.978 -115.88)" fill="#db897f"/>
                  <path id="Path_1359" data-name="Path 1359" d="M257.848,118.033s-.37-1,.01-1.311,1.075.528,1.454,1.459c-.2-.174-.6-.016-.527.237a1.124,1.124,0,0,0,.7.712,1.138,1.138,0,0,1-1.153-.85c-.027-.374.622-.411.622-.411s-.518-.829-.781-.736S257.848,118.033,257.848,118.033Z" transform="translate(-257.315 -116.249)" fill="#d05860"/>
                </g>
                <g id="Group_1285" data-name="Group 1285" transform="translate(1.578)">
                  <path id="Path_1360" data-name="Path 1360" d="M269.071,113.044a12.579,12.579,0,0,1-.569,3.595c-.849,2.913-5.248,3.987-6.6,2.585-1.074-1.119-1.554-5-1.79-6.7a6.63,6.63,0,0,0-.132-.8,4.976,4.976,0,0,0,2.144-1.952c2.31,1.977,6.871,2.31,6.871,2.31A4.982,4.982,0,0,1,269.071,113.044Z" transform="translate(-259.983 -109.768)" fill="#db897f"/>
                  <path id="Path_1361" data-name="Path 1361" d="M269.071,113.044c-2.163.412-5.041-.927-6.861-1.967a6.153,6.153,0,0,1-2.094,1.442,6.63,6.63,0,0,0-.132-.8,4.976,4.976,0,0,0,2.144-1.952c2.31,1.977,6.871,2.31,6.871,2.31A4.982,4.982,0,0,1,269.071,113.044Z" transform="translate(-259.983 -109.768)" fill="#d46e6a"/>
                </g>
                <g id="Group_1286" data-name="Group 1286" transform="translate(4.627 2.83)">
                  <path id="Path_1362" data-name="Path 1362" d="M265.79,115.157a4.145,4.145,0,0,1,.863,1.351c.288.784-.753,1.5-.753,1.5a2.787,2.787,0,0,0,.357-1.481A7.916,7.916,0,0,0,265.79,115.157Z" transform="translate(-265.79 -115.157)" fill="#d05860"/>
                  <path id="Path_1363" data-name="Path 1363" d="M267.992,119.61c-.175-.2-.9.268-.856.361S268.336,119.995,267.992,119.61Z" transform="translate(-266.429 -117.249)" fill="#d05860"/>
                </g>
                <g id="Group_1287" data-name="Group 1287" transform="translate(4.284 5.954)">
                  <path id="Path_1364" data-name="Path 1364" d="M265.528,122.162a2.12,2.12,0,0,0,1.753.948c1.031-.124,1.113-1.67,1.113-1.67Z" transform="translate(-265.322 -121.265)" fill="#45333d"/>
                  <path id="Path_1365" data-name="Path 1365" d="M265.136,121.972s.423.216,1.742-.1,1.536-.763,1.536-.763Z" transform="translate(-265.136 -121.106)" fill="#d05860"/>
                </g>
                <g id="Group_1288" data-name="Group 1288" transform="translate(5.746 1.965)">
                  <path id="Path_1366" data-name="Path 1366" d="M270.176,116.937a.58.58,0,0,0-.935-.046.583.583,0,0,0-.129.41.565.565,0,0,0,.2.419.6.6,0,0,0,.571.1.6.6,0,0,0,.348-.306A.588.588,0,0,0,270.176,116.937Z" transform="translate(-268.486 -115.013)" fill="#45333d"/>
                  <path id="Path_1367" data-name="Path 1367" d="M267.921,114.2a4.177,4.177,0,0,1,1.209-.1,4.41,4.41,0,0,1,1.3.315,1.781,1.781,0,0,0-1.122-.867C268.458,113.311,267.921,114.2,267.921,114.2Z" transform="translate(-267.921 -113.51)" fill="#45281e"/>
                </g>
                <g id="Group_1289" data-name="Group 1289" transform="translate(2.33 2.264)">
                  <path id="Path_1368" data-name="Path 1368" d="M264.025,116.937a.581.581,0,0,0-1.063.364.565.565,0,0,0,.2.419.6.6,0,0,0,.918-.207A.587.587,0,0,0,264.025,116.937Z" transform="translate(-262.149 -115.313)" fill="#45333d"/>
                  <path id="Path_1369" data-name="Path 1369" d="M263.507,114.614a2.117,2.117,0,0,0-1.116.023,2.773,2.773,0,0,0-.975.484,1.129,1.129,0,0,1,.73-.949C262.892,113.815,263.507,114.614,263.507,114.614Z" transform="translate(-261.416 -114.08)" fill="#45281e"/>
                </g>
                <path id="Path_1370" data-name="Path 1370" d="M267.435,126.124a3.884,3.884,0,0,0,1.794-.356A1.093,1.093,0,0,0,267.435,126.124Z" transform="translate(-261.944 -117.209)" fill="#d46e6a"/>
                <g id="Group_1290" data-name="Group 1290" transform="translate(10.167 3.198)">
                  <path id="Path_1371" data-name="Path 1371" d="M277.287,115.981c1.135-.5,1.429.673,1.275,1.4a2.094,2.094,0,0,1-1.419,1.915c-.52.2-.755-.067-.755-.067S276.024,116.542,277.287,115.981Z" transform="translate(-276.339 -115.859)" fill="#db897f"/>
                  <path id="Path_1372" data-name="Path 1372" d="M278.612,117.941s.174-1.055-.257-1.286-.956.722-1.153,1.707c.164-.208.584-.129.562.134a1.126,1.126,0,0,1-.557.831,1.138,1.138,0,0,0,.972-1.052c-.044-.373-.689-.286-.689-.286s.353-.912.629-.87S278.612,117.941,278.612,117.941Z" transform="translate(-276.749 -116.22)" fill="#d05860"/>
                </g>
              </g>
            </g>
          </g>
        </g>
        <g id="Group_1319" data-name="Group 1319" transform="translate(4.485 1.699)">
          <g id="Group_1297" data-name="Group 1297" transform="translate(42.912)">
            <g id="Group_1295" data-name="Group 1295" transform="translate(20.192)">
              <path id="Path_1373" data-name="Path 1373" d="M192.855,76.258a2.642,2.642,0,0,1-4.371-.22c-.041-.077-.522-.99-.66-4.042s1.152-4.9,1.538-4.841.195,1.267.057,1.844a5.861,5.861,0,0,0-.032,2.4,1.09,1.09,0,0,0,.114.267c.016-.088.034-.175.051-.261a5.4,5.4,0,0,1,2.532-3.831.374.374,0,0,1,.194-.032c.066.015.133.092.2.215a20.192,20.192,0,0,1,.9,3c.063.232.133.51.194.824.042.215.081.445.109.687A5.459,5.459,0,0,1,192.855,76.258Z" transform="translate(-187.813 -67.154)" fill="#d46e6a"/>
              <path id="Path_1374" data-name="Path 1374" d="M191.871,80.2c-1.692-.7-1.279-4.33-1.279-4.33l-1.32-.7.807.036.165.006,4.019.178c.042.215.081.445.109.687A3.936,3.936,0,0,0,191.871,80.2Z" transform="translate(-188.506 -70.96)" fill="#d05860"/>
              <path id="Path_1375" data-name="Path 1375" d="M194.954,68.106c-.1.208-.252.395-.37.6a11.569,11.569,0,0,0-.554,1.1,9.566,9.566,0,0,0-.74,2.5c-.026.173-.276.122-.262-.046a8.962,8.962,0,0,1,.587-2.653,5.273,5.273,0,0,1,.945-1.686.374.374,0,0,1,.194-.032C194.818,67.906,194.886,67.983,194.954,68.106Z" transform="translate(-190.289 -67.502)" fill="#d05860"/>
              <path id="Path_1376" data-name="Path 1376" d="M189.983,79.142a1.453,1.453,0,0,0,1.38-1.323,2.013,2.013,0,0,0-.149-1.113,8.529,8.529,0,0,0-.588-.962.981.981,0,0,1-.064-1.021,4.914,4.914,0,0,0,.59-1.5c0-.515-.33-1.835-.928-1.608s-.557,1.793-.557,1.793a11.322,11.322,0,0,0-1.2,2.908,2.731,2.731,0,0,0,.928,2.7A1.172,1.172,0,0,0,189.983,79.142Z" transform="translate(-188.097 -69.259)" fill="#db897f"/>
            </g>
            <g id="Group_1296" data-name="Group 1296" transform="translate(0 8.856)">
              <path id="Path_1377" data-name="Path 1377" d="M171.847,106.782c-2.1,3.107-10.832,11.694-16.275,12.371s-6.8-3.789-5.993-5.995c.769-2.089,10.228-8.137,14.516-11.546,1.76-3.9,5.609-15.561,5.609-15.561l-.111-1.815,5.553-.22-.164,2.31C175.917,91.11,174.825,102.371,171.847,106.782Z" transform="translate(-149.363 -84.017)" fill="#faf0d1"/>
              <path id="Path_1378" data-name="Path 1378" d="M180.1,118.738c.477.325,1.053.718,1.445.987a.342.342,0,0,0,.535-.292c-.018-.545-.4-1.239-1.766-1.319A.342.342,0,0,0,180.1,118.738Z" transform="translate(-163.888 -100.208)" fill="#ead8ac"/>
              <path id="Path_1379" data-name="Path 1379" d="M178.291,120.082a.342.342,0,0,0-.57.317,1.738,1.738,0,0,0,.715,1.236,1.338,1.338,0,0,0,.821.131.341.341,0,0,0,.187-.586Z" transform="translate(-162.826 -101.097)" fill="#ead8ac"/>
              <path id="Path_1380" data-name="Path 1380" d="M193.438,84.017l-.164,2.31L188,86.051l-.111-1.815Z" transform="translate(-167.655 -84.017)" fill="#ead8ac"/>
            </g>
          </g>
          <g id="Group_1301" data-name="Group 1301" transform="translate(18.143 69.606)">
            <g id="Group_1298" data-name="Group 1298">
              <path id="Path_1381" data-name="Path 1381" d="M138.811,287.463l-7.544,5.312-1.373.684-3.31,1.646L121.223,214l-.068-.858h-.016l-1.129.044-.241.009-4.862,77.364-8.556,3.471-1.119.454-3.034,1.23,2.815-91.613.124-4.037,9.914-.127,1.566-.02,12.362-.158,4.909-.063.252,4.712.4,7.425Z" transform="translate(-102.198 -199.7)" fill="#834447"/>
              <path id="Path_1382" data-name="Path 1382" d="M158.755,211.837c-5.07-5.34-5.549-10.429-5.559-12.074l4.91-.063.252,4.712Z" transform="translate(-126.414 -199.7)" fill="#6b2f32"/>
              <path id="Path_1383" data-name="Path 1383" d="M137.371,204.937l-.127,10.695-1.129.044.43-10.409Z" transform="translate(-118.304 -202.187)" fill="#6b2f32"/>
              <path id="Path_1384" data-name="Path 1384" d="M119.321,200.239l-7.6,9-2.667,85.109-1.119.454,2.548-85.563,7.272-8.983Z" transform="translate(-104.922 -199.956)" fill="#6b2f32"/>
              <path id="Path_1385" data-name="Path 1385" d="M148.369,305.037l-1.373.684-6.279-79.461-2.392,0-.068-.858,3.7-.014Z" transform="translate(-119.32 -211.9)" fill="#6b2f32"/>
            </g>
            <g id="Group_1299" data-name="Group 1299" transform="translate(24.386 87.762)">
              <path id="Path_1386" data-name="Path 1386" d="M172.08,375.232c-1.422,0-12.035-.367-18.484-.595-2.9-.1-4.961-.176-4.961-.176,2.81-2.8,5.958-7.146,12.228-7.641,1.329.827,2.529,1.57,3.611,2.254C168.36,371.534,170.725,373.232,172.08,375.232Z" transform="translate(-148.635 -366.819)" fill="#45333d"/>
              <path id="Path_1387" data-name="Path 1387" d="M164.473,369.073,153.6,374.637c-2.9-.1-4.961-.176-4.961-.176,2.81-2.8,5.958-7.146,12.228-7.641C162.191,367.646,163.392,368.389,164.473,369.073Z" transform="translate(-148.635 -366.819)" fill="#382a33"/>
            </g>
            <g id="Group_1300" data-name="Group 1300" transform="translate(0 88.588)">
              <path id="Path_1388" data-name="Path 1388" d="M124.626,376.557c-1.4,0-11.206-.338-17.38-.557l-5.047-.179c2.81-2.8,6.592-6.935,12.86-7.43,1.114.8,2.084,1.5,2.94,2.127C121.7,373.218,123.218,374.479,124.626,376.557Z" transform="translate(-102.198 -368.391)" fill="#45333d"/>
              <path id="Path_1389" data-name="Path 1389" d="M118,370.518,107.245,376l-5.047-.179c2.81-2.8,6.592-6.935,12.86-7.43C116.172,369.2,117.142,369.895,118,370.518Z" transform="translate(-102.198 -368.391)" fill="#382a33"/>
            </g>
          </g>
          <g id="Group_1302" data-name="Group 1302" transform="translate(18.917 34.821)">
            <path id="Path_1390" data-name="Path 1390" d="M136.646,204.53l-29.128-.307.124-4.037,28.752-.368Z" transform="translate(-105.498 -164.971)" fill="#382a33"/>
            <path id="Path_1391" data-name="Path 1391" d="M134.37,170.508H105.833s-1.924-.825-2.144-2.034,1.649-1.815,1.649-1.815-.165-11.877-.22-17.21.109-13.966,2.364-15.5c1.166-.8,4.815-.475,8.068.019,3.039.464,5.733,1.079,5.733,1.079s2.885-.088,5.553-.222c.978-.048,1.928-.1,2.695-.163,2.86-.22,4.784.22,5.553,3.134s-.549,29.087-.549,29.087,1.869.989,2.089,1.54S136.075,170.508,134.37,170.508Z" transform="translate(-103.671 -133.461)" fill="#faf0d1"/>
            <path id="Path_1392" data-name="Path 1392" d="M136.436,174.452h-.986c.08-4.2.586-31.086.484-32.605.66-.22.77.082.77.082S136.959,168.732,136.436,174.452Z" transform="translate(-118.761 -137.405)" fill="#cbb789"/>
            <path id="Path_1393" data-name="Path 1393" d="M137.312,138.316a20.2,20.2,0,0,1-2.681,6.268l-2.969-4a32.835,32.835,0,0,0-3.011,3.711,10.791,10.791,0,0,1-3.01-6.721,8.175,8.175,0,0,1,.329-3.156c3.039.464,5.733,1.079,5.733,1.079s2.885-.088,5.553-.222A7.443,7.443,0,0,1,137.312,138.316Z" transform="translate(-114.091 -133.916)" fill="#ead8ac"/>
            <path id="Path_1394" data-name="Path 1394" d="M145.965,160.451l6.158.165V164.9c0,.989-2.749,2.749-2.749,2.749s-2.529-.77-3.079-1.925S145.965,160.451,145.965,160.451Z" transform="translate(-123.734 -146.277)" fill="#ead8ac"/>
            <path id="Path_1395" data-name="Path 1395" d="M130.356,203.751l.066,2.043a.9.9,0,0,0,.892.875l4.468.059a.9.9,0,0,0,.916-.923l-.045-2.132a.9.9,0,0,0-.91-.886l-4.49.029A.9.9,0,0,0,130.356,203.751Z" transform="translate(-116.342 -166.381)" fill="#eab730"/>
          </g>
          <g id="Group_1315" data-name="Group 1315" transform="translate(17.064 20.453)">
            <g id="Group_1303" data-name="Group 1303" transform="translate(14.383)">
              <path id="Path_1396" data-name="Path 1396" d="M139.144,109.007a3.43,3.43,0,0,1,1.182,1.718,8.042,8.042,0,0,1-.522,2.9l-.639.367L132.01,118.1l-1.252.72s-1.223-2.392-2.254-4.247c-1.046-1.882-1.332-2.791-.44-4.632s3.368-2.708,4.55-3.23,4.784-.921,5.114-.276a10.794,10.794,0,0,1,.6,1.637s2.076.7,2.09,1.126S139.144,109.007,139.144,109.007Z" transform="translate(-127.531 -106.101)" fill="#45333d"/>
              <path id="Path_1397" data-name="Path 1397" d="M140.293,114.683c-.044.116-.086.228-.129.339l-7.155,4.109a10.709,10.709,0,0,1-2.613-3.85,4.643,4.643,0,0,1,.475-3.691,4.1,4.1,0,0,1-1.155.516c-.268-.02.062-1.174,2.1-2.391a12.46,12.46,0,0,1,6.309-1.382c.537.227.145,1.567.145,1.567s2.123,1.32,2.37,2.041A7.056,7.056,0,0,1,140.293,114.683Z" transform="translate(-128.531 -107.131)" fill="#382a33"/>
            </g>
            <g id="Group_1304" data-name="Group 1304" transform="translate(0 18.064)">
              <path id="Path_1398" data-name="Path 1398" d="M119.43,156.866a11.02,11.02,0,0,1-1.116,2.049c-2.98,4.371-9.048,7.343-13.5,7.916-3.739-1.7-4.675-2.749-4.675-2.749l3.355-4.342s8.152-1.266,11.437-4.455c2.9-2.816,3.4-6.776,3.638-9,.065-.608.09-1.1.1-1.447,1.54-.111,1.966.5,1.966.5s.067.322.144.883A24.564,24.564,0,0,1,119.43,156.866Z" transform="translate(-100.143 -142.553)" fill="#cb3636"/>
              <path id="Path_1399" data-name="Path 1399" d="M137.448,146.223a7.3,7.3,0,0,1-2.211.063c.065-.608.09-1.1.1-1.447,1.54-.111,1.966.5,1.966.5S137.371,145.662,137.448,146.223Z" transform="translate(-116.807 -142.553)" fill="#9a2531"/>
              <path id="Path_1400" data-name="Path 1400" d="M133.911,141.9c-.012.064.557,1.381,1.279,1.608a1.46,1.46,0,0,0,1.485-.227c.288-.288.927-.948.866-1.505s-1.361-1.34-1.9-1.278A2.015,2.015,0,0,0,133.911,141.9Z" transform="translate(-116.178 -140.498)" fill="#cb3636"/>
              <path id="Path_1401" data-name="Path 1401" d="M118.314,171.656c-2.98,4.371-9.048,7.343-13.5,7.916-3.739-1.7-4.675-2.749-4.675-2.749l3.355-4.342-2.227,4.068a24.46,24.46,0,0,0,3.822,2.145A22.328,22.328,0,0,0,118.314,171.656Z" transform="translate(-100.143 -155.294)" fill="#9a2531"/>
            </g>
            <g id="Group_1305" data-name="Group 1305" transform="translate(14.642 12.51)">
              <path id="Path_1402" data-name="Path 1402" d="M135.042,130.742c-2.251-1.488-5.567-.936-6.62,1.549-.009.02-1,1.336.192,4.062a9.906,9.906,0,0,0,1.471,2.282s2.323-2.33,3.093-2.33,2.24,2.207,2.186,2.124,2.165-2.536,1.69-4.791A4.835,4.835,0,0,0,135.042,130.742Z" transform="translate(-128.025 -129.922)" fill="#faf0d1"/>
              <path id="Path_1403" data-name="Path 1403" d="M133.957,136.348a4.359,4.359,0,0,1-4.042-3.024c-.165-.825.77-2.969,3.6-2.639s3.766,2.09,3.876,2.777A3.459,3.459,0,0,1,133.957,136.348Z" transform="translate(-128.914 -130.268)" fill="#ead8ac"/>
            </g>
            <g id="Group_1314" data-name="Group 1314" transform="translate(15.057 3.677)">
              <g id="Group_1306" data-name="Group 1306" transform="translate(9.497 3.343)">
                <path id="Path_1404" data-name="Path 1404" d="M148.691,119.5c1.33-.237,1.334,1.082.982,1.809a2.277,2.277,0,0,1-1.995,1.653c-.6.077-.779-.267-.779-.267S147.213,119.761,148.691,119.5Z" transform="translate(-146.899 -119.468)" fill="#db897f"/>
                <path id="Path_1405" data-name="Path 1405" d="M149.695,121.827s.458-1.068.063-1.424-1.2.514-1.66,1.5c.227-.177.65.016.558.287a1.223,1.223,0,0,1-.8.733,1.237,1.237,0,0,0,1.3-.858c.05-.4-.653-.481-.653-.481s.609-.871.89-.756S149.695,121.827,149.695,121.827Z" transform="translate(-147.352 -119.874)" fill="#d05860"/>
              </g>
              <g id="Group_1307" data-name="Group 1307" transform="translate(1.353 5.648)">
                <path id="Path_1406" data-name="Path 1406" d="M137.193,129.492a8.62,8.62,0,0,0-.073,1.349,1.163,1.163,0,0,1-.327.859c-1.075,1.11-2.152,1.443-2.965,1.148a4.244,4.244,0,0,1-2.225-1.72,1.209,1.209,0,0,1-.067-1.259,7.975,7.975,0,0,0,.817-2.508,15.094,15.094,0,0,0,.114-3.5,26.024,26.024,0,0,1,5.154,3.3A22.431,22.431,0,0,0,137.193,129.492Z" transform="translate(-131.392 -123.858)" fill="#db897f"/>
                <path id="Path_1407" data-name="Path 1407" d="M138.492,127.156a22.427,22.427,0,0,0-.429,2.335,5.64,5.64,0,0,1-2.47-.243,5.079,5.079,0,0,1-2.37-1.888,15.094,15.094,0,0,0,.114-3.5A26.024,26.024,0,0,1,138.492,127.156Z" transform="translate(-132.261 -123.858)" fill="#d05860"/>
              </g>
              <g id="Group_1308" data-name="Group 1308" transform="translate(2.017)">
                <path id="Path_1408" data-name="Path 1408" d="M141.2,116.409c0,1.589-.132,5.336-1.329,6.175-1.525,1.074-4.948.166-5.978-1.32-.77-1.108-1.079-3.7-1.187-4.929-.034-.417-.049-.677-.049-.677.5-.7,2.884-.618,4.08-.618a2.811,2.811,0,0,0,2.638-1.937c.128,1.236,1.814,2.595,1.814,2.595S141.2,115.972,141.2,116.409Z" transform="translate(-132.657 -113.103)" fill="#db897f"/>
                <path id="Path_1409" data-name="Path 1409" d="M141.2,116.409c-1.275-.049-1.927-1.677-1.927-1.677a2.972,2.972,0,0,1-2.928,1.383,11.6,11.6,0,0,0-3.639.221c-.034-.417-.049-.677-.049-.677.5-.7,2.884-.618,4.08-.618a2.811,2.811,0,0,0,2.638-1.937c.128,1.236,1.814,2.595,1.814,2.595S141.2,115.972,141.2,116.409Z" transform="translate(-132.657 -113.103)" fill="#d46e6a"/>
              </g>
              <g id="Group_1309" data-name="Group 1309" transform="translate(0 3.473)">
                <path id="Path_1410" data-name="Path 1410" d="M129.971,119.738c-1.335-.2-1.307,1.115-.936,1.833a2.276,2.276,0,0,0,2.035,1.6c.6.062.772-.287.772-.287S131.455,119.965,129.971,119.738Z" transform="translate(-128.815 -119.717)" fill="#db897f"/>
                <path id="Path_1411" data-name="Path 1411" d="M129.835,122.084s-.485-1.056-.1-1.422,1.209.483,1.7,1.459c-.232-.171-.65.033-.551.3a1.222,1.222,0,0,0,.821.712,1.237,1.237,0,0,1-1.32-.824c-.06-.4.641-.5.641-.5s-.631-.855-.909-.733S129.835,122.084,129.835,122.084Z" transform="translate(-129.182 -120.125)" fill="#d05860"/>
              </g>
              <g id="Group_1313" data-name="Group 1313" transform="translate(3.886 2.066)">
                <g id="Group_1310" data-name="Group 1310" transform="translate(4.11)">
                  <path id="Path_1412" data-name="Path 1412" d="M144.041,121.17a2.237,2.237,0,0,1,1.155-.426,3.155,3.155,0,0,1,1.086.165,1.2,1.2,0,0,0-1.141-.8C144.3,120.167,144.041,121.17,144.041,121.17Z" transform="translate(-144.041 -118.496)" fill="#45333d"/>
                  <path id="Path_1413" data-name="Path 1413" d="M146.417,117.883a2.292,2.292,0,0,0-1.216-.192,2.985,2.985,0,0,0-1.107.33s.4-.883,1.107-.976A1.125,1.125,0,0,1,146.417,117.883Z" transform="translate(-144.066 -117.038)" fill="#45333d"/>
                </g>
                <g id="Group_1311" data-name="Group 1311">
                  <path id="Path_1414" data-name="Path 1414" d="M138.586,121.17a2.237,2.237,0,0,0-1.155-.426,3.153,3.153,0,0,0-1.085.165,1.2,1.2,0,0,1,1.141-.8C138.325,120.167,138.586,121.17,138.586,121.17Z" transform="translate(-136.277 -118.496)" fill="#45333d"/>
                  <path id="Path_1415" data-name="Path 1415" d="M136.215,117.883a2.938,2.938,0,0,1,1.388-.192,3.756,3.756,0,0,1,1.265.33,1.9,1.9,0,0,0-1.265-.976A1.255,1.255,0,0,0,136.215,117.883Z" transform="translate(-136.215 -117.038)" fill="#45333d"/>
                </g>
                <g id="Group_1312" data-name="Group 1312" transform="translate(2.842 0.901)">
                  <path id="Path_1416" data-name="Path 1416" d="M142.872,118.753a3.616,3.616,0,0,0-.495,1.814c.124.722.99,1.113.99,1.113a2.173,2.173,0,0,1-.578-1.258A7.327,7.327,0,0,1,142.872,118.753Z" transform="translate(-141.976 -118.753)" fill="#d05860"/>
                  <path id="Path_1417" data-name="Path 1417" d="M142.387,124.085c.044-.26-.894-.055-.743.11S142.345,124.333,142.387,124.085Z" transform="translate(-141.628 -121.226)" fill="#d05860"/>
                </g>
                <path id="Path_1418" data-name="Path 1418" d="M139.251,125.4s.275,1.278,1.388,1.333a1.633,1.633,0,0,0,1.608-1.168A2.571,2.571,0,0,1,139.251,125.4Z" transform="translate(-137.657 -121.01)" fill="#d05860"/>
              </g>
            </g>
          </g>
          <g id="Group_1318" data-name="Group 1318" transform="translate(0 35.299)">
            <g id="Group_1316" data-name="Group 1316" transform="translate(13.542 37.419)">
              <path id="Path_1419" data-name="Path 1419" d="M98.295,206.907s2.957-.244,3.749.427a4.424,4.424,0,0,1,.847,1.073,5.171,5.171,0,0,0,1.51,1.6,1.2,1.2,0,0,1,.417.433c.244.518-.792.488-1.981-.091A41.021,41.021,0,0,1,98.295,206.907Z" transform="translate(-95.743 -206.213)" fill="#d05860"/>
              <path id="Path_1420" data-name="Path 1420" d="M101.953,212.433c-.343.29-.869-.753-1.5-1.688-.62-.829-.749-1.172-1.373-1.4a1.47,1.47,0,0,0-.254-.07c1.054,1.543,2.335,3.878,2.072,4.1a.781.781,0,0,1-.516.109,2.961,2.961,0,0,1-.5-.07h0s-.9.376-1.241.19h0a2.892,2.892,0,0,1-.647.1,2.048,2.048,0,0,1-.708-.1l0,0a4.774,4.774,0,0,1-.617-.163c-.933-.344-2.6-1.516-3.223-6.162a4.393,4.393,0,0,1,1.808-1.657,5.774,5.774,0,0,0,1.9,1.06C100.926,207.782,102.442,212.018,101.953,212.433Z" transform="translate(-93.436 -205.625)" fill="#db897f"/>
              <path id="Path_1421" data-name="Path 1421" d="M103.834,217.254a2.961,2.961,0,0,1-.5-.07h0a14.73,14.73,0,0,1-2.617-3.633A46.612,46.612,0,0,1,103.834,217.254Z" transform="translate(-96.892 -209.388)" fill="#d05860"/>
              <path id="Path_1422" data-name="Path 1422" d="M101.408,218.512a2.892,2.892,0,0,1-.647.1,10.425,10.425,0,0,1-1.481-2.659A31.454,31.454,0,0,0,101.408,218.512Z" transform="translate(-96.211 -210.528)" fill="#d05860"/>
              <path id="Path_1423" data-name="Path 1423" d="M99.558,219.225a4.773,4.773,0,0,1-.617-.163,4.247,4.247,0,0,1-.7-1.6A7.351,7.351,0,0,0,99.558,219.225Z" transform="translate(-95.718 -211.243)" fill="#d05860"/>
            </g>
            <g id="Group_1317" data-name="Group 1317">
              <path id="Path_1424" data-name="Path 1424" d="M91.724,145.015C88,148.125,78.033,155.572,78.033,155.572s5.031,11.354,5.636,13.113a6.807,6.807,0,0,1,.3,1.118c.005.028.01.056.016.085a4.155,4.155,0,0,0,.8,1.75.311.311,0,0,1,.044.072c.055.165-4.289,3.74-4.289,3.74s-.374-.354-.993-.981c-3.066-3.1-12.16-12.836-11.887-19.147,2.09-8.3,19.454-20.838,22.723-20.945C97.085,134.156,96.728,140.837,91.724,145.015Z" transform="translate(-67.649 -134.371)" fill="#faf0d1"/>
              <path id="Path_1425" data-name="Path 1425" d="M95.578,203.825c.055.165-4.289,3.74-4.289,3.74s-.374-.354-.993-.981L94.737,202a4.155,4.155,0,0,0,.8,1.75A.311.311,0,0,1,95.578,203.825Z" transform="translate(-78.403 -166.486)" fill="#ead8ac"/>
            </g>
          </g>
        </g>
      </g>
    </g>
  </g>
</svg>
