<svg id="icones" xmlns="http://www.w3.org/2000/svg" viewBox="0 0 32 32"><path id="Icon_awesome-eye-slash-2" data-name="Icon awesome-eye-slash-2" d="M16,22.75a6.73,6.73,0,0,1-6.7-6.24l-4.92-3.8a15.7,15.7,0,0,0-1.72,2.61,1.48,1.48,0,0,0,0,1.36A15,15,0,0,0,16,25a14.52,14.52,0,0,0,3.65-.49l-2.43-1.88a6.23,6.23,0,0,1-1.22.12Zm14.71,2.72-5.18-4a15.68,15.68,0,0,0,3.81-4.79,1.5,1.5,0,0,0,0-1.37A15,15,0,0,0,16,7,14.41,14.41,0,0,0,9.09,8.77l-6-4.61a.74.74,0,0,0-1,.13h0L1.16,5.47a.75.75,0,0,0,.13,1.06h0L28.87,27.84a.74.74,0,0,0,1.05-.13h0l.92-1.18a.75.75,0,0,0-.13-1.06ZM22.1,18.82l-1.84-1.43a4.44,4.44,0,0,0-5.45-5.71A2.16,2.16,0,0,1,15.25,13a2.54,2.54,0,0,1-.07.47L11.73,10.8A6.67,6.67,0,0,1,16,9.25,6.75,6.75,0,0,1,22.75,16h0A6.55,6.55,0,0,1,22.1,18.82Z" fill="#edf0f8"/></svg>