<svg xmlns="http://www.w3.org/2000/svg" width="35.018" height="32" viewBox="0 0 35.018 32">
  <g id="faq" transform="translate(0 -1.509)">
    <g id="Group_2524" data-name="Group 2524">
      <g id="Group_2523" data-name="Group 2523">
        <path id="Path_1756" data-name="Path 1756" d="M29.946,1.509H23.137a.685.685,0,0,0,0,1.371h6.809a3.706,3.706,0,0,1,3.7,3.7V18.1a3.706,3.706,0,0,1-3.7,3.7H25.926a.686.686,0,0,0-.483.2L22.68,24.744v-2.26a.686.686,0,0,0-.685-.685H11.3a3.706,3.706,0,0,1-3.7-3.7V6.582a3.706,3.706,0,0,1,3.7-3.7h6.535a.685.685,0,1,0,0-1.371H11.3A5.078,5.078,0,0,0,6.229,6.582v.675H5.072A5.078,5.078,0,0,0,0,12.329v12.2A5.078,5.078,0,0,0,5.072,29.6H8.809l3.732,3.708a.686.686,0,0,0,1.169-.486V29.6H23.717A5.078,5.078,0,0,0,28.79,24.53V23.17h1.156A5.078,5.078,0,0,0,35.018,18.1V6.582A5.078,5.078,0,0,0,29.946,1.509ZM27.419,24.53a3.706,3.706,0,0,1-3.7,3.7H13.024a.686.686,0,0,0-.685.685v2.26L9.575,28.43a.686.686,0,0,0-.483-.2H5.072a3.712,3.712,0,0,1-.411-.023V24.128a.685.685,0,1,0-1.371,0v3.644A3.7,3.7,0,0,1,1.371,24.53v-12.2a3.706,3.706,0,0,1,3.7-3.7H6.229V18.1A5.078,5.078,0,0,0,11.3,23.17H21.309v3.222a.686.686,0,0,0,1.169.486l3.732-3.708h1.209v1.36Z" fill="#fff"/>
      </g>
    </g>
    <g id="Group_2526" data-name="Group 2526">
      <g id="Group_2525" data-name="Group 2525">
        <path id="Path_1757" data-name="Path 1757" d="M21.108,1.71a.685.685,0,1,0,.2.485A.689.689,0,0,0,21.108,1.71Z" fill="#fff"/>
      </g>
    </g>
    <g id="Group_2528" data-name="Group 2528">
      <g id="Group_2527" data-name="Group 2527">
        <path id="Path_1758" data-name="Path 1758" d="M22.987,15.915,20.113,8.238a.685.685,0,0,0-1.284,0l-2.874,7.677a.685.685,0,1,0,1.284.481l1.014-2.708h2.437L21.7,16.4a.685.685,0,1,0,1.284-.481Zm-4.221-3.6.705-1.884.705,1.884H18.765Z" fill="#fff"/>
      </g>
    </g>
    <g id="Group_2530" data-name="Group 2530">
      <g id="Group_2529" data-name="Group 2529">
        <path id="Path_1759" data-name="Path 1759" d="M29.934,15.671l-.321-.322a2.743,2.743,0,0,0,.31-1.269V10.553h0a2.76,2.76,0,1,0-5.521,0v3.527a2.759,2.759,0,0,0,4.3,2.293l.266.267a.685.685,0,1,0,.97-.969Zm-1.382-1.591a1.39,1.39,0,0,1-.015.191l-.466-.467a.685.685,0,0,0-.97.969l.591.592a1.388,1.388,0,0,1-1.918-1.284V10.553a1.39,1.39,0,0,1,2.779,0v3.527Z" fill="#fff"/>
      </g>
    </g>
    <g id="Group_2532" data-name="Group 2532">
      <g id="Group_2531" data-name="Group 2531">
        <path id="Path_1760" data-name="Path 1760" d="M14.3,12.317H11.935V9.473a.308.308,0,0,1,.307-.309H14.3a.685.685,0,0,0,0-1.371H12.242a1.681,1.681,0,0,0-1.678,1.68v6.683a.685.685,0,0,0,1.371,0V13.688H14.3a.685.685,0,0,0,0-1.371Z" fill="#fff"/>
      </g>
    </g>
    <g id="Group_2534" data-name="Group 2534">
      <g id="Group_2533" data-name="Group 2533">
        <path id="Path_1761" data-name="Path 1761" d="M4.46,21.073a.685.685,0,1,0,.2.485A.69.69,0,0,0,4.46,21.073Z" fill="#fff"/>
      </g>
    </g>
  </g>
</svg>
