<svg id="icones" xmlns="http://www.w3.org/2000/svg" viewBox="0 0 32 32"><g id="sun-umbrella"><path id="Path_1480" data-name="Path 1480" d="M30.66,28.3c-5-3.92-10.93-1.62-16.76-.11L11.28,18.4a3.18,3.18,0,0,1,1.51.4.89.89,0,0,0,1.2-.31,3.24,3.24,0,0,1,4.36-1.16.87.87,0,0,0,1.25-1A9.45,9.45,0,0,0,8.87,9.42L8.45,7.86a.88.88,0,1,0-1.71.39.25.25,0,0,0,0,.07l.41,1.55A9.46,9.46,0,0,0,1.34,21.23a.87.87,0,0,0,1.08.62.92.92,0,0,0,.52-.39A3.24,3.24,0,0,1,7.3,20.29.87.87,0,0,0,8.46,20a3.22,3.22,0,0,1,1.12-1.11l2.62,9.75c-3.36.76-6.74,1.06-9.95-.42a.88.88,0,0,0-.74,1.6c10.07,4.62,20.65-5.89,28.07-.1a.88.88,0,0,0,1.23-.16.87.87,0,0,0-.15-1.23ZM17.29,15.19a5,5,0,0,0-3.54,1A11,11,0,0,0,10.54,11,7.71,7.71,0,0,1,17.29,15.19ZM2.76,19.09a7.73,7.73,0,0,1,3.79-7,11,11,0,0,0-.22,6.05A5,5,0,0,0,2.76,19.09Zm5.29-1.3a9.19,9.19,0,0,1,.53-6.07,9.2,9.2,0,0,1,3.5,5A5,5,0,0,0,8.05,17.79Z" fill="#fcb930"/><path id="Path_1481" data-name="Path 1481" d="M17.72,9h.93a.88.88,0,0,0,0-1.76h-.93a.88.88,0,0,0,0,1.76Z" fill="#fcb930"/><path id="Path_1482" data-name="Path 1482" d="M23.91,11A3,3,0,1,0,21,8.09h0A3,3,0,0,0,23.91,11Zm0-4.15a1.2,1.2,0,1,1,0,2.39,1.19,1.19,0,0,1-1.19-1.19h0A1.19,1.19,0,0,1,23.91,6.89Z" fill="#fcb930"/><path id="Path_1483" data-name="Path 1483" d="M23.91,3.69a.87.87,0,0,0,.88-.88V1.88a.88.88,0,0,0-1.76,0h0v.93A.88.88,0,0,0,23.91,3.69Z" fill="#fcb930"/><path id="Path_1484" data-name="Path 1484" d="M19.56,5A.88.88,0,0,0,20.8,5a.86.86,0,0,0,0-1.24l-.66-.66a.86.86,0,0,0-1.24,0,.88.88,0,0,0,0,1.24Z" fill="#fcb930"/><path id="Path_1485" data-name="Path 1485" d="M19.56,11.2l-.66.66a.88.88,0,1,0,1.24,1.24l.66-.66a.88.88,0,0,0-1.24-1.24Z" fill="#fcb930"/><path id="Path_1486" data-name="Path 1486" d="M23,13.36v.94a.88.88,0,0,0,1.76,0h0v-.94a.88.88,0,0,0-1.76,0Z" fill="#fcb930"/><path id="Path_1487" data-name="Path 1487" d="M27,11.2a.88.88,0,0,0,0,1.24h0l.66.66a.88.88,0,0,0,1.24,0,.86.86,0,0,0,0-1.24h0l-.66-.66a.86.86,0,0,0-1.24,0Z" fill="#fcb930"/><path id="Path_1488" data-name="Path 1488" d="M28.31,8.09a.88.88,0,0,0,.88.88h.93a.88.88,0,1,0,0-1.76h-.93A.87.87,0,0,0,28.31,8.09Z" fill="#fcb930"/><path id="Path_1489" data-name="Path 1489" d="M28.26,5l.66-.66a.88.88,0,1,0-1.24-1.24h0L27,3.74A.88.88,0,0,0,28.26,5Z" fill="#fcb930"/></g></svg>