<svg id="icones" xmlns="http://www.w3.org/2000/svg" xmlns:xlink="http://www.w3.org/1999/xlink" viewBox="0 0 32 32"><defs><clipPath id="clip-path"><circle cx="16" cy="16" r="15" fill="none"/></clipPath></defs><path id="Path_877" data-name="Path 877" d="M16,1A15,15,0,1,1,1,16H1A15,15,0,0,1,16,1Z" fill="#0066b1"/><g clip-path="url(#clip-path)"><g id="Group_717" data-name="Group 717"><path id="Path_859" data-name="Path 859" d="M25.29,22.92A13,13,0,0,0,20,19.69a8,8,0,1,0-8,0A13.13,13.13,0,0,0,2.87,32.2a.83.83,0,0,0,.84.84H28.29a.83.83,0,0,0,.84-.84A13,13,0,0,0,25.29,22.92ZM9.64,12.71A6.36,6.36,0,1,1,16,19.07,6.37,6.37,0,0,1,9.64,12.71ZM4.58,31.36a11.45,11.45,0,0,1,22.84,0Z" fill="#fff"/></g></g></svg>