<?xml version="1.0" encoding="utf-8"?>
<!-- Generator: Adobe Illustrator 25.0.1, SVG Export Plug-In . SVG Version: 6.00 Build 0)  -->
<svg version="1.1" id="Layer_1" xmlns="http://www.w3.org/2000/svg" xmlns:xlink="http://www.w3.org/1999/xlink" x="0px" y="0px"
	 viewBox="0 0 36 36" style="enable-background:new 0 0 36 36;" xml:space="preserve">
<style type="text/css">
	.st0{fill:#1766B1;}
</style>
<path id="Icon_awesome-user" class="st0" d="M60.99,18c4.73,0,8.57-3.84,8.57-8.57s-3.84-8.57-8.57-8.57
	c-4.73,0-8.57,3.84-8.57,8.57S56.25,18,60.99,18z M66.99,20.14h-1.12c-3.1,1.43-6.67,1.43-9.77,0h-1.12c-4.97,0-9,4.03-9,9v2.79
	c0,1.78,1.44,3.21,3.21,3.21h23.58c1.78,0,3.21-1.44,3.21-3.21v-2.79C75.99,24.17,71.96,20.14,66.99,20.14z"/>
<path id="Icon_awesome-user-tie" class="st0" d="M18,18c4.73,0,8.57-3.84,8.57-8.57S22.73,0.85,18,0.85S9.43,4.69,9.43,9.43
	S13.27,18,18,18z M24.42,20.18L21.21,33l-2.14-9.11l2.14-3.75h-6.43l2.14,3.75L14.79,33l-3.2-12.82C6.79,20.4,3.01,24.34,3,29.14
	v2.79c0,1.78,1.44,3.21,3.21,3.21h23.58c1.78,0,3.21-1.44,3.21-3.21v-2.79C32.99,24.34,29.21,20.4,24.42,20.18z"/>
<g>
</g>
<g>
</g>
<g>
</g>
<g>
</g>
<g>
</g>
<g>
</g>
<g>
</g>
<g>
</g>
<g>
</g>
<g>
</g>
<g>
</g>
<g>
</g>
<g>
</g>
<g>
</g>
<g>
</g>
</svg>
