<svg id="icones" xmlns="http://www.w3.org/2000/svg" viewBox="0 0 32 32"><path d="M25.49,3.68H22.9V2.44a1.48,1.48,0,0,0-2.95,0V3.68h-7.9V2.44a1.47,1.47,0,0,0-2.94,0V3.68H6.51A4.19,4.19,0,0,0,2.33,7.87v19A4.19,4.19,0,0,0,6.51,31h19a4.19,4.19,0,0,0,4.18-4.19v-19A4.19,4.19,0,0,0,25.49,3.68Zm1.24,23.16a1.24,1.24,0,0,1-1.24,1.24h-19a1.24,1.24,0,0,1-1.24-1.24v-19A1.24,1.24,0,0,1,6.51,6.63h2.6V7.87a1.47,1.47,0,1,0,2.94,0V6.63H20V7.87a1.48,1.48,0,0,0,2.95,0V6.63h2.59a1.24,1.24,0,0,1,1.24,1.24Z" fill="#0e64b4"/><path id="Icon_material-attach-money" data-name="Icon material-attach-money" d="M16.54,16.54c-1.93-.5-2.55-1-2.55-1.83s.86-1.57,2.3-1.57,2.07.72,2.12,1.79h1.87a3.37,3.37,0,0,0-2.72-3.24V9.83H15v1.84c-1.64.35-3,1.42-3,3.06,0,2,1.62,2.94,4,3.51,2.12.51,2.55,1.25,2.55,2,0,.59-.42,1.52-2.29,1.52S13.85,21,13.76,20H11.89A3.55,3.55,0,0,0,15,23.27v1.85h2.55V23.29c1.66-.32,3-1.28,3-3C20.53,17.86,18.47,17,16.54,16.54Z" fill="#0e64b4"/></svg>