<svg xmlns="http://www.w3.org/2000/svg" width="46.577" height="51.764" viewBox="0 0 46.577 51.764">
  <path id="Icon_material-fingerprint" data-name="Icon material-fingerprint" d="M698.052,504.621a1.207,1.207,0,0,1-.6-.156,30.336,30.336,0,0,0-28.833.009,1.3,1.3,0,0,1-1.3-2.249l.053-.029a32.934,32.934,0,0,1,31.265-.026,1.31,1.31,0,0,1-.595,2.451Zm-37.037,13.6a1.337,1.337,0,0,1-.75-.233,1.291,1.291,0,0,1-.322-1.8l.011-.015a26.752,26.752,0,0,1,9.706-8.454,29.875,29.875,0,0,1,26.684-.026,26.865,26.865,0,0,1,9.706,8.4,1.3,1.3,0,1,1-2.123,1.5,24.3,24.3,0,0,0-8.774-7.609,27.27,27.27,0,0,0-24.329.026,24.542,24.542,0,0,0-8.8,7.661A1.129,1.129,0,0,1,661.015,518.217Zm16.176,31.231a1.212,1.212,0,0,1-.906-.388,26.2,26.2,0,0,1-5.2-6.833A22.968,22.968,0,0,1,668.366,531a14.666,14.666,0,0,1,29.3-.009,1.294,1.294,0,0,1-2.588,0,12.083,12.083,0,0,0-24.122,0,20.281,20.281,0,0,0,2.415,9.965,24.509,24.509,0,0,0,4.78,6.28,1.329,1.329,0,0,1,0,1.838,1.418,1.418,0,0,1-.958.379Zm18.558-4.78a13.944,13.944,0,0,1-8.024-2.3A13.781,13.781,0,0,1,681.565,531a1.294,1.294,0,0,1,2.589,0,11.132,11.132,0,0,0,5.021,9.214,11.349,11.349,0,0,0,6.574,1.837,16.993,16.993,0,0,0,2.691-.259,1.3,1.3,0,0,1,.449,2.563,17.7,17.7,0,0,1-3.132.31Zm-5.2,5.332a1.534,1.534,0,0,1-.336-.052,20.185,20.185,0,0,1-9.628-5.435A18.879,18.879,0,0,1,674.966,531a7.98,7.98,0,0,1,15.943,0,5.4,5.4,0,0,0,10.767,0c0-9.758-8.412-17.678-18.765-17.678A18.9,18.9,0,0,0,665.8,523.756,16.665,16.665,0,0,0,664.276,531a25.734,25.734,0,0,0,1.734,9.343,1.262,1.262,0,0,1-.707,1.64l-.043.017a1.285,1.285,0,0,1-1.655-.747l0,0A28.833,28.833,0,0,1,661.714,531a19.446,19.446,0,0,1,1.76-8.386,21.478,21.478,0,0,1,19.437-11.906c11.776,0,21.353,9.085,21.353,20.266a7.98,7.98,0,0,1-15.943,0,5.4,5.4,0,0,0-10.767,0,16.3,16.3,0,0,0,4.831,11.673,17.6,17.6,0,0,0,8.463,4.788,1.284,1.284,0,0,1,.907,1.575v0A1.263,1.263,0,0,1,690.546,550Z" transform="translate(-659.712 -498.236)" fill="#fff"/>
</svg>
