<svg xmlns="http://www.w3.org/2000/svg" width="15" height="15" viewBox="0 0 15 15">
  <g id="Icon_ionic-ios-arrow-dropright" data-name="Icon ionic-ios-arrow-dropright" transform="translate(-3.375 -3.375)">
    <path id="Caminho_16" data-name="Caminho 16" d="M14.619,10.186a.7.7,0,0,1,.982,0l3.432,3.457a.7.7,0,0,1,.022.961l-3.382,3.407a.693.693,0,0,1-.982,0,.7.7,0,0,1,0-.986l2.874-2.93-2.946-2.93A.691.691,0,0,1,14.619,10.186Z" transform="translate(-5.372 -3.227)" fill="#fff"/>
    <path id="Caminho_17" data-name="Caminho 17" d="M3.375,10.875a7.5,7.5,0,1,0,7.5-7.5A7.5,7.5,0,0,0,3.375,10.875Zm1.154,0A6.344,6.344,0,0,1,15.361,6.389a6.344,6.344,0,1,1-8.971,8.971A6.292,6.292,0,0,1,4.529,10.875Z" transform="translate(0 0)" fill="#fff"/>
  </g>
</svg>
