<svg xmlns="http://www.w3.org/2000/svg" width="23.579" height="28" viewBox="0 0 23.579 28">
  <g id="Group_1616" data-name="Group 1616" transform="translate(-32.211 -140)">
    <path id="Path_1564" data-name="Path 1564" d="M27.789,30c6.5,0,11.789-6.942,11.789-15.474V5.684a.737.737,0,0,0-.547-.712L27.98,2.025a.737.737,0,0,0-.38,0L16.547,4.972A.737.737,0,0,0,16,5.684v8.842C16,23.058,21.289,30,27.789,30ZM17.474,6.251,27.789,3.5,38.105,6.251v8.276c0,7.72-4.627,14-10.316,14s-10.316-6.28-10.316-14Z" transform="translate(16.211 138)" fill="#fff"/>
    <path id="Icon_map-health" data-name="Icon map-health" d="M12.466,4.635a.245.245,0,0,0-.245-.245H9.04A.245.245,0,0,1,8.8,4.146V.965A.245.245,0,0,0,8.551.72H4.635a.245.245,0,0,0-.245.245V4.146a.245.245,0,0,1-.245.245H.965a.245.245,0,0,0-.245.245V8.551A.245.245,0,0,0,.965,8.8H4.146a.245.245,0,0,1,.245.245v3.181a.245.245,0,0,0,.245.245H8.551a.245.245,0,0,0,.245-.245V9.04A.245.245,0,0,1,9.04,8.8h3.181a.245.245,0,0,0,.245-.245Z" transform="translate(37.238 147.033)" fill="#fff"/>
  </g>
</svg>
