<svg xmlns="http://www.w3.org/2000/svg" width="21.844" height="19.926" viewBox="0 0 21.844 19.926">
  <path id="Icon_map-health" data-name="Icon map-health" d="M22.564,7.362a.438.438,0,0,0-.455-.415H16.193a.438.438,0,0,1-.455-.415v-5.4A.438.438,0,0,0,15.282.72H8a.438.438,0,0,0-.455.415v5.4a.438.438,0,0,1-.455.415H1.175a.438.438,0,0,0-.455.415V14a.438.438,0,0,0,.455.415H7.091a.438.438,0,0,1,.455.415v5.4A.438.438,0,0,0,8,20.645h7.281a.438.438,0,0,0,.455-.415v-5.4a.438.438,0,0,1,.455-.415h5.916A.438.438,0,0,0,22.564,14Z" transform="translate(-0.72 -0.72)" fill="#fff"/>
</svg>
