<svg xmlns="http://www.w3.org/2000/svg" width="127.842" height="146.105" viewBox="0 0 127.842 146.105">
  <path id="Icon_awesome-calendar-alt" data-name="Icon awesome-calendar-alt" d="M0,132.408a13.7,13.7,0,0,0,13.7,13.7H114.145a13.7,13.7,0,0,0,13.7-13.7V54.79H0ZM91.316,76.477a3.434,3.434,0,0,1,3.424-3.424h11.414a3.434,3.434,0,0,1,3.424,3.424V87.892a3.434,3.434,0,0,1-3.424,3.424H94.74a3.434,3.434,0,0,1-3.424-3.424Zm0,36.526a3.434,3.434,0,0,1,3.424-3.424h11.414A3.434,3.434,0,0,1,109.579,113v11.414a3.434,3.434,0,0,1-3.424,3.424H94.74a3.434,3.434,0,0,1-3.424-3.424ZM54.79,76.477a3.434,3.434,0,0,1,3.424-3.424H69.628a3.434,3.434,0,0,1,3.424,3.424V87.892a3.434,3.434,0,0,1-3.424,3.424H58.214a3.434,3.434,0,0,1-3.424-3.424Zm0,36.526a3.434,3.434,0,0,1,3.424-3.424H69.628A3.434,3.434,0,0,1,73.053,113v11.414a3.434,3.434,0,0,1-3.424,3.424H58.214a3.434,3.434,0,0,1-3.424-3.424ZM18.263,76.477a3.434,3.434,0,0,1,3.424-3.424H33.1a3.434,3.434,0,0,1,3.424,3.424V87.892A3.434,3.434,0,0,1,33.1,91.316H21.688a3.434,3.434,0,0,1-3.424-3.424Zm0,36.526a3.434,3.434,0,0,1,3.424-3.424H33.1A3.434,3.434,0,0,1,36.526,113v11.414a3.434,3.434,0,0,1-3.424,3.424H21.688a3.434,3.434,0,0,1-3.424-3.424Zm95.882-94.74h-13.7V4.566A4.579,4.579,0,0,0,95.882,0H86.75a4.579,4.579,0,0,0-4.566,4.566v13.7H45.658V4.566A4.579,4.579,0,0,0,41.092,0H31.961a4.579,4.579,0,0,0-4.566,4.566v13.7H13.7A13.7,13.7,0,0,0,0,31.961v13.7H127.842v-13.7A13.7,13.7,0,0,0,114.145,18.263Z" fill="#dce8e8" opacity="0.098"/>
</svg>
