<svg xmlns="http://www.w3.org/2000/svg" width="58.252" height="58.252" viewBox="0 0 58.252 58.252">
  <path id="Icon_map-health" data-name="Icon map-health" d="M58.972,20.137a1.217,1.217,0,0,0-1.214-1.214H41.982a1.217,1.217,0,0,1-1.214-1.214V1.934A1.217,1.217,0,0,0,39.555.72H20.137a1.217,1.217,0,0,0-1.214,1.214V17.71a1.217,1.217,0,0,1-1.214,1.214H1.934A1.217,1.217,0,0,0,.72,20.137V39.555a1.217,1.217,0,0,0,1.214,1.214H17.71a1.217,1.217,0,0,1,1.214,1.214V57.759a1.217,1.217,0,0,0,1.214,1.214H39.555a1.217,1.217,0,0,0,1.214-1.214V41.982a1.217,1.217,0,0,1,1.214-1.214H57.759a1.217,1.217,0,0,0,1.214-1.214Z" transform="translate(-0.72 -0.72)" fill="#fff"/>
</svg>
