<svg id="Group_1615" data-name="Group 1615" xmlns="http://www.w3.org/2000/svg" width="55.289" height="64.747" viewBox="0 0 55.289 64.747">
  <path id="Path_1564" data-name="Path 1564" d="M43.645,66.747c15.242,0,27.645-16.052,27.645-35.781V10.519a1.708,1.708,0,0,0-1.282-1.646L44.09,2.058a1.751,1.751,0,0,0-.892,0L17.282,8.873A1.708,1.708,0,0,0,16,10.519V30.966C16,50.695,28.4,66.747,43.645,66.747ZM19.456,11.83,43.645,5.467,67.833,11.83V30.966c0,17.852-10.85,32.374-24.189,32.374S19.456,48.817,19.456,30.966Z" transform="translate(-16 -2)" fill="#fff"/>
  <path id="Icon_material-attach-money" data-name="Icon material-attach-money" d="M22,27.458c-5.186-1.715-6.853-3.487-6.853-6.248,0-3.168,2.307-5.376,6.168-5.376,4.066,0,5.574,2.47,5.711,6.1h5.049c-.16-5-2.559-9.59-7.333-11.072V4.5H17.887v6.277a10.522,10.522,0,0,0-8,10.491c0,6.713,4.363,10.055,10.737,12,5.711,1.744,6.853,4.3,6.853,7,0,2.005-1.119,5.2-6.168,5.2-4.706,0-6.556-2.674-6.808-6.1H9.48c.274,6.364,4.021,9.939,8.407,11.13v6.306H24.74V50.561c4.455-1.075,8-4.359,8-10.316C32.735,31.991,27.184,29.172,22,27.458Z" transform="translate(7.135 2.021)" fill="#fff"/>
</svg>
