<svg id="Group_1612" data-name="Group 1612" xmlns="http://www.w3.org/2000/svg" width="62.001" height="50.893" viewBox="0 0 62.001 50.893">
  <path id="Path_1550" data-name="Path 1550" d="M.584,171.938a.586.586,0,1,0-.293-1.093.586.586,0,0,0,.293,1.093Z" transform="translate(0.001 -156.028)" fill="#fff"/>
  <path id="Path_1551" data-name="Path 1551" d="M56.951,78.045a16.7,16.7,0,0,0-.709-6.282c-1.58-4.913-4.835-8.537-8.93-9.943-5.691-1.953-10.558.993-13.724,3.379a2.776,2.776,0,0,1-3.368,0c-3.166-2.386-8.033-5.332-13.724-3.379A14.389,14.389,0,0,0,8.061,70.4a1.343,1.343,0,0,0,.633,1.718,1.192,1.192,0,0,0,1.606-.678,11.92,11.92,0,0,1,6.941-7.131c4.561-1.565,8.667.863,11.408,2.9a7.82,7.82,0,0,0,4.331,3.835,7.222,7.222,0,0,0,5.9-.466,1.351,1.351,0,0,0,.541-1.754,1.184,1.184,0,0,0-1.639-.579,4.943,4.943,0,0,1-4.037.319,5.176,5.176,0,0,1-.713-.314,5.172,5.172,0,0,0,1.96-.917c2.74-2.064,6.92-4.624,11.573-3.027,3.355,1.151,6.04,4.178,7.367,8.3a13.861,13.861,0,0,1,.594,5.067q-.48-.032-.967-.032c-8.682,0-15.746,7.615-15.746,16.974A17.62,17.62,0,0,0,42.3,106.48q-.347.787-.685,1.557a2.234,2.234,0,0,1-2.363,1.409,2.321,2.321,0,0,1-2-1.95L34.381,93c0-.023-.01-.045-.015-.068a2.51,2.51,0,0,0-4.924,0c-.006.022-.011.045-.015.068L26.554,107.5a2.322,2.322,0,0,1-2,1.95,2.233,2.233,0,0,1-2.363-1.409c-4.552-10.364-7.422-16.5-8.531-18.245a30.552,30.552,0,0,1-3.516-7.473A1.206,1.206,0,0,0,8.6,81.48a1.327,1.327,0,0,0-.784,1.646,33.236,33.236,0,0,0,3.82,8.136c1.007,1.584,3.969,7.936,8.339,17.886a4.6,4.6,0,0,0,4.853,2.892,4.831,4.831,0,0,0,4.109-4l2.864-14.45c.011-.035.03-.061.1-.061s.087.025.1.061l2.864,14.449a4.83,4.83,0,0,0,4.109,4,4.646,4.646,0,0,0,4.853-2.892l.384-.874a14.927,14.927,0,0,0,9.348,3.323c8.682,0,15.746-7.615,15.746-16.974,0-8.105-5.3-14.9-12.355-16.578Zm-3.39,30.94c-7.336,0-13.3-6.443-13.3-14.362s5.968-14.362,13.3-14.362,13.3,6.443,13.3,14.362S60.9,108.985,53.561,108.985Z" transform="translate(-7.306 -61.184)" fill="#fff"/>
  <path id="Icon_map-health" data-name="Icon map-health" d="M16.567,5.851a.326.326,0,0,0-.33-.321H11.945a.326.326,0,0,1-.33-.321V1.041a.326.326,0,0,0-.33-.321H6a.326.326,0,0,0-.33.321V5.21a.326.326,0,0,1-.33.321H1.05a.326.326,0,0,0-.33.321v5.131a.326.326,0,0,0,.33.321H5.342a.326.326,0,0,1,.33.321v4.169a.326.326,0,0,0,.33.321h5.282a.326.326,0,0,0,.33-.321V11.623a.326.326,0,0,1,.33-.321h4.292a.326.326,0,0,0,.33-.321Z" transform="translate(37.636 24.727)" fill="#fff"/>
</svg>
