<svg xmlns="http://www.w3.org/2000/svg" width="42" height="41" viewBox="0 0 42 41"><defs><style>.a,.b,.d{fill:none;}.a,.b{stroke:#fff;}.b{stroke-linecap:round;stroke-linejoin:round;}.c{stroke:none;}</style></defs><g transform="translate(1.468 -27)"><g class="a" transform="translate(-1.468 27)"><ellipse class="c" cx="21" cy="20.5" rx="21" ry="20.5"/><ellipse class="d" cx="21" cy="20.5" rx="20.5" ry="20"/></g><path class="b" d="M18.667,12V6.667a4,4,0,0,0-4-4l-5.333,12V29.333h15.04a2.667,2.667,0,0,0,2.667-2.267l1.84-12A2.667,2.667,0,0,0,26.213,12ZM9.333,29.333h-4a2.667,2.667,0,0,1-2.667-2.667V17.333a2.667,2.667,0,0,1,2.667-2.667h4" transform="translate(4.026 28.727)"/></g></svg>