<svg id="icones" xmlns="http://www.w3.org/2000/svg" viewBox="0 0 32 32"><path id="Icon_metro-link" data-name="Icon metro-link" d="M13.83,19.73a1.51,1.51,0,0,1-1.1-.46,7.31,7.31,0,0,1,0-10.33l5.75-5.75A7.3,7.3,0,1,1,28.91,13.42l-.1.1-2.62,2.63A1.56,1.56,0,0,1,24,14h0l2.63-2.63a4.19,4.19,0,0,0-5.93-5.93l-5.75,5.75a4.19,4.19,0,0,0,0,5.93,1.55,1.55,0,0,1,0,2.2,1.53,1.53,0,0,1-1.1.46ZM8.31,31A7.3,7.3,0,0,1,3.15,18.52l2.63-2.63A1.56,1.56,0,1,1,8,18.1L5.35,20.72a4.19,4.19,0,0,0,5.92,5.93L17,20.9A4.18,4.18,0,0,0,17,15a1.56,1.56,0,0,1,2.21-2.21,7.34,7.34,0,0,1,0,10.34l-5.75,5.74A7.23,7.23,0,0,1,8.31,31Z" fill="#edf0f8"/></svg>