<svg id="Component_29_1" data-name="Component 29 – 1" xmlns="http://www.w3.org/2000/svg" xmlns:xlink="http://www.w3.org/1999/xlink" width="282.634" height="65.245" viewBox="0 0 282.634 65.245">
  <defs>
    <clipPath id="clip-path">
      <circle id="Ellipse_587" data-name="Ellipse 587" cx="23.848" cy="23.848" r="23.848" fill="none"/>
    </clipPath>
  </defs>
  <g id="Group_1973" data-name="Group 1973" transform="translate(-378.087 -12.635)">
    <g id="Group_1971" data-name="Group 1971" transform="translate(452.504 29.783)">
      <path id="Path_1581" data-name="Path 1581" d="M368.332,187.479,354.376,218.1h5.363l10.2-22.718,10.3,22.718h5.244l-13.857-30.62Z" transform="translate(-354.376 -187.387)" fill="#f06e3c"/>
      <path id="Path_1582" data-name="Path 1582" d="M506.334,192.073h8.78V218.1h4.87V192.073h8.724v-4.594H506.334Z" transform="translate(-443.282 -187.387)" fill="#f06e3c"/>
      <path id="Path_1583" data-name="Path 1583" d="M594.075,207.639c0,3.471-3.108,6.087-7.228,6.087s-7.228-2.616-7.228-6.087v-20.16H574.73v20.16c0,5.99,5.322,10.681,12.117,10.681,6.773,0,12.08-4.691,12.08-10.681v-20.16h-4.851Z" transform="translate(-483.298 -187.387)" fill="#f06e3c"/>
      <path id="Path_1584" data-name="Path 1584" d="M733.792,187.257a15.476,15.476,0,1,0,15.35,15.411A15.432,15.432,0,0,0,733.792,187.257Zm0,26.357a10.882,10.882,0,1,1,10.928-10.946A10.974,10.974,0,0,1,733.792,213.614Z" transform="translate(-567.34 -187.257)" fill="#f06e3c"/>
      <path id="Path_1585" data-name="Path 1585" d="M814.678,200.132c-4.471-.908-6.431-1.564-6.431-4.034,0-2.623,3.036-4.246,5.848-4.246a5.931,5.931,0,0,1,5.429,2.616l.561.764,4.344-1.611-.636-1.256c-1.785-3.528-6.157-5.107-9.7-5.107-5.172,0-10.754,3.38-10.754,8.84,0,6.44,5.453,7.588,9.835,8.511,4.334.913,6.785,1.577,6.785,4.613,0,2.161-2.906,4.283-5.866,4.283-3.159,0-4.949-.768-6.382-2.74l-.677-.931-4.063,2.438.753,1.1c2.137,3.123,5.625,4.707,10.369,4.707,5.269,0,10.957-3.387,10.957-8.859C825.052,202.239,819.3,201.07,814.678,200.132Z" transform="translate(-616.835 -187.257)" fill="#f06e3c"/>
      <path id="Path_1586" data-name="Path 1586" d="M455.51,206.466c4.179-1.7,6.674-5.105,6.674-9.116,0-5.443-4.874-9.871-10.865-9.871H437.582V218.1h4.907V192.073h8.829c3.316,0,6.013,2.367,6.013,5.277,0,2.941-2.7,5.333-6.013,5.333h-8.806L458.268,218.1h6.824l-11.479-11.111A9.6,9.6,0,0,0,455.51,206.466Z" transform="translate(-403.057 -187.387)" fill="#f06e3c"/>
      <path id="Path_1587" data-name="Path 1587" d="M664.381,206.466c4.179-1.7,6.674-5.105,6.674-9.116,0-5.443-4.875-9.871-10.866-9.871H646.454V218.1h4.906V192.073h8.829c3.316,0,6.014,2.367,6.014,5.277,0,2.941-2.7,5.333-6.014,5.333h-8.806L667.139,218.1h6.824l-11.479-11.111A9.6,9.6,0,0,0,664.381,206.466Z" transform="translate(-525.261 -187.387)" fill="#f06e3c"/>
    </g>
    <g id="Group_1972" data-name="Group 1972" transform="translate(378.087 12.635)">
      <g id="Group_1840" data-name="Group 1840" transform="translate(8.775 8.775)">
        <g id="Group_1839" data-name="Group 1839">
          <path id="Path_1588" data-name="Path 1588" d="M244.941,189.522a10.894,10.894,0,0,1-9.83-9.83,10.364,10.364,0,0,1-3.9,7.312c-2.534,1.789-9.682,2.3-13.133,2.519h0c3.45.218,11.016,1,13.133,2.519a10.439,10.439,0,0,1,3.9,7.312,10.9,10.9,0,0,1,9.83-9.831h0Z" transform="translate(-208.989 -174.459)" fill="#f06e3c"/>
          <g id="Group_1838" data-name="Group 1838">
            <g id="Group_1837" data-name="Group 1837" clip-path="url(#clip-path)">
              <g id="Group_1836" data-name="Group 1836" transform="translate(-4.632 22.568)">
                <path id="Path_1589" data-name="Path 1589" d="M185.008,226.414l.179-.543.093-.27c.035-.09.081-.179.121-.269l.256-.532q.161-.258.327-.511a5.837,5.837,0,0,1,1.751-1.67,6.963,6.963,0,0,1,2.1-.862,9.519,9.519,0,0,1,1.048-.2c.344-.038.686-.067,1.023-.083a19.508,19.508,0,0,1,3.867.3c1.242.208,2.448.49,3.636.808,2.371.642,4.67,1.419,6.942,2.234s4.518,1.671,6.762,2.515,4.484,1.68,6.743,2.447a60.7,60.7,0,0,0,6.851,1.96,23.614,23.614,0,0,0,3.494.5l.439.023h.437c.293.008.581-.017.871-.035a4.127,4.127,0,0,0,.431-.047c.143-.02.287-.037.429-.06l.42-.094c.07-.017.141-.029.21-.049l.2-.066a4.423,4.423,0,0,0,2.628-2.039,7.281,7.281,0,0,0,.818-3.385h.219a7.584,7.584,0,0,1-.676,3.58,4.606,4.606,0,0,1-1.159,1.476,5.293,5.293,0,0,1-1.633.937l-.22.085c-.074.026-.15.044-.224.066l-.452.126c-.152.034-.3.06-.458.09a4.631,4.631,0,0,1-.46.075c-.307.035-.615.078-.923.087l-.462.025h-.461a24.446,24.446,0,0,1-3.648-.32,61.8,61.8,0,0,1-7.08-1.622c-2.324-.653-4.622-1.374-6.912-2.1s-4.571-1.458-6.856-2.142-4.574-1.322-6.865-1.813c-1.145-.241-2.29-.444-3.423-.572a16.77,16.77,0,0,0-3.306-.086c-.26.026-.515.063-.766.1a6.331,6.331,0,0,0-.711.175,3.886,3.886,0,0,0-1.184.556,3.159,3.159,0,0,0-1.231,2Z" transform="translate(-185.008 -221.469)" fill="#f06e3c"/>
                <path id="Path_1590" data-name="Path 1590" d="M192.292,241.844a8.407,8.407,0,0,1,2.262-3.516,9.239,9.239,0,0,1,3.566-1.918,15.759,15.759,0,0,1,3.7-.559,28.713,28.713,0,0,1,3.571.092,64.168,64.168,0,0,1,6.87,1.029c2.25.445,4.474.946,6.691,1.439s4.428.979,6.647,1.383a45.406,45.406,0,0,0,6.679.79,17.083,17.083,0,0,0,3.312-.2c.27-.049.542-.1.805-.169.132-.035.267-.063.4-.1l.388-.128a3.057,3.057,0,0,0,.381-.145l.376-.159.357-.192.18-.1.168-.113.337-.227.309-.261c.051-.044.106-.085.154-.132l.139-.147c.092-.1.191-.193.277-.3a5.748,5.748,0,0,0,.468-.667c.068-.118.142-.234.207-.354l.17-.375a8.767,8.767,0,0,0,.651-3.263h.219a9.063,9.063,0,0,1-.489,3.415l-.159.411c-.062.133-.133.263-.2.394a6.163,6.163,0,0,1-.469.754c-.089.119-.19.228-.285.343l-.145.17c-.05.055-.107.1-.16.155l-.326.306-.355.271-.179.135-.19.116-.381.233-.4.2a3.5,3.5,0,0,1-.4.181l-.413.163c-.138.053-.28.09-.42.136-.28.095-.565.161-.851.229a17.964,17.964,0,0,1-3.466.41,46.551,46.551,0,0,1-6.888-.422c-2.274-.283-4.528-.648-6.773-1.015s-4.481-.741-6.713-1.053a61.936,61.936,0,0,0-6.657-.62,26.183,26.183,0,0,0-3.241.1,12.983,12.983,0,0,0-3,.621,6.23,6.23,0,0,0-2.322,1.4,5.208,5.208,0,0,0-1.248,2.241Z" transform="translate(-189.27 -228.539)" fill="#f06e3c"/>
                <path id="Path_1591" data-name="Path 1591" d="M204.243,249.014a9.82,9.82,0,0,1,1.7-3.363,9.358,9.358,0,0,1,2.865-2.415,13.577,13.577,0,0,1,3.307-1.261,22.159,22.159,0,0,1,3.333-.536,47.975,47.975,0,0,1,6.516-.054c2.142.105,4.262.281,6.373.445s4.212.319,6.307.368a31.606,31.606,0,0,0,6.224-.358,13.007,13.007,0,0,0,2.941-.868,7.418,7.418,0,0,0,2.487-1.712,6.957,6.957,0,0,0,1.539-2.625,11.153,11.153,0,0,0,.5-3.082h.219a11.457,11.457,0,0,1-.329,3.2,7.471,7.471,0,0,1-1.481,2.908,8.126,8.126,0,0,1-2.595,2.029,13.924,13.924,0,0,1-3.081,1.116,32.69,32.69,0,0,1-6.419.764c-2.143.079-4.277.049-6.4.013s-4.235-.083-6.33-.06a45.771,45.771,0,0,0-6.177.421,14.262,14.262,0,0,0-5.46,1.794,6.327,6.327,0,0,0-2.864,4.112Z" transform="translate(-196.262 -228.539)" fill="#f06e3c"/>
                <path id="Path_1592" data-name="Path 1592" d="M223.285,254.359a10.677,10.677,0,0,1,1.114-3.1,9.47,9.47,0,0,1,2.107-2.583,11.126,11.126,0,0,1,2.711-1.7,17.459,17.459,0,0,1,2.876-.994,37.575,37.575,0,0,1,5.742-.917c1.9-.18,3.776-.288,5.64-.43s3.714-.306,5.529-.616a19.233,19.233,0,0,0,5.223-1.558,8.837,8.837,0,0,0,3.923-3.589,11.681,11.681,0,0,0,1.333-5.315h.219a15.071,15.071,0,0,1-.172,2.84,10.146,10.146,0,0,1-.845,2.753,9,9,0,0,1-1.67,2.393,10.569,10.569,0,0,1-2.32,1.787,20.384,20.384,0,0,1-5.414,2.031c-1.864.45-3.746.746-5.614,1.017s-3.73.506-5.558.806A35.419,35.419,0,0,0,232.8,248.4a11.018,11.018,0,0,0-4.337,2.424,6.752,6.752,0,0,0-1.934,4.089Z" transform="translate(-207.403 -228.539)" fill="#f06e3c"/>
                <path id="Path_1593" data-name="Path 1593" d="M245.791,256.612a12.542,12.542,0,0,1,.684-2.631,9.613,9.613,0,0,1,1.361-2.438,9.735,9.735,0,0,1,1.993-1.913,12.192,12.192,0,0,1,2.3-1.295,26.121,26.121,0,0,1,4.74-1.451c1.568-.351,3.116-.637,4.632-.985a25.819,25.819,0,0,0,4.391-1.351,11.106,11.106,0,0,0,3.719-2.488,10.147,10.147,0,0,0,2.279-3.9,17.566,17.566,0,0,0,.761-4.6h.219a17.973,17.973,0,0,1-.4,4.767,10.951,10.951,0,0,1-2.118,4.392,12.292,12.292,0,0,1-3.866,3.072,27.3,27.3,0,0,1-4.523,1.808c-1.53.484-3.061.9-4.543,1.359a23.915,23.915,0,0,0-4.192,1.655,8.016,8.016,0,0,0-3.033,2.635,7.783,7.783,0,0,0-1.135,3.741Z" transform="translate(-220.57 -228.539)" fill="#f06e3c"/>
                <path id="Path_1594" data-name="Path 1594" d="M271.1,256.018a13.852,13.852,0,0,1,.774-4.079c.067-.169.123-.34.2-.507l.253-.5a7.137,7.137,0,0,1,.593-.951,4.07,4.07,0,0,1,.355-.436c.126-.139.243-.288.379-.415a7.888,7.888,0,0,1,.844-.711,9.791,9.791,0,0,1,1.815-1.039c.611-.263,1.221-.494,1.81-.689a33.1,33.1,0,0,0,3.356-1.233,8.686,8.686,0,0,0,2.765-1.92,9.376,9.376,0,0,0,1.838-2.911c.119-.27.2-.555.307-.834.048-.141.105-.279.145-.422l.116-.434c.074-.29.166-.577.225-.872l.174-.889c.066-.3.1-.6.141-.9l.12-.9c.058-.606.1-1.215.146-1.825h.219c.015.614.039,1.23.045,1.848l-.025.927c-.007.31-.013.62-.048.928l-.083.93c-.029.31-.093.617-.139.928l-.074.465c-.027.155-.07.307-.106.461-.079.306-.138.618-.234.921a10.569,10.569,0,0,1-1.723,3.469,10.257,10.257,0,0,1-2.985,2.58,34.47,34.47,0,0,1-3.388,1.671c-.552.249-1.064.51-1.554.784a7.276,7.276,0,0,0-1.283.923,4.747,4.747,0,0,0-1.446,2.465,10.936,10.936,0,0,0-.243,3.165Z" transform="translate(-235.381 -228.539)" fill="#f06e3c"/>
              </g>
            </g>
          </g>
        </g>
      </g>
      <path id="Path_1595" data-name="Path 1595" d="M207.647,145.932a32.623,32.623,0,1,0,32.622,32.623A32.623,32.623,0,0,0,207.647,145.932Zm.931,60.986a28.267,28.267,0,0,1-15.046-3.762,4.492,4.492,0,0,0-4.458,0l-6.751,3.172a1.816,1.816,0,0,1-2.415-2.415l3.172-6.751a4.492,4.492,0,0,0,0-4.458,28.382,28.382,0,0,1,38.754-38.751,4.491,4.491,0,0,0,4.455,0l6.732-3.153a1.816,1.816,0,0,1,2.414,2.414l-3.152,6.731a4.492,4.492,0,0,0,0,4.455,28.382,28.382,0,0,1-23.705,42.516Z" transform="translate(-175.024 -145.932)" fill="#f06e3c"/>
    </g>
  </g>
</svg>
