<svg id="icones" xmlns="http://www.w3.org/2000/svg" xmlns:xlink="http://www.w3.org/1999/xlink" viewBox="0 0 279.16 76.69"><defs><clipPath id="clip-path"><rect x="40.93" y="38.36" width="9.52" height="35.54" fill="none"/></clipPath><clipPath id="clip-path-3"><rect x="45.69" y="43.11" width="17.77" height="30.78" fill="none"/></clipPath><clipPath id="clip-path-4"><rect x="45.69" y="43.11" width="17.77" height="30.78" fill="none"/></clipPath><clipPath id="clip-path-5"><rect x="27.91" y="43.11" width="17.77" height="30.78" fill="none"/></clipPath><clipPath id="clip-path-6"><rect x="27.91" y="43.11" width="17.77" height="30.78" fill="none"/></clipPath><clipPath id="clip-path-7"><rect x="45.69" y="56.14" width="30.78" height="17.77" fill="none"/></clipPath><clipPath id="clip-path-9"><rect x="14.9" y="56.14" width="30.78" height="17.77" fill="none"/></clipPath></defs><g id="Group_1340" data-name="Group 1340"><g id="Group_27" data-name="Group 27"><g id="Group_29" data-name="Group 29"><path id="Path_1" data-name="Path 1" d="M81.25,38.34A35.56,35.56,0,1,1,45.69,2.78h0A35.56,35.56,0,0,1,81.25,38.34" fill="#fff"/><path id="Path_2" data-name="Path 2" d="M45.69,12.31A35.73,35.73,0,0,1,63.46,7.55a35.5,35.5,0,0,0-35.55,0,35.79,35.79,0,0,1,17.78,4.76" fill="#4179bd"/><path id="Path_3" data-name="Path 3" d="M14.9,20.56a35.42,35.42,0,0,1,17.77,4.76,35.48,35.48,0,0,1,13-13A35.79,35.79,0,0,0,27.91,7.55a35.68,35.68,0,0,0-13,13" fill="#98adda"/><path id="Path_4" data-name="Path 4" d="M32.67,25.32A35.42,35.42,0,0,0,14.9,20.56a35.36,35.36,0,0,0-4.77,17.78,35.36,35.36,0,0,1,17.78,4.77,35.39,35.39,0,0,1,4.76-17.79" fill="#cdd5ee"/><path id="Path_5" data-name="Path 5" d="M32.69,60.89a35.59,35.59,0,0,1-4.77-17.78,35.4,35.4,0,0,0-17.79-4.77A35.49,35.49,0,0,0,14.9,56.12a35.71,35.71,0,0,1,17.79,4.77" fill="#fff"/><path id="Path_6" data-name="Path 6" d="M45.69,12.31a35.38,35.38,0,0,1,13,13,35.42,35.42,0,0,1,17.77-4.76,35.68,35.68,0,0,0-13-13,35.73,35.73,0,0,0-17.77,4.76" fill="#98adda"/><path id="Path_7" data-name="Path 7" d="M81.24,38.34a35.36,35.36,0,0,0-4.77-17.78A35.32,35.32,0,0,0,58.7,25.32a35.39,35.39,0,0,1,4.76,17.79,35.36,35.36,0,0,1,17.78-4.77" fill="#cdd5ee"/><path id="Path_8" data-name="Path 8" d="M45.69,38.34a35.33,35.33,0,0,1,13-13,35.42,35.42,0,0,0-13-13,35.38,35.38,0,0,0-13,13,35.43,35.43,0,0,1,13,13" fill="#cdd5ee"/><path id="Path_9" data-name="Path 9" d="M40.93,56.13a35.71,35.71,0,0,1,4.75-17.79,35.4,35.4,0,0,0-13-13,35.48,35.48,0,0,0-4.75,17.79,35.63,35.63,0,0,1,13,13" fill="#fff"/><path id="Path_10" data-name="Path 10" d="M45.69,38.35a35.68,35.68,0,0,1,4.75,17.78,35.81,35.81,0,0,1,13-13A35.39,35.39,0,0,0,58.7,25.32a35.35,35.35,0,0,0-13,13" fill="#fff"/><path id="Path_11" data-name="Path 11" d="M58.68,60.89a35.71,35.71,0,0,1,17.79-4.77,35.49,35.49,0,0,0,4.77-17.78,35.23,35.23,0,0,0-17.78,4.77,35.71,35.71,0,0,1-4.78,17.78" fill="#fff"/><path id="Path_12" data-name="Path 12" d="M27.91,43.11h0a35.81,35.81,0,0,1,13,13,35.81,35.81,0,0,0-13-13" fill="#ed7500"/><g id="Group_5" data-name="Group 5"><g id="Group_4" data-name="Group 4"><g clip-path="url(#clip-path)"><g id="Group_3" data-name="Group 3"><g id="Group_2" data-name="Group 2"><g clip-path="url(#clip-path)"><g id="Group_1" data-name="Group 1"><path id="Path_13" data-name="Path 13" d="M45.69,38.36a35.58,35.58,0,0,0-4.76,17.78A35.51,35.51,0,0,1,45.69,73.9a35.4,35.4,0,0,1,4.75-17.76,35.68,35.68,0,0,0-4.75-17.78" fill="#fbb900"/><path id="Path_14" data-name="Path 14" d="M45.69,73.9a35.51,35.51,0,0,0-4.76-17.76A35.28,35.28,0,0,0,45.69,73.9" fill="#fbb900"/><path id="Path_15" data-name="Path 15" d="M45.69,73.9a35.48,35.48,0,0,0,4.76-17.76A35.31,35.31,0,0,0,45.69,73.9" fill="#fbb900"/></g></g></g></g></g></g></g><g id="Group_10" data-name="Group 10"><g id="Group_9" data-name="Group 9"><g clip-path="url(#clip-path-3)"><g id="Group_8" data-name="Group 8"><g id="Group_7" data-name="Group 7"><g clip-path="url(#clip-path-4)"><g id="Group_6" data-name="Group 6"><path id="Path_16" data-name="Path 16" d="M50.44,56.13a35.4,35.4,0,0,0-4.75,17.76A35.57,35.57,0,0,0,63.46,43.11a35.81,35.81,0,0,0-13,13" fill="#ee7100"/></g></g></g></g></g></g></g><g id="Group_15" data-name="Group 15"><g id="Group_14" data-name="Group 14"><g clip-path="url(#clip-path-5)"><g id="Group_13" data-name="Group 13"><g id="Group_12" data-name="Group 12"><g clip-path="url(#clip-path-6)"><g id="Group_11" data-name="Group 11"><path id="Path_17" data-name="Path 17" d="M45.69,73.89h0A35.56,35.56,0,0,0,27.91,43.11,35.57,35.57,0,0,0,45.69,73.89" fill="#ee7100"/></g></g></g></g></g></g></g><g id="Group_20" data-name="Group 20"><g id="Group_19" data-name="Group 19"><g clip-path="url(#clip-path-7)"><g id="Group_18" data-name="Group 18"><g id="Group_17" data-name="Group 17"><g clip-path="url(#clip-path-7)"><g id="Group_16" data-name="Group 16"><path id="Path_18" data-name="Path 18" d="M58.69,60.91h0a35.32,35.32,0,0,0-13,13A35.56,35.56,0,0,0,76.47,56.13,35.8,35.8,0,0,0,58.69,60.9" fill="#d10007"/></g></g></g></g></g></g></g><g id="Group_25" data-name="Group 25"><g id="Group_24" data-name="Group 24"><g clip-path="url(#clip-path-9)"><g id="Group_23" data-name="Group 23"><g id="Group_22" data-name="Group 22"><g clip-path="url(#clip-path-9)"><g id="Group_21" data-name="Group 21"><path id="Path_19" data-name="Path 19" d="M45.69,73.91A35.56,35.56,0,0,0,14.9,56.14a35.73,35.73,0,0,0,13,13,35.35,35.35,0,0,0,17.76,4.76" fill="#d10007"/></g></g></g></g></g></g></g><g id="Group_1339" data-name="Group 1339"><path id="Path_20" data-name="Path 20" d="M207.33,43.9c0-11.12-6.59-15.84-14.8-15.84-9.91,0-15.8,7.51-15.8,16.16,0,11.81,8.73,16.5,16.92,16.5a20.21,20.21,0,0,0,13.14-4.67l-2.91-4.8a16.43,16.43,0,0,1-10.27,3.3c-6.18-.06-9.66-4.8-9.9-7.93h23.45a11.82,11.82,0,0,0,.17-2.72M184,41.18s.77-6.65,8.76-6.65a7.35,7.35,0,0,1,7.77,6.65Z" fill="#d10e14"/><path id="Path_21" data-name="Path 21" d="M154,43.9c0-11.12-6.59-15.84-14.8-15.84-9.92,0-15.8,7.51-15.8,16.16,0,11.81,8.73,16.5,16.92,16.5a20.17,20.17,0,0,0,13.13-4.67l-2.91-4.8a16.4,16.4,0,0,1-10.26,3.3c-6.18-.06-9.66-4.8-9.9-7.93h23.45A11.82,11.82,0,0,0,154,43.9m-23.38-2.72s.77-6.65,8.75-6.65a7.35,7.35,0,0,1,7.78,6.65Z" fill="#d10e14"/><path id="Path_22" data-name="Path 22" d="M158.24,60.37h7.08v-18c0-4.84,3.17-7.87,7.39-7.87a17.26,17.26,0,0,1,3,.42l2-6.1a17.29,17.29,0,0,0-3.9-.6,10.29,10.29,0,0,0-8.63,4.34s-1-4.1-5-4.1h-2Z" fill="#d10e14"/><path id="Path_23" data-name="Path 23" d="M265.14,36.59l2.67-4.75A17.72,17.72,0,0,0,257,28.07c-6.52,0-11.47,3.41-11.47,9.29,0,10.27,16.61,8.38,16.61,14.07,0,2.35-3,3.32-5.85,3.13a19.8,19.8,0,0,1-8.43-2.88l-3.14,5.1a25.15,25.15,0,0,0,11.55,3.95c6.75.38,12.79-3.4,12.79-9.08,0-6.45-7-8.6-9.69-9.62s-7.14-2.25-7.14-5,3.65-3,5-3,4,.14,7.9,2.56" fill="#d10e14"/><path id="Path_24" data-name="Path 24" d="M130.09,17.68V16.13H95.34v6.55H109V60.37h7.44V22.68h8.65a5,5,0,0,0,5-5" fill="#d10e14"/><path id="Path_25" data-name="Path 25" d="M226.91,28.07c-6.86,0-16.55,4.28-16.55,16.33s9.69,16.33,16.55,16.33,16.55-4.28,16.55-16.33-9.68-16.33-16.55-16.33m0,26.2c-6,0-9.2-4.85-9.2-9.87s3.16-9.88,9.2-9.88,9.2,4.85,9.2,9.88-3.15,9.87-9.2,9.87" fill="#d10e14"/></g></g></g></g></svg>