<svg xmlns="http://www.w3.org/2000/svg" viewBox="0 0 204 70.37"><defs><style>.cls-1{fill:#3b7cbd;}</style></defs><g id="Layer_2" data-name="Layer 2"><g id="Layer_1-2" data-name="Layer 1"><path class="cls-1" d="M50.06.07h0M49.93,0H0V57A140.34,140.34,0,0,1,31.25,70.37,139.72,139.72,0,0,1,50.06.07L49.93,0"/><path class="cls-1" d="M204,0H153.06l-.12.07h0a139.83,139.83,0,0,1,18.82,70.3A139.81,139.81,0,0,1,204,56.74V0"/><path class="cls-1" d="M152.91,0H50.1l0,.07A139.82,139.82,0,0,1,101.5,51.55h0A139.89,139.89,0,0,1,152.94.07h0l0-.07"/></g></g></svg>