<svg xmlns="http://www.w3.org/2000/svg" width="329.93" height="329.929" viewBox="0 0 329.93 329.929">
  <g id="Componente_23_1" data-name="Componente 23 – 1" transform="translate(1 1)">
    <g id="Grupo_2425" data-name="Grupo 2425" transform="translate(-24.261 -119.261)">
      <g id="Grupo_2402" data-name="Grupo 2402" transform="translate(24.261 119.261)">
        <path id="Caminho_1606" data-name="Caminho 1606" d="M1240.211,459.341h-62.753a39.9,39.9,0,0,0-39.9,39.9V565.8" transform="translate(-1137.559 -459.341)" fill="none" stroke="#fefffe" stroke-linecap="round" stroke-miterlimit="10" stroke-width="2"/>
        <path id="Caminho_1607" data-name="Caminho 1607" d="M1352.383,561.993V499.238a39.9,39.9,0,0,0-39.9-39.9h-66.567" transform="translate(-1024.453 -459.341)" fill="none" stroke="#fefffe" stroke-linecap="round" stroke-miterlimit="10" stroke-width="2"/>
        <path id="Caminho_1608" data-name="Caminho 1608" d="M1247.785,674.164h62.753a39.9,39.9,0,0,0,39.9-39.9V567.7" transform="translate(-1022.505 -346.235)" fill="none" stroke="#fefffe" stroke-linecap="round" stroke-miterlimit="10" stroke-width="2"/>
        <path id="Caminho_1609" data-name="Caminho 1609" d="M1137.559,569.566v62.755a39.9,39.9,0,0,0,39.9,39.9h66.564" transform="translate(-1137.559 -344.289)" fill="none" stroke="#fefffe" stroke-linecap="round" stroke-miterlimit="10" stroke-width="2"/>
      </g>
    </g>
    <g id="Grupo_2426" data-name="Grupo 2426" transform="translate(60 26.089)" opacity="0.5">
      <g id="Grupo_2423" data-name="Grupo 2423" transform="translate(2.48 2.139)">
        <g id="Grupo_2403" data-name="Grupo 2403" transform="translate(27.448 107.43)">
          <path id="Caminho_1611" data-name="Caminho 1611" d="M122.424,314.049H86.718l-8.2-13.9,34.129-3.216,10.164,16.421Zm-35.185-.911H121.6l-9.437-15.246L80.03,300.921Z" transform="translate(-78.516 -296.931)" fill="#fcfdfe"/>
        </g>
        <g id="Grupo_2404" data-name="Grupo 2404" transform="translate(11.714 76.199)">
          <path id="Caminho_1612" data-name="Caminho 1612" d="M141.852,367.132l-2.312-53.938-3.784-17.758L87.34,282.475,72.13,296.6l47.857,2.637-.05.912-48.928-2.7-.285-.791,16.365-15.2.243.066,49.2,13.169,3.91,18.381,2.322,54.013Z" transform="translate(-70.724 -281.464)" fill="#fcfdfe"/>
        </g>
        <g id="Grupo_2405" data-name="Grupo 2405" transform="translate(0 91.438)">
          <path id="Caminho_1613" data-name="Caminho 1613" d="M72.756,371.891l-.884-.073-6.95-45.567,11.59-37.085.783-.156,16.345,19.5Zm-6.9-45.569L72.486,369.8,92.616,308.7,77.132,290.235Z" transform="translate(-64.922 -289.011)" fill="#fcfdfe"/>
        </g>
        <g id="Grupo_2406" data-name="Grupo 2406" transform="translate(6.915 123.866)">
          <path id="Caminho_1614" data-name="Caminho 1614" d="M83.43,414.629l-.786-.194-14.3-59.12.089-.159,28.509-50.085.792.452L69.317,355.45l14.006,57.916,49.007-55.843V305.3h.912v52.567l-.113.13Z" transform="translate(-68.347 -305.071)" fill="#fcfdfe"/>
        </g>
        <g id="Grupo_2407" data-name="Grupo 2407" transform="translate(21.348 232.669)">
          <path id="Caminho_1615" data-name="Caminho 1615" d="M155.524,409.636,125.3,405.3l-.105-.095-49.7-45.46.343-.789,79.686,6.2Zm-29.818-5.2,28.906,4.145V366L77.086,359.97Z" transform="translate(-75.495 -358.958)" fill="#fcfdfe"/>
        </g>
        <g id="Grupo_2408" data-name="Grupo 2408" transform="translate(52.69 208.021)">
          <path id="Caminho_1616" data-name="Caminho 1616" d="M139.076,378.438,91.017,358.789l.069-.865,48.059-11.173.207.887L92.688,358.487l46.734,19.108Z" transform="translate(-91.017 -346.751)" fill="#fcfdfe"/>
        </g>
        <g id="Grupo_2409" data-name="Grupo 2409" transform="translate(52.442 94.049)">
          <path id="Caminho_1617" data-name="Caminho 1617" d="M91.561,416.276l-.666-.563,18.378-42.878-.067-.077L121.242,358,109.311,320.29l.1-.176,9.409-15.812L99.886,291.556l.359,12.6-.911.024-.386-13.484.711-.39,20.391,13.724L110.3,320.4l11.957,37.8-11.85,14.527,7.717,8.45,21.32,3.443.172.834Zm18.386-42.7L92.318,414.707l45.806-29.376-20.456-3.3-.107-.117Z" transform="translate(-90.895 -290.304)" fill="#fcfdfe"/>
        </g>
        <g id="Grupo_2410" data-name="Grupo 2410" transform="translate(0.015 0.351)">
          <path id="Caminho_1618" data-name="Caminho 1618" d="M65.832,372.324l-.9-.125,13.89-101.092L78.93,271l27.486-27.1h59.419v.912H106.791l-27.11,26.729Z" transform="translate(-64.929 -243.898)" fill="#fcfdfe"/>
        </g>
        <g id="Grupo_2411" data-name="Grupo 2411" transform="translate(13.823)">
          <path id="Caminho_1619" data-name="Caminho 1619" d="M134.655,333.7l-35.19-88.359-26.673,26.3,13.8,48.669-.878.249L71.768,271.365l.192-.189L99.8,243.725l.255.637,35.445,89Z" transform="translate(-71.768 -243.725)" fill="#fcfdfe"/>
        </g>
        <g id="Grupo_2412" data-name="Grupo 2412" transform="translate(41.307 0.557)">
          <path id="Caminho_1620" data-name="Caminho 1620" d="M125.347,351.708l-.575-.709,19.616-15.92L85.38,244.5l.764-.5L145.6,335.267l-.319.26Z" transform="translate(-85.38 -244.001)" fill="#fcfdfe"/>
        </g>
        <g id="Grupo_2413" data-name="Grupo 2413" transform="translate(130.099 107.43)">
          <path id="Caminho_1621" data-name="Caminho 1621" d="M165.448,314.049h-35.7l-.388-.7,10.166-16.421,34.129,3.216Zm-34.886-.911h34.367l7.206-12.218L140,297.892Z" transform="translate(-129.356 -296.931)" fill="#fcfdfe"/>
        </g>
        <g id="Grupo_2414" data-name="Grupo 2414" transform="translate(118.088 76.199)">
          <path id="Caminho_1622" data-name="Caminho 1622" d="M124.319,367.132l-.912-.039,2.312-53.938,3.92-18.456.271-.071,49.172-13.164,16.365,15.2-.285.791-48.929,2.7-.05-.912L194.04,296.6l-15.21-14.124-48.416,12.961-3.793,17.833Z" transform="translate(-123.407 -281.464)" fill="#fcfdfe"/>
        </g>
        <g id="Grupo_2415" data-name="Grupo 2415" transform="translate(173.125 91.438)">
          <path id="Caminho_1623" data-name="Caminho 1623" d="M171.549,371.891l-20.884-63.384,16.345-19.5.783.156,11.59,37.085-6.952,45.567ZM151.689,308.7,171.819,369.8l6.631-43.475-11.279-36.087Z" transform="translate(-150.665 -289.011)" fill="#fcfdfe"/>
        </g>
        <g id="Grupo_2416" data-name="Grupo 2416" transform="translate(130.031 123.866)">
          <path id="Caminho_1624" data-name="Caminho 1624" d="M179.135,414.629l-49.812-56.764V305.3h.912v52.225l49.007,55.843,14.006-57.916-28.42-49.927.792-.452,28.6,50.244-.042.174-14.255,58.945Z" transform="translate(-129.322 -305.071)" fill="#fcfdfe"/>
        </g>
        <g id="Grupo_2417" data-name="Grupo 2417" transform="translate(100.465 232.669)">
          <path id="Caminho_1625" data-name="Caminho 1625" d="M114.679,409.636V365.155l.42-.032,79.266-6.164.343.789-49.8,45.555-.139.02ZM115.592,366v42.587L144.5,404.44l48.618-44.471Z" transform="translate(-114.679 -358.958)" fill="#fcfdfe"/>
        </g>
        <g id="Grupo_2418" data-name="Grupo 2418" transform="translate(100.748 208.021)">
          <path id="Caminho_1626" data-name="Caminho 1626" d="M115.165,378.438l-.345-.844,46.734-19.108-46.664-10.849.207-.887,48.058,11.173.069.865Z" transform="translate(-114.819 -346.751)" fill="#fcfdfe"/>
        </g>
        <g id="Grupo_2419" data-name="Grupo 2419" transform="translate(100.675 94.049)">
          <path id="Caminho_1627" data-name="Caminho 1627" d="M162.842,416.276l-48.059-30.822.174-.834,21.318-3.443,7.719-8.45L132.143,358.2l.075-.234L144.1,320.4l-9.748-16.377L154.743,290.3l.711.39-.386,13.484-.913-.024.361-12.6L135.576,304.3l9.516,15.987L133.161,358,145.2,372.758l-.067.077,18.376,42.878Zm-46.563-30.945,45.8,29.376-17.629-41.133-7.719,8.454-.157.026Z" transform="translate(-114.783 -290.304)" fill="#fcfdfe"/>
        </g>
        <g id="Grupo_2420" data-name="Grupo 2420" transform="translate(100.921 0.351)">
          <path id="Caminho_1628" data-name="Caminho 1628" d="M214.908,372.324,201.06,271.539,173.95,244.81H114.9V243.9h59.419l.133.132,27.465,27.078.02.153L215.811,372.2Z" transform="translate(-114.905 -243.898)" fill="#fcfdfe"/>
        </g>
        <g id="Grupo_2421" data-name="Grupo 2421" transform="translate(124.284)">
          <path id="Caminho_1629" data-name="Caminho 1629" d="M127.324,333.7l-.848-.338,35.7-89.634,28.035,27.64-.073.26-13.87,48.929-.878-.249,13.8-48.669-26.672-26.3Z" transform="translate(-126.476 -243.725)" fill="#fcfdfe"/>
        </g>
        <g id="Grupo_2422" data-name="Grupo 2422" transform="translate(100.314 0.557)">
          <path id="Caminho_1630" data-name="Caminho 1630" d="M134.858,351.708,114.6,335.267l.225-.344L174.061,244l.764.5-59.008,90.579L135.433,351Z" transform="translate(-114.605 -244.001)" fill="#fcfdfe"/>
        </g>
      </g>
      <ellipse id="Elipse_592" data-name="Elipse 592" cx="2.946" cy="2.946" rx="2.946" ry="2.946" transform="translate(70.889 123.285)" fill="#fcfdfe"/>
      <ellipse id="Elipse_593" data-name="Elipse 593" cx="2.946" cy="2.946" rx="2.946" ry="2.946" transform="translate(35.445 123.285)" fill="#fcfdfe"/>
      <ellipse id="Elipse_594" data-name="Elipse 594" cx="2.946" cy="2.946" rx="2.946" ry="2.946" transform="translate(27.739 110.226)" fill="#fcfdfe"/>
      <ellipse id="Elipse_595" data-name="Elipse 595" cx="2.946" cy="2.946" rx="2.946" ry="2.946" transform="translate(60.872 107.104)" fill="#fcfdfe"/>
      <ellipse id="Elipse_596" data-name="Elipse 596" cx="2.946" cy="2.946" rx="2.946" ry="2.946" transform="translate(60.487 93.62)" fill="#fcfdfe"/>
      <ellipse id="Elipse_597" data-name="Elipse 597" cx="2.946" cy="2.946" rx="2.946" ry="2.946" transform="translate(11.558 90.923)" fill="#fcfdfe"/>
      <ellipse id="Elipse_598" data-name="Elipse 598" cx="2.946" cy="2.946" rx="2.946" ry="2.946" transform="translate(27.739 75.898)" fill="#fcfdfe"/>
      <path id="Caminho_1631" data-name="Caminho 1631" d="M101.665,289.688a2.946,2.946,0,1,1,2.946,2.946A2.945,2.945,0,0,1,101.665,289.688Z" transform="translate(-24.996 -197.746)" fill="#fcfdfe"/>
      <ellipse id="Elipse_599" data-name="Elipse 599" cx="2.946" cy="2.946" rx="2.946" ry="2.946" transform="translate(80.52 107.104)" fill="#fcfdfe"/>
      <ellipse id="Elipse_600" data-name="Elipse 600" cx="2.946" cy="2.946" rx="2.946" ry="2.946" transform="translate(82.832 161.041)" fill="#fcfdfe"/>
      <ellipse id="Elipse_601" data-name="Elipse 601" cx="2.946" cy="2.946" rx="2.946" ry="2.946" transform="translate(11.558 90.923)" fill="#fcfdfe"/>
      <ellipse id="Elipse_602" data-name="Elipse 602" cx="2.946" cy="2.946" rx="2.946" ry="2.946" transform="translate(0 127.908)" fill="#fcfdfe"/>
      <ellipse id="Elipse_603" data-name="Elipse 603" cx="2.946" cy="2.946" rx="2.946" ry="2.946" transform="translate(6.935 173.37)" fill="#fcfdfe"/>
      <ellipse id="Elipse_604" data-name="Elipse 604" cx="2.946" cy="2.946" rx="2.946" ry="2.946" transform="translate(27.739 110.226)" fill="#fcfdfe"/>
      <ellipse id="Elipse_605" data-name="Elipse 605" cx="2.946" cy="2.946" rx="2.946" ry="2.946" transform="translate(70.889 123.285)" fill="#fcfdfe"/>
      <ellipse id="Elipse_606" data-name="Elipse 606" cx="2.946" cy="2.946" rx="2.946" ry="2.946" transform="translate(70.889 175.681)" fill="#fcfdfe"/>
      <ellipse id="Elipse_607" data-name="Elipse 607" cx="2.946" cy="2.946" rx="2.946" ry="2.946" transform="translate(21.19 232.315)" fill="#fcfdfe"/>
      <ellipse id="Elipse_608" data-name="Elipse 608" cx="2.946" cy="2.946" rx="2.946" ry="2.946" transform="translate(6.935 173.37)" fill="#fcfdfe"/>
      <ellipse id="Elipse_609" data-name="Elipse 609" cx="2.946" cy="2.946" rx="2.946" ry="2.946" transform="translate(35.445 123.285)" fill="#fcfdfe"/>
      <ellipse id="Elipse_610" data-name="Elipse 610" cx="2.946" cy="2.946" rx="2.946" ry="2.946" transform="translate(100.455 238.479)" fill="#fcfdfe"/>
      <ellipse id="Elipse_611" data-name="Elipse 611" cx="2.946" cy="2.946" rx="2.946" ry="2.946" transform="translate(100.455 282.014)" fill="#fcfdfe"/>
      <ellipse id="Elipse_612" data-name="Elipse 612" cx="2.946" cy="2.946" rx="2.946" ry="2.946" transform="translate(70.889 277.776)" fill="#fcfdfe"/>
      <ellipse id="Elipse_613" data-name="Elipse 613" cx="2.946" cy="2.946" rx="2.946" ry="2.946" transform="translate(21.19 232.315)" fill="#fcfdfe"/>
      <ellipse id="Elipse_614" data-name="Elipse 614" cx="2.946" cy="2.946" rx="2.946" ry="2.946" transform="translate(100.455 238.479)" fill="#fcfdfe"/>
      <path id="Caminho_1632" data-name="Caminho 1632" d="M89.644,353.991a2.946,2.946,0,1,1,2.946,2.946A2.945,2.945,0,0,1,89.644,353.991Z" transform="translate(-37.247 -132.214)" fill="#fcfdfe"/>
      <ellipse id="Elipse_615" data-name="Elipse 615" cx="2.946" cy="2.946" rx="2.946" ry="2.946" transform="translate(100.455 207.658)" fill="#fcfdfe"/>
      <ellipse id="Elipse_616" data-name="Elipse 616" cx="2.946" cy="2.946" rx="2.946" ry="2.946" transform="translate(60.872 107.104)" fill="#fcfdfe"/>
      <ellipse id="Elipse_617" data-name="Elipse 617" cx="2.946" cy="2.946" rx="2.946" ry="2.946" transform="translate(60.487 93.62)" fill="#fcfdfe"/>
      <ellipse id="Elipse_618" data-name="Elipse 618" cx="2.946" cy="2.946" rx="2.946" ry="2.946" transform="translate(80.52 107.104)" fill="#fcfdfe"/>
      <ellipse id="Elipse_619" data-name="Elipse 619" cx="2.946" cy="2.946" rx="2.946" ry="2.946" transform="translate(70.889 123.285)" fill="#fcfdfe"/>
      <ellipse id="Elipse_620" data-name="Elipse 620" cx="2.946" cy="2.946" rx="2.946" ry="2.946" transform="translate(82.832 161.041)" fill="#fcfdfe"/>
      <ellipse id="Elipse_621" data-name="Elipse 621" cx="2.946" cy="2.946" rx="2.946" ry="2.946" transform="translate(70.889 175.681)" fill="#fcfdfe"/>
      <ellipse id="Elipse_622" data-name="Elipse 622" cx="2.946" cy="2.946" rx="2.946" ry="2.946" transform="translate(78.979 184.542)" fill="#fcfdfe"/>
      <ellipse id="Elipse_623" data-name="Elipse 623" cx="2.946" cy="2.946" rx="2.946" ry="2.946" transform="translate(100.455 188.01)" fill="#fcfdfe"/>
      <path id="Caminho_1633" data-name="Caminho 1633" d="M89.644,353.991a2.946,2.946,0,1,1,2.946,2.946A2.945,2.945,0,0,1,89.644,353.991Z" transform="translate(-37.247 -132.214)" fill="#fcfdfe"/>
      <ellipse id="Elipse_624" data-name="Elipse 624" cx="2.946" cy="2.946" rx="2.946" ry="2.946" transform="translate(70.889 175.681)" fill="#fcfdfe"/>
      <ellipse id="Elipse_625" data-name="Elipse 625" cx="2.946" cy="2.946" rx="2.946" ry="2.946" transform="translate(100.455 0.001)" fill="#fcfdfe"/>
      <ellipse id="Elipse_626" data-name="Elipse 626" cx="2.946" cy="2.946" rx="2.946" ry="2.946" transform="translate(41.224 0.001)" fill="#fcfdfe"/>
      <ellipse id="Elipse_627" data-name="Elipse 627" cx="2.946" cy="2.946" rx="2.946" ry="2.946" transform="translate(13.87 26.969)" fill="#fcfdfe"/>
      <ellipse id="Elipse_628" data-name="Elipse 628" cx="2.946" cy="2.946" rx="2.946" ry="2.946" transform="translate(0 127.908)" fill="#fcfdfe"/>
      <path id="Caminho_1634" data-name="Caminho 1634" d="M101.665,289.688a2.946,2.946,0,1,1,2.946,2.946A2.945,2.945,0,0,1,101.665,289.688Z" transform="translate(-24.996 -197.746)" fill="#fcfdfe"/>
      <ellipse id="Elipse_629" data-name="Elipse 629" cx="2.946" cy="2.946" rx="2.946" ry="2.946" transform="translate(41.224 0.001)" fill="#fcfdfe"/>
      <ellipse id="Elipse_630" data-name="Elipse 630" cx="2.946" cy="2.946" rx="2.946" ry="2.946" transform="translate(13.87 26.969)" fill="#fcfdfe"/>
      <ellipse id="Elipse_631" data-name="Elipse 631" cx="2.946" cy="2.946" rx="2.946" ry="2.946" transform="translate(27.739 75.898)" fill="#fcfdfe"/>
      <ellipse id="Elipse_632" data-name="Elipse 632" cx="2.946" cy="2.946" rx="2.946" ry="2.946" transform="translate(41.224 0.001)" fill="#fcfdfe"/>
      <ellipse id="Elipse_633" data-name="Elipse 633" cx="2.946" cy="2.946" rx="2.946" ry="2.946" transform="translate(100.455 90.923)" fill="#fcfdfe"/>
      <ellipse id="Elipse_634" data-name="Elipse 634" cx="2.946" cy="2.946" rx="2.946" ry="2.946" transform="translate(80.52 107.104)" fill="#fcfdfe"/>
      <path id="Caminho_1635" data-name="Caminho 1635" d="M128.089,306.67a2.946,2.946,0,1,1,2.946,2.946A2.947,2.947,0,0,1,128.089,306.67Z" transform="translate(1.933 -180.439)" fill="#fcfdfe"/>
      <ellipse id="Elipse_635" data-name="Elipse 635" cx="2.946" cy="2.946" rx="2.946" ry="2.946" transform="translate(165.466 123.285)" fill="#fcfdfe"/>
      <ellipse id="Elipse_636" data-name="Elipse 636" cx="2.946" cy="2.946" rx="2.946" ry="2.946" transform="translate(173.171 110.226)" fill="#fcfdfe"/>
      <ellipse id="Elipse_637" data-name="Elipse 637" cx="2.946" cy="2.946" rx="2.946" ry="2.946" transform="translate(140.038 107.104)" fill="#fcfdfe"/>
      <ellipse id="Elipse_638" data-name="Elipse 638" cx="2.946" cy="2.946" rx="2.946" ry="2.946" transform="translate(140.424 93.62)" fill="#fcfdfe"/>
      <path id="Caminho_1636" data-name="Caminho 1636" d="M157.474,290.642a2.946,2.946,0,1,1,2.946,2.946A2.947,2.947,0,0,1,157.474,290.642Z" transform="translate(31.879 -196.773)" fill="#fcfdfe"/>
      <ellipse id="Elipse_639" data-name="Elipse 639" cx="2.946" cy="2.946" rx="2.946" ry="2.946" transform="translate(173.171 75.898)" fill="#fcfdfe"/>
      <ellipse id="Elipse_640" data-name="Elipse 640" cx="2.946" cy="2.946" rx="2.946" ry="2.946" transform="translate(124.242 88.997)" fill="#fcfdfe"/>
      <ellipse id="Elipse_641" data-name="Elipse 641" cx="2.946" cy="2.946" rx="2.946" ry="2.946" transform="translate(120.39 107.104)" fill="#fcfdfe"/>
      <ellipse id="Elipse_642" data-name="Elipse 642" cx="2.946" cy="2.946" rx="2.946" ry="2.946" transform="translate(118.078 161.041)" fill="#fcfdfe"/>
      <path id="Caminho_1637" data-name="Caminho 1637" d="M157.474,290.642a2.946,2.946,0,1,1,2.946,2.946A2.947,2.947,0,0,1,157.474,290.642Z" transform="translate(31.879 -196.773)" fill="#fcfdfe"/>
      <ellipse id="Elipse_643" data-name="Elipse 643" cx="2.946" cy="2.946" rx="2.946" ry="2.946" transform="translate(200.91 127.908)" fill="#fcfdfe"/>
      <ellipse id="Elipse_644" data-name="Elipse 644" cx="2.946" cy="2.946" rx="2.946" ry="2.946" transform="translate(193.975 173.37)" fill="#fcfdfe"/>
      <ellipse id="Elipse_645" data-name="Elipse 645" cx="2.946" cy="2.946" rx="2.946" ry="2.946" transform="translate(173.171 110.226)" fill="#fcfdfe"/>
      <path id="Caminho_1638" data-name="Caminho 1638" d="M128.089,306.67a2.946,2.946,0,1,1,2.946,2.946A2.947,2.947,0,0,1,128.089,306.67Z" transform="translate(1.933 -180.439)" fill="#fcfdfe"/>
      <path id="Caminho_1639" data-name="Caminho 1639" d="M128.089,332.62a2.946,2.946,0,1,1,2.946,2.946A2.945,2.945,0,0,1,128.089,332.62Z" transform="translate(1.933 -153.993)" fill="#fcfdfe"/>
      <ellipse id="Elipse_646" data-name="Elipse 646" cx="2.946" cy="2.946" rx="2.946" ry="2.946" transform="translate(179.721 232.315)" fill="#fcfdfe"/>
      <ellipse id="Elipse_647" data-name="Elipse 647" cx="2.946" cy="2.946" rx="2.946" ry="2.946" transform="translate(193.975 173.37)" fill="#fcfdfe"/>
      <ellipse id="Elipse_648" data-name="Elipse 648" cx="2.946" cy="2.946" rx="2.946" ry="2.946" transform="translate(165.466 123.285)" fill="#fcfdfe"/>
      <ellipse id="Elipse_649" data-name="Elipse 649" cx="2.946" cy="2.946" rx="2.946" ry="2.946" transform="translate(100.455 238.479)" fill="#fcfdfe"/>
      <ellipse id="Elipse_650" data-name="Elipse 650" cx="2.946" cy="2.946" rx="2.946" ry="2.946" transform="translate(100.455 282.014)" fill="#fcfdfe"/>
      <path id="Caminho_1640" data-name="Caminho 1640" d="M128.089,383.185a2.946,2.946,0,1,1,2.946,2.946A2.945,2.945,0,0,1,128.089,383.185Z" transform="translate(1.933 -102.462)" fill="#fcfdfe"/>
      <ellipse id="Elipse_651" data-name="Elipse 651" cx="2.946" cy="2.946" rx="2.946" ry="2.946" transform="translate(179.721 232.315)" fill="#fcfdfe"/>
      <ellipse id="Elipse_652" data-name="Elipse 652" cx="2.946" cy="2.946" rx="2.946" ry="2.946" transform="translate(100.455 238.479)" fill="#fcfdfe"/>
      <path id="Caminho_1641" data-name="Caminho 1641" d="M137.248,353.991a2.946,2.946,0,1,1,2.946,2.946A2.945,2.945,0,0,1,137.248,353.991Z" transform="translate(11.267 -132.214)" fill="#fcfdfe"/>
      <ellipse id="Elipse_653" data-name="Elipse 653" cx="2.946" cy="2.946" rx="2.946" ry="2.946" transform="translate(100.455 207.658)" fill="#fcfdfe"/>
      <ellipse id="Elipse_654" data-name="Elipse 654" cx="2.946" cy="2.946" rx="2.946" ry="2.946" transform="translate(140.038 107.104)" fill="#fcfdfe"/>
      <ellipse id="Elipse_655" data-name="Elipse 655" cx="2.946" cy="2.946" rx="2.946" ry="2.946" transform="translate(140.424 93.62)" fill="#fcfdfe"/>
      <ellipse id="Elipse_656" data-name="Elipse 656" cx="2.946" cy="2.946" rx="2.946" ry="2.946" transform="translate(120.39 107.104)" fill="#fcfdfe"/>
      <path id="Caminho_1642" data-name="Caminho 1642" d="M128.089,306.67a2.946,2.946,0,1,1,2.946,2.946A2.947,2.947,0,0,1,128.089,306.67Z" transform="translate(1.933 -180.439)" fill="#fcfdfe"/>
      <ellipse id="Elipse_657" data-name="Elipse 657" cx="2.946" cy="2.946" rx="2.946" ry="2.946" transform="translate(118.078 161.041)" fill="#fcfdfe"/>
      <path id="Caminho_1643" data-name="Caminho 1643" d="M128.089,332.62a2.946,2.946,0,1,1,2.946,2.946A2.945,2.945,0,0,1,128.089,332.62Z" transform="translate(1.933 -153.993)" fill="#fcfdfe"/>
      <ellipse id="Elipse_658" data-name="Elipse 658" cx="2.946" cy="2.946" rx="2.946" ry="2.946" transform="translate(121.931 184.542)" fill="#fcfdfe"/>
      <ellipse id="Elipse_659" data-name="Elipse 659" cx="2.946" cy="2.946" rx="2.946" ry="2.946" transform="translate(100.455 188.01)" fill="#fcfdfe"/>
      <path id="Caminho_1644" data-name="Caminho 1644" d="M137.248,353.991a2.946,2.946,0,1,1,2.946,2.946A2.945,2.945,0,0,1,137.248,353.991Z" transform="translate(11.267 -132.214)" fill="#fcfdfe"/>
      <path id="Caminho_1645" data-name="Caminho 1645" d="M128.089,332.62a2.946,2.946,0,1,1,2.946,2.946A2.945,2.945,0,0,1,128.089,332.62Z" transform="translate(1.933 -153.993)" fill="#fcfdfe"/>
      <ellipse id="Elipse_660" data-name="Elipse 660" cx="2.946" cy="2.946" rx="2.946" ry="2.946" transform="translate(100.455 0.001)" fill="#fcfdfe"/>
      <path id="Caminho_1646" data-name="Caminho 1646" d="M142.781,245.611a2.946,2.946,0,1,1,2.946,2.948A2.945,2.945,0,0,1,142.781,245.611Z" transform="translate(16.905 -242.665)" fill="#fcfdfe"/>
      <ellipse id="Elipse_661" data-name="Elipse 661" cx="2.946" cy="2.946" rx="2.946" ry="2.946" transform="translate(187.041 26.969)" fill="#fcfdfe"/>
      <ellipse id="Elipse_662" data-name="Elipse 662" cx="2.946" cy="2.946" rx="2.946" ry="2.946" transform="translate(200.91 127.908)" fill="#fcfdfe"/>
      <ellipse id="Elipse_663" data-name="Elipse 663" cx="2.946" cy="2.946" rx="2.946" ry="2.946" transform="translate(124.242 88.997)" fill="#fcfdfe"/>
      <path id="Caminho_1647" data-name="Caminho 1647" d="M142.781,245.611a2.946,2.946,0,1,1,2.946,2.948A2.945,2.945,0,0,1,142.781,245.611Z" transform="translate(16.905 -242.665)" fill="#fcfdfe"/>
      <ellipse id="Elipse_664" data-name="Elipse 664" cx="2.946" cy="2.946" rx="2.946" ry="2.946" transform="translate(187.041 26.969)" fill="#fcfdfe"/>
      <ellipse id="Elipse_665" data-name="Elipse 665" cx="2.946" cy="2.946" rx="2.946" ry="2.946" transform="translate(173.171 75.898)" fill="#fcfdfe"/>
      <path id="Caminho_1648" data-name="Caminho 1648" d="M142.781,245.611a2.946,2.946,0,1,1,2.946,2.948A2.945,2.945,0,0,1,142.781,245.611Z" transform="translate(16.905 -242.665)" fill="#fcfdfe"/>
      <ellipse id="Elipse_666" data-name="Elipse 666" cx="2.946" cy="2.946" rx="2.946" ry="2.946" transform="translate(100.455 90.923)" fill="#fcfdfe"/>
      <ellipse id="Elipse_667" data-name="Elipse 667" cx="2.946" cy="2.946" rx="2.946" ry="2.946" transform="translate(120.39 107.104)" fill="#fcfdfe"/>
    </g>
  </g>
</svg>
