<svg id="Component_32_1" data-name="Component 32 – 1" xmlns="http://www.w3.org/2000/svg" xmlns:xlink="http://www.w3.org/1999/xlink" width="824.946" height="849.5" viewBox="0 0 824.946 849.5">
  <defs>
    <clipPath id="clip-path">
      <ellipse id="Ellipse_587" data-name="Ellipse 587" cx="412.473" cy="424.75" rx="412.473" ry="424.75" fill="none"/>
    </clipPath>
  </defs>
  <g id="Group_2487" data-name="Group 2487" opacity="0.05">
    <g id="Group_1839" data-name="Group 1839">
      <path id="Path_1588" data-name="Path 1588" d="M682.7,354.779c-90.04-8.566-161.708-82.373-170.026-175.087-4.644,48.682-27.994,101.552-67.453,130.228-43.829,31.859-167.464,40.986-227.143,44.859l.028.007h-.028c59.679,3.881,190.535,17.84,227.143,44.859,39.279,29,62.788,81.517,67.453,130.233,8.318-92.711,79.986-166.519,170.026-175.092h-.046Z" transform="translate(-60.865 -86.489)" fill="#0a4e5a"/>
      <g id="Group_1838" data-name="Group 1838">
        <g id="Group_1837" data-name="Group 1837" clip-path="url(#clip-path)">
          <g id="Group_1836" data-name="Group 1836" transform="translate(-80.122 401.953)">
            <path id="Path_1589" data-name="Path 1589" d="M185.008,309.54l3.1-9.676,1.6-4.81c.61-1.6,1.392-3.193,2.1-4.784l4.427-9.478q2.779-4.592,5.663-9.1c8.039-11.721,18.38-22.556,30.278-29.748a118.506,118.506,0,0,1,36.358-15.361c6.137-1.8,12.1-2.434,18.122-3.488,5.942-.675,11.864-1.2,17.69-1.473,23.269-.8,45.394,1.657,66.888,5.313,21.488,3.7,42.349,8.736,62.89,14.39,41.014,11.44,80.767,25.275,120.073,39.783s78.142,29.767,116.952,44.8,77.561,29.931,116.63,43.58c39.056,13.615,78.45,26.178,118.489,34.912,20.016,4.323,40.212,7.654,60.428,8.84l7.586.412,7.56-.007c5.066.141,10.054-.311,15.07-.621a69.391,69.391,0,0,0,7.455-.842c2.47-.363,4.962-.651,7.422-1.073l7.263-1.678c1.205-.3,2.447-.508,3.632-.879l3.51-1.182c18.933-5.794,35.719-18.357,45.458-36.322,9.789-17.909,13.637-39.193,14.151-60.283h3.791c.559,21.461-2.081,43.705-11.684,63.763-5.016,9.77-11.433,19.238-20.038,26.289a90.916,90.916,0,0,1-28.253,16.694l-3.813,1.515c-1.278.471-2.59.785-3.882,1.182l-7.815,2.247c-2.626.606-5.274,1.073-7.915,1.6a78.039,78.039,0,0,1-7.953,1.339c-5.31.627-10.644,1.395-15.961,1.55l-8,.437-7.966.007c-21.258-.073-42.307-2.393-63.1-5.7-41.6-6.717-82.253-17.3-122.45-28.89-40.2-11.624-79.943-24.469-119.544-37.373s-79.058-25.975-118.581-38.147c-39.5-12.181-79.109-23.548-118.74-32.3-19.8-4.3-39.615-7.916-59.206-10.19-19.558-2.262-39-3.179-57.185-1.523-4.5.466-8.913,1.13-13.242,1.84-4.14,1.034-8.534,1.655-12.3,3.112a66.371,66.371,0,0,0-20.483,9.9c-11.383,8.142-17.691,20.019-21.294,35.672Z" transform="translate(-185.008 -221.469)" fill="#0a4e5a"/>
            <path id="Path_1590" data-name="Path 1590" d="M192.292,381.233c7.513-23.035,20.89-45.591,39.126-62.617,18.359-16.946,40.262-27.625,61.677-34.16,21.559-6.413,42.981-8.986,63.918-9.962a482.312,482.312,0,0,1,61.761,1.641C459.3,279.624,498.639,286.7,537.6,294.463c38.911,7.931,77.378,16.858,115.725,25.638s76.588,17.442,114.971,24.626c38.358,7.051,76.934,12.963,115.517,14.078,19.254.5,38.523-.289,57.286-3.6,4.678-.865,9.378-1.7,13.93-3.009,2.282-.627,4.619-1.116,6.867-1.853l6.716-2.284a51.979,51.979,0,0,0,6.59-2.588l6.495-2.83,6.179-3.421,3.107-1.707,2.9-2.02,5.822-4.035,5.353-4.64c.883-.791,1.837-1.506,2.662-2.357l2.411-2.618c1.587-1.766,3.3-3.444,4.794-5.283,2.721-3.927,5.92-7.546,8.1-11.877,1.184-2.106,2.455-4.168,3.576-6.314l2.936-6.688c7.671-18.008,10.7-38.1,11.267-58.124h3.787c.528,20.353-1.361,41.209-8.452,60.831l-2.748,7.316c-1.068,2.373-2.3,4.679-3.458,7.019-2.126,4.812-5.34,8.973-8.118,13.425-1.536,2.112-3.287,4.064-4.93,6.11l-2.5,3.03c-.868.976-1.851,1.833-2.772,2.764l-5.646,5.453-6.144,4.828-3.092,2.4-3.286,2.069-6.6,4.146-6.895,3.5a59.584,59.584,0,0,1-7,3.229l-7.142,2.9c-2.388.938-4.844,1.6-7.27,2.425-4.844,1.684-9.776,2.875-14.713,4.079-19.794,4.686-39.93,6.659-59.947,7.309-40.1,1.152-79.812-2.63-119.14-7.523-39.33-5.035-78.322-11.536-117.153-18.084s-77.509-13.2-116.1-18.756c-38.563-5.4-77.147-10-115.138-11.043a439.882,439.882,0,0,0-56.059,1.732c-18.22,1.891-35.97,5.246-51.923,11.055-15.868,5.911-29.761,14.181-40.169,24.978-10.219,10.981-17.347,24.352-21.581,39.923Z" transform="translate(-140.016 -144.256)" fill="#0a4e5a"/>
            <path id="Path_1591" data-name="Path 1591" d="M204.243,508.94c5.913-21.122,15.681-42.013,29.446-59.907a163.137,163.137,0,0,1,49.549-43.017c18.53-10.526,37.937-17.526,57.206-22.455a373.071,373.071,0,0,1,57.644-9.547c38.16-3.445,75.648-2.793,112.711-.967,37.053,1.874,73.725,5.008,110.221,7.928s72.849,5.676,109.088,6.564c36.189.82,72.461.066,107.644-6.385,17.537-3.291,34.769-8.115,50.874-15.463,16.07-7.317,31.131-17.182,43.023-30.49a124.77,124.77,0,0,0,26.62-46.76c5.576-17.529,8.088-36.175,8.719-54.889h3.79c.472,19-.935,38.252-5.692,56.972a134.566,134.566,0,0,1-25.623,51.793c-12.135,15.32-27.988,27.16-44.876,36.141-16.942,9.006-35.021,15.274-53.286,19.886-36.652,9.088-74.014,12.135-111.026,13.606-37.069,1.4-73.977.881-110.688.236S546.337,410.7,510.1,411.12c-36.191.453-72.174,2.159-106.847,7.495-34.476,5.357-68.115,14.744-94.445,31.957-26.42,17.123-42.932,42.433-49.536,73.246Z" transform="translate(-66.198 -144.256)" fill="#0a4e5a"/>
            <path id="Path_1592" data-name="Path 1592" d="M223.285,604.151c3.674-18.831,9.8-37.781,19.27-55.259a167.775,167.775,0,0,1,36.437-46c14.412-12.9,30.537-22.674,46.886-30.332a296.116,296.116,0,0,1,49.741-17.712c33.351-8.774,66.522-13.068,99.322-16.333,32.811-3.21,65.308-5.136,97.544-7.65s64.238-5.455,95.631-10.967c31.311-5.556,62.253-13.567,90.34-27.751,28.076-13.952,52.5-35.607,67.856-63.928,15.591-28.238,21.776-61.553,23.06-94.662h3.789a276.271,276.271,0,0,1-2.971,50.579,184.689,184.689,0,0,1-14.617,49.029,160.441,160.441,0,0,1-28.881,42.627,183.557,183.557,0,0,1-40.133,31.832c-29.318,17.435-61.507,28.112-93.65,36.182-32.245,8.019-64.785,13.3-97.109,18.114s-64.518,9.008-96.134,14.36c-31.568,5.379-62.739,11.787-91.809,21.684-28.9,9.9-55.967,23.52-75.021,43.174-19.183,19.459-30.076,44.445-33.457,72.826Z" transform="translate(51.421 -144.256)" fill="#0a4e5a"/>
            <path id="Path_1593" data-name="Path 1593" d="M245.791,644.266a228.76,228.76,0,0,1,11.827-46.856,172.717,172.717,0,0,1,23.545-43.417,170.665,170.665,0,0,1,34.465-34.078,209.279,209.279,0,0,1,39.788-23.057c27.269-12.217,54.881-19.527,81.979-25.838,27.122-6.26,53.9-11.351,80.114-17.545,26.174-6.2,51.86-13.442,75.951-24.069,24.052-10.576,46.384-24.949,64.319-44.322,18.028-19.257,31.118-43.432,39.413-69.536,8.212-26.2,11.943-54.039,13.161-82h3.791c.977,28.217-.5,56.84-6.912,84.9-6.485,27.935-18.407,55.293-36.627,78.234-18.088,23.041-41.743,41.113-66.875,54.718-25.19,13.694-51.785,23.568-78.227,32.208-26.46,8.625-52.942,15.982-78.585,24.2-25.591,8.212-50.513,17.293-72.507,29.474-22.076,12.055-40.383,27.75-52.455,46.929-12.115,19.179-17.979,42.154-19.635,66.639Z" transform="translate(190.435 -144.256)" fill="#0a4e5a"/>
            <path id="Path_1594" data-name="Path 1594" d="M271.1,633.689c1.421-23.821,4.543-48.354,13.393-72.652,1.151-3.018,2.126-6.049,3.445-9.026l4.37-8.846c2.662-5.958,6.66-11.411,10.254-16.932,1.71-2.83,4.072-5.217,6.146-7.774,2.187-2.477,4.2-5.121,6.554-7.383,4.795-4.389,9.385-9.111,14.6-12.661,10.064-7.913,20.866-13.382,31.393-18.5,10.566-4.679,21.113-8.8,31.311-12.275,20.51-7.154,40.048-13.317,58.046-21.964,17.958-8.559,34.49-19.422,47.823-34.19a167.745,167.745,0,0,0,31.786-51.856c2.054-4.8,3.517-9.888,5.314-14.849.826-2.5,1.817-4.964,2.511-7.523l2.013-7.722c1.272-5.167,2.873-10.273,3.894-15.534l3-15.838c1.139-5.27,1.775-10.627,2.442-15.994l2.071-16.1c1-10.8,1.672-21.645,2.532-32.509h3.791c.252,10.937.68,21.911.781,32.911l-.439,16.509c-.125,5.514-.219,11.035-.822,16.532l-1.437,16.568c-.5,5.528-1.613,11-2.4,16.526l-1.287,8.286c-.463,2.754-1.219,5.462-1.827,8.2-1.359,5.444-2.381,11-4.05,16.406a190.534,190.534,0,0,1-29.807,61.793c-13.786,18.916-32.261,34.1-51.621,45.96-19.389,11.971-39.78,20.817-58.606,29.761-9.551,4.428-18.407,9.09-26.884,13.968-8.124,5.114-16.02,10.257-22.184,16.435-13.038,11.811-20.643,26.643-25.012,43.9-4.328,17.248-5.042,36.663-4.2,56.38Z" transform="translate(346.792 -144.256)" fill="#0a4e5a"/>
          </g>
        </g>
      </g>
    </g>
  </g>
</svg>
