<svg id="icones" xmlns="http://www.w3.org/2000/svg" viewBox="0 0 32 32"><g id="Group_735" data-name="Group 735"><path id="Path_862" data-name="Path 862" d="M5,8.83V30.12A.87.87,0,0,0,5.9,31H26.1a.87.87,0,0,0,.87-.88V1.88A.87.87,0,0,0,26.1,1H12.85a.88.88,0,0,0-.63.26l-6.94,7h0A.84.84,0,0,0,5,8.83ZM12,8H8l4-4ZM25.21,29.24H6.78V9.71h6.14a.87.87,0,0,0,.87-.88v-.9h8.82a.88.88,0,0,0,.88-.88.89.89,0,0,0-.88-.88H13.79V2.76H25.21Z" fill="#edf0f8"/><path id="Path_863" data-name="Path 863" d="M22.61,10.7H9.35a.87.87,0,0,0-.87.88.89.89,0,0,0,.87.88H22.61a.88.88,0,1,0,0-1.76Z" fill="#edf0f8"/><path id="Path_864" data-name="Path 864" d="M22.61,15.23H9.35a.88.88,0,1,0,0,1.75H22.61a.88.88,0,1,0,0-1.75Z" fill="#edf0f8"/><path id="Path_865" data-name="Path 865" d="M22.61,19.75H9.35a.88.88,0,0,0,0,1.76H22.61a.88.88,0,0,0,0-1.76Z" fill="#edf0f8"/><path id="Path_866" data-name="Path 866" d="M22.61,24.28H9.35a.88.88,0,0,0,0,1.76H22.61a.88.88,0,0,0,0-1.76Z" fill="#edf0f8"/></g></svg>