<svg id="icones" xmlns="http://www.w3.org/2000/svg" viewBox="0 0 30 30"><g id="Group_1405" data-name="Group 1405"><g id="Group_1404" data-name="Group 1404"><path id="Path_1528" data-name="Path 1528" d="M25.61,4.39a15,15,0,1,0,0,21.22A15,15,0,0,0,25.61,4.39Zm-1.25,20A13.24,13.24,0,0,1,5.54,5.74l.1-.1A13.24,13.24,0,0,1,24.46,24.26Z" fill="#edf0f8"/></g></g><g id="Group_1407" data-name="Group 1407"><g id="Group_1406" data-name="Group 1406"><path id="Path_1529" data-name="Path 1529" d="M18.71,11.29V6.12H11.29v5.17H6.12v7.42h5.17v5.17h7.42V18.71h5.17V11.29ZM22.12,17H17v5.17h-3.9V17H7.88v-3.9h5.17V7.88H17v5.17h5.17Z" fill="#edf0f8"/></g></g></svg>