<svg id="Componente_23_1" data-name="Componente 23 – 1" xmlns="http://www.w3.org/2000/svg" width="36.547" height="36.547" viewBox="0 0 36.547 36.547">
  <g id="Grupo_2395" data-name="Grupo 2395" transform="translate(9.479 13.175)">
    <circle id="Elipse_588" data-name="Elipse 588" cx="1.052" cy="1.052" r="1.052" transform="translate(0 0)" fill="#1766b1"/>
    <circle id="Elipse_589" data-name="Elipse 589" cx="1.052" cy="1.052" r="1.052" transform="translate(15.793 0)" fill="#1766b1"/>
  </g>
  <rect id="Retângulo_1887" data-name="Retângulo 1887" width="2.306" height="5.534" rx="1.153" transform="translate(17.118 15.906)" fill="#1766b1"/>
  <path id="Caminho_1594" data-name="Caminho 1594" d="M1133.631,261.434a1.072,1.072,0,0,1-1.072-1.072v-6.983a5.264,5.264,0,0,1,5.258-5.258h6.583a1.072,1.072,0,1,1,0,2.144h-6.583a3.117,3.117,0,0,0-3.114,3.113v6.983A1.072,1.072,0,0,1,1133.631,261.434Z" transform="translate(-1132.559 -248.121)" fill="#1766b1"/>
  <path id="Caminho_1595" data-name="Caminho 1595" d="M1253.161,261.034a1.072,1.072,0,0,1-1.072-1.072v-6.583a3.117,3.117,0,0,0-3.114-3.113h-6.983a1.072,1.072,0,1,1,0-2.144h6.983a5.263,5.263,0,0,1,5.258,5.258v6.583A1.072,1.072,0,0,1,1253.161,261.034Z" transform="translate(-1217.686 -248.121)" fill="#1766b1"/>
  <path id="Caminho_1596" data-name="Caminho 1596" d="M1250.439,369.794h-6.583a1.072,1.072,0,1,1,0-2.144h6.583a3.117,3.117,0,0,0,3.114-3.114v-6.983a1.072,1.072,0,0,1,2.144,0v6.983A5.264,5.264,0,0,1,1250.439,369.794Z" transform="translate(-1219.15 -333.247)" fill="#1766b1"/>
  <path id="Caminho_1597" data-name="Caminho 1597" d="M1144.8,371.259h-6.983a5.264,5.264,0,0,1-5.258-5.258v-6.583a1.072,1.072,0,1,1,2.144,0V366a3.117,3.117,0,0,0,3.114,3.114h6.983a1.072,1.072,0,1,1,0,2.144Z" transform="translate(-1132.559 -334.712)" fill="#1766b1"/>
  <path id="Caminho_1598" data-name="Caminho 1598" d="M1198.589,365.561a5.617,5.617,0,0,1-5.15-3.376,1.072,1.072,0,0,1,1.965-.857,3.472,3.472,0,0,0,6.368,0,1.072,1.072,0,0,1,1.965.857A5.617,5.617,0,0,1,1198.589,365.561Z" transform="translate(-1180.315 -336.549)" fill="#1766b1"/>
</svg>
