<svg xmlns="http://www.w3.org/2000/svg" width="27" height="27" viewBox="0 0 27 27">
  <g id="Group_2470" data-name="Group 2470" transform="translate(-26 -176)">
    <path id="Icon_material-insert-chart" data-name="Icon material-insert-chart" d="M28.5,4.5H7.5a3.009,3.009,0,0,0-3,3v21a3.009,3.009,0,0,0,3,3h21a3.009,3.009,0,0,0,3-3V7.5A3.009,3.009,0,0,0,28.5,4.5Z" transform="translate(21.5 171.5)" fill="#98adda"/>
    <g id="Icon_ionic-md-stopwatch" data-name="Icon ionic-md-stopwatch" transform="translate(27.3 178.516)">
      <path id="Path_1707" data-name="Path 1707" d="M16.313,17.616h1.925V12.375H16.313Z" transform="translate(-5.075 -4.35)" fill="#edf0f8"/>
      <g id="Group_2469" data-name="Group 2469" transform="translate(4.5 2.25)">
        <path id="Path_1708" data-name="Path 1708" d="M18.283,9.729l1.235-1.235L18.157,7.133,16.922,8.368a7.7,7.7,0,1,0,1.361,1.361ZM16.454,18.7a6.016,6.016,0,1,1,1.762-4.254A5.977,5.977,0,0,1,16.454,18.7Z" transform="translate(-4.5 -4.183)" fill="#edf0f8"/>
        <path id="Path_1709" data-name="Path 1709" d="M13.5,2.25h5.134V4.175H13.5Z" transform="translate(-8.366 -2.25)" fill="#edf0f8"/>
      </g>
    </g>
  </g>
</svg>
