<svg xmlns="http://www.w3.org/2000/svg" width="18" height="24" viewBox="0 0 18 24">
  <g id="survey" transform="translate(-64)">
    <g id="Grupo_2380" data-name="Grupo 2380" transform="translate(64)">
      <g id="Grupo_2379" data-name="Grupo 2379">
        <path id="Caminho_1584" data-name="Caminho 1584" d="M80,2H77.908A1.5,1.5,0,0,0,76.5,1H74.99A2.48,2.48,0,0,0,71.01,1H69.5a1.5,1.5,0,0,0-1.408,1H66a2,2,0,0,0-2,2V22a2,2,0,0,0,2,2H80a2,2,0,0,0,2-2V4A2,2,0,0,0,80,2ZM69,2.5a.5.5,0,0,1,.5-.5h1.777a.5.5,0,0,0,.432-.249,1.484,1.484,0,0,1,2.581,0A.5.5,0,0,0,74.723,2H76.5a.5.5,0,0,1,.5.5V3a1,1,0,0,1-1,1H70a1,1,0,0,1-1-1ZM81,22a1,1,0,0,1-1,1H66a1,1,0,0,1-1-1V4a1,1,0,0,1,1-1h2a2,2,0,0,0,2,2h6a2,2,0,0,0,2-2h2a1,1,0,0,1,1,1V22Z" transform="translate(-64)" fill="#fff"/>
        <path id="Caminho_1585" data-name="Caminho 1585" d="M130.5,170.667h-2a.5.5,0,0,0-.5.5v2a.5.5,0,0,0,.5.5h2a.5.5,0,0,0,.5-.5v-2A.5.5,0,0,0,130.5,170.667Zm-.5,2h-1v-1h1Z" transform="translate(-124.999 -162.667)" fill="#fff"/>
        <path id="Caminho_1586" data-name="Caminho 1586" d="M130.5,277.333h-2a.5.5,0,0,0-.5.5v2a.5.5,0,0,0,.5.5h2a.5.5,0,0,0,.5-.5v-2A.5.5,0,0,0,130.5,277.333Zm-.5,2h-1v-1h1Z" transform="translate(-124.999 -264.333)" fill="#fff"/>
        <path id="Caminho_1587" data-name="Caminho 1587" d="M130.5,384h-2a.5.5,0,0,0-.5.5v2a.5.5,0,0,0,.5.5h2a.5.5,0,0,0,.5-.5v-2A.5.5,0,0,0,130.5,384Zm-.5,2h-1v-1h1Z" transform="translate(-124.999 -366)" fill="#fff"/>
        <path id="Caminho_1588" data-name="Caminho 1588" d="M215.187,192.146a.5.5,0,0,0-.707,0l-.146.146-.146-.146a.5.5,0,0,0-.707.707l.146.146-.146.146a.5.5,0,1,0,.707.707l.146-.146.146.146a.5.5,0,0,0,.707-.707l-.146-.146.146-.146A.5.5,0,0,0,215.187,192.146Z" transform="translate(-206.334 -183)" fill="#fff"/>
        <path id="Caminho_1589" data-name="Caminho 1589" d="M279.187,192.146a.5.5,0,0,0-.707,0l-.146.146-.146-.146a.5.5,0,0,0-.707.707l.147.146-.147.146a.5.5,0,1,0,.707.707l.146-.146.146.146a.5.5,0,0,0,.707-.707l-.147-.146.147-.146A.5.5,0,0,0,279.187,192.146Z" transform="translate(-267.334 -183)" fill="#fff"/>
        <path id="Caminho_1590" data-name="Caminho 1590" d="M215.187,298.813a.5.5,0,0,0-.707,0l-.146.147-.146-.147a.5.5,0,0,0-.707.707l.146.146-.146.147a.5.5,0,1,0,.707.707l.146-.146.146.146a.5.5,0,1,0,.707-.707l-.147-.147.146-.146A.5.5,0,0,0,215.187,298.813Z" transform="translate(-206.334 -284.667)" fill="#fff"/>
        <path id="Caminho_1591" data-name="Caminho 1591" d="M279.187,298.813a.5.5,0,0,0-.707,0l-.146.147-.146-.147a.5.5,0,0,0-.707.707l.147.146-.147.147a.5.5,0,1,0,.707.707l.146-.146.146.146a.5.5,0,1,0,.707-.707l-.147-.147.146-.146A.5.5,0,0,0,279.187,298.813Z" transform="translate(-267.334 -284.667)" fill="#fff"/>
        <path id="Caminho_1592" data-name="Caminho 1592" d="M215.187,405.479a.5.5,0,0,0-.707,0l-.146.146-.146-.146a.5.5,0,0,0-.707.707l.146.147-.146.146a.5.5,0,1,0,.707.707l.146-.146.146.146a.5.5,0,1,0,.707-.707l-.146-.146.146-.147A.5.5,0,0,0,215.187,405.479Z" transform="translate(-206.334 -386.333)" fill="#fff"/>
        <path id="Caminho_1593" data-name="Caminho 1593" d="M343.187,192.146a.5.5,0,0,0-.707,0l-.146.146-.146-.146a.5.5,0,0,0-.707.707l.147.146-.147.146a.5.5,0,1,0,.707.707l.146-.146.146.146a.5.5,0,0,0,.707-.707l-.147-.146.147-.146A.5.5,0,0,0,343.187,192.146Z" transform="translate(-328.334 -183)" fill="#fff"/>
      </g>
    </g>
  </g>
</svg>
