<svg xmlns="http://www.w3.org/2000/svg" xmlns:xlink="http://www.w3.org/1999/xlink" width="300.443" height="203.386" viewBox="0 0 300.443 203.386"><defs><clipPath id="a"><path d="M349.558,430.911l-7.66-.051a6.474,6.474,0,0,1-4.312,2.295c-2.843.3-5.141,1.8-5.365,3.815h18.531A31.441,31.441,0,0,0,349.558,430.911Z" transform="translate(-332.221 -430.86)"/></clipPath><clipPath id="b"><path d="M377.139,430.911l7.66-.051a6.471,6.471,0,0,0,4.312,2.295c2.843.3,5.141,1.8,5.365,3.815H375.945A31.441,31.441,0,0,1,377.139,430.911Z" transform="translate(-375.945 -430.86)"/></clipPath></defs><g transform="translate(-66.698 -42.872)"><g transform="translate(66.698 42.872)"><path d="M361.374,231s25.031-29.85-4.172-55.7c0,0,26.224-29.221,9.536-62.375s-48.871-30.344-74.5-23.6-59,3.371-84.631-23.04-55.427-20.792-66.751-8.429-14.3,37.65-1.788,62.937,5.364,41.583-5.364,53.946S121.786,221.509,147.414,231Z" transform="translate(-96.875 -45.21)" fill="#d2eaf9" fill-rule="evenodd"/><g transform="translate(39.107 25.176)"><g transform="translate(136.396 118.837)"><path d="M471.284,375.3c9.917-16.282,12.858-30.744,4.1-39.011-9.732-9.184-32.128,4.728-54.472,39.011Z" transform="translate(-420.91 -333.529)" fill="#b3cee8" fill-rule="evenodd"/><path d="M446,381.573q1.428-1.826,2.832-3.527a148.138,148.138,0,0,1,17.785,3.527h3.531a146.731,146.731,0,0,0-20.594-4.394c3.519-4.216,6.9-7.867,10.061-11.006,2.413.081,13.343.6,22.067,3.566a.477.477,0,0,0,.308-.9c-8.019-2.727-17.848-3.415-21.44-3.581q1.967-1.918,3.808-3.572a73.953,73.953,0,0,1,18.631.959.478.478,0,1,0,.163-.942,77.915,77.915,0,0,0-17.617-1.066c9.923-8.731,16.564-11.775,16.619-11.8a.716.716,0,1,0-.616-1.293,54.8,54.8,0,0,0-7.809,4.779,43.019,43.019,0,0,1,3.129-5.53.477.477,0,1,0-.648-.7c-.743.687-3.3,5.714-4.169,7.451-1.957,1.446-4.161,3.187-6.573,5.272l2.782-10.123a.477.477,0,0,0-.919-.253l-3.167,11.518q-2.47,2.2-5.184,4.863l2.8-11.9a.477.477,0,1,0-.928-.221l-3.157,13.4c-2.689,2.718-5.522,5.786-8.458,9.255l2.057-12.16a.478.478,0,0,0-.942-.163l-2.331,13.781q-1.885,2.275-3.814,4.762Zm-1.986,0h-.966l1.6-10.744a.478.478,0,0,1,.946.143Z" transform="translate(-432.077 -339.801)" fill="#d2eaf9" fill-rule="evenodd"/></g><g transform="translate(46.346)"><path d="M294.627,193.292c-2.789-7.514-9.337-20.5-24.327-35.573-23.712-23.841-39.265-51.414-26.625-62.191,12.4-10.576,47.038,24.7,65.263,95.565A76.8,76.8,0,0,1,294.627,193.292Z" transform="translate(-239.166 -93.683)" fill="#aed0ee" fill-rule="evenodd"/><path d="M307.693,193.913a17.673,17.673,0,0,0-5.706-.643.366.366,0,1,1-.029-.732,19.114,19.114,0,0,1,5.5.549q-.516-1.769-1.043-3.493c-1.227-.34-5.188-1.429-6.7-1.725a.366.366,0,1,1,.14-.719c1.392.272,4.754,1.185,6.31,1.614q-1-3.22-2.028-6.281a85.082,85.082,0,0,0-9.169-1.6.367.367,0,0,1,.083-.729,86.164,86.164,0,0,1,8.814,1.514q-1.048-3.084-2.13-6.011a120.913,120.913,0,0,0-13.094-2.29.367.367,0,0,1,.083-.728,122.283,122.283,0,0,1,12.7,2.192q-1.43-3.837-2.9-7.411c-1.7-.508-8.746-2.49-14.509-2.132a.367.367,0,1,1-.048-.732c5.37-.334,11.81,1.314,14.2,2q-1.823-4.376-3.7-8.366c-2.368-.46-11.944-2.13-17.13-.132a.367.367,0,0,1-.262-.685c5.032-1.938,13.927-.567,17,0q-1.995-4.215-4.021-8.018a76.219,76.219,0,0,0-16.93,1.546.366.366,0,1,1-.159-.714,76.852,76.852,0,0,1,16.7-1.573q-1.2-2.239-2.408-4.337a82.472,82.472,0,0,0-19.389,1.865.367.367,0,0,1-.148-.718,85.131,85.131,0,0,1,19.1-1.9q-2.871-4.945-5.708-9.132c-2.237.159-13.582,1.048-19.963,3.149a.366.366,0,0,1-.229-.7c6.129-2.019,16.707-2.928,19.713-3.154q-1.654-2.422-3.274-4.6a107.848,107.848,0,0,0-19.216,3.357.366.366,0,0,1-.2-.7,108.423,108.423,0,0,1,18.9-3.345c-2.533-3.365-4.98-6.292-7.28-8.818-1.852-.031-10.243-.056-17.039,1.878a.366.366,0,1,1-.2-.7c6.248-1.779,13.8-1.925,16.56-1.914q-1.433-1.545-2.778-2.883a56.663,56.663,0,0,0-14.308.014.367.367,0,0,1-.088-.728,59.706,59.706,0,0,1,13.534-.135c-7.263-7.071-12.232-9.66-12.272-9.682a.55.55,0,1,1,.522-.967,42.179,42.179,0,0,1,5.8,3.962,33,33,0,0,0-2.183-4.356.366.366,0,1,1,.524-.511,46.3,46.3,0,0,1,2.9,5.868c1.443,1.183,3.064,2.6,4.83,4.292l-1.74-7.86a.366.366,0,1,1,.714-.159l1.98,8.945q1.807,1.778,3.782,3.924l-1.687-9.222a.366.366,0,0,1,.72-.134l1.9,10.387c1.955,2.186,4.006,4.646,6.121,7.416l-1.105-9.393a.367.367,0,0,1,.728-.088l1.253,10.645q1.44,1.929,2.909,4.042l-.822-8.42a.367.367,0,1,1,.73-.073l.951,9.745q2.7,3.989,5.465,8.653l-.183-8.065a.366.366,0,1,1,.732-.017l.213,9.386q1.083,1.877,2.165,3.869l.286-6.051a.366.366,0,0,1,.731.034l-.343,7.265q2,3.742,3.976,7.881l.533-6.691a.366.366,0,0,1,.73.059l-.633,7.954q1.717,3.668,3.4,7.655l.732-5.879a.367.367,0,1,1,.728.09l-.891,7.153q1.453,3.516,2.866,7.279l1.268-5.151a.366.366,0,0,1,.712.173l-1.525,6.2q1.014,2.746,2,5.628l1.663-4.244a.366.366,0,0,1,.682.267l-1.98,5.054q.9,2.672,1.776,5.456l1.234-2.7a.367.367,0,0,1,.667.305l-1.574,3.447q.647,2.1,1.277,4.257l1.764-2.027a.366.366,0,0,1,.551.481l-2.073,2.382q.511,1.77,1.011,3.583-.551.1-1.089.192Q308.182,195.607,307.693,193.913Z" transform="translate(-245.328 -98.608)" fill="#fff" fill-rule="evenodd"/></g><path d="M262.858,348.82q-.25-1.136-.519-2.25a92.846,92.846,0,0,0-13.549-31.314,74.749,74.749,0,0,0-23.1-21.76,85.056,85.056,0,0,0-26.564-10.246,111.569,111.569,0,0,0-31.106-1.865c-3.54.264-7.088.68-10.624,1.238-3.578.564-7.128,1.274-10.629,2.117v0a1.484,1.484,0,0,0-1.1,1.783l.03.1c.349,1.361,7.941,30.518,26.356,55.148,1.8,2.4,3.7,4.764,5.7,7.053h2.059c-2.315-2.572-4.492-5.243-6.532-7.973q-2.01-2.687-3.845-5.435c4.751-3.4,36.54-18.491,40.135-20.194,5.277,3.529,10.643,7.464,15.993,11.843L181.258,348.82h3.219l42.292-20.768c4.169,3.467,8.323,7.208,12.413,11.239-2.976,1.525-10.96,5.427-19.4,9.528h3.235c7.843-3.815,14.86-7.252,17.224-8.48q4.04,4.045,7.975,8.48H250.1q-4.409-5.045-8.972-9.591c.463-2.561,3.089-17.8,2.154-28.689q2.219,2.652,4.247,5.584a80.138,80.138,0,0,1,4.636,7.6.708.708,0,0,0-.38.682,135.214,135.214,0,0,1-.516,24.417h1.424a138.663,138.663,0,0,0,.618-22.889,94.966,94.966,0,0,1,6.225,16.043.707.707,0,0,0-.517.708c0,.017.1,2.7.081,6.138h1.415c.007-1.225,0-2.354-.013-3.3q.178.7.349,1.406.225.939.439,1.895Zm-115.467-61.8a156.04,156.04,0,0,1,20.049,6.36c-3.761,1.262-12.282,4.19-16.029,6.031-2.239-6.1-3.536-10.615-4.02-12.391Zm4.516,13.726.016-.007c4.324-2.158,15.865-5.985,17.586-6.552,5.354,2.122,11.425,4.789,17.946,8.1l-29.545,12.653c-2.442-5.164-4.432-10.007-6-14.191Zm6.613,15.47,30.571-13.093A214.585,214.585,0,0,1,208.2,314.306c-6.023,2.859-34.813,16.587-39.54,19.929a159.09,159.09,0,0,1-10.137-18.021Zm83.5-7.144a.709.709,0,0,0-.245.616c1.077,9.823-1.124,23.97-1.871,28.329-4.031-3.957-8.124-7.635-12.232-11.05,4.314-14.275,3.648-25.283,3.388-28.009a72.717,72.717,0,0,1,10.96,10.114Zm-12.306-11.1a.707.707,0,0,0-.132.51c0,.035,1.59,11.6-3.1,27.506-5.365-4.393-10.748-8.341-16.042-11.884,1.88-6.779,2.255-23.021,2.3-25.242A78.737,78.737,0,0,1,224.9,294.81q2.459,1.482,4.813,3.161Zm-18.334-9.626a.71.71,0,0,0-.046.241c0,.052-.273,17.337-2.136,24.689a216.122,216.122,0,0,0-19.347-11.349,79.969,79.969,0,0,0-.762-18.708q4.916.534,9.724,1.536a89.528,89.528,0,0,1,12.567,3.591Zm-23.727-5.274a.706.706,0,0,0,.007.188,79.361,79.361,0,0,1,.834,17.969c-6.639-3.387-12.825-6.114-18.281-8.282a51.214,51.214,0,0,0-1.3-10.084,115.33,115.33,0,0,1,18.734.21Zm-20.156-.105a.852.852,0,0,0,.017.109,50.5,50.5,0,0,1,1.274,9.307,166.257,166.257,0,0,0-20.116-6.517q4.437-1.013,8.961-1.73Q162.513,283.367,167.493,282.966Z" transform="translate(-145.627 -188.211)" fill="#a8cded" fill-rule="evenodd"/><g transform="translate(46.04 60.483)"><path d="M293.046,271.039c-3.72-4.406-10.676-10.934-22.5-16.613-20.071-9.637-36.107-24.18-31.057-35.22,4.865-10.636,33.312,3.041,60.9,44.786l-7.315,7.02Z" transform="translate(-238.548 -215.754)" fill="#bad9f2" fill-rule="evenodd"/><path d="M250.265,226.634a.756.756,0,0,1,.465-1.438,53.749,53.749,0,0,1,6.2,2.546l-2.7-3.4a.5.5,0,0,1,.788-.625l4.008,5.051c1.767.894,3.758,1.977,5.92,3.276l-2.515-4.577a.5.5,0,0,1,.883-.487l3.37,6.135c2.23,1.4,4.609,3.019,7.089,4.88l-2.034-4.055a.5.5,0,1,1,.9-.453l2.971,5.92c2.569,2.016,5.224,4.284,7.908,6.836l-1.513-4.079a.5.5,0,1,1,.941-.352l2.248,6.062c2.491,2.47,5,5.183,7.471,8.161l-.341-2.557a.5.5,0,1,1,1-.133l.558,4.177c1.859,2.312,3.7,4.773,5.491,7.4l-.241-2.567a.5.5,0,1,1,1-.094l.414,4.416q1.295,1.967,2.555,4.049l-1.119,1.074q-1.255-2.091-2.549-4.064c-1.211-.3-4.135-.956-5.531-.706a.5.5,0,0,1-.18-.991,15.714,15.714,0,0,1,4.9.479q-1.032-1.533-2.08-2.995a21.353,21.353,0,0,0-6.521-.039.5.5,0,0,1-.209-.987,20.443,20.443,0,0,1,5.923-.089q-2.182-2.968-4.418-5.634c-1.809.155-7.553.709-10.056,1.714a.5.5,0,1,1-.377-.933c2.351-.944,7.3-1.5,9.64-1.72q-2.4-2.818-4.826-5.309a46.045,46.045,0,0,0-11.95,2.207.5.5,0,0,1-.357-.943,45.221,45.221,0,0,1,11.385-2.209q-1.2-1.214-2.4-2.349a48.853,48.853,0,0,0-14.436,2.3.5.5,0,1,1-.321-.955,49.869,49.869,0,0,1,13.7-2.336,108.156,108.156,0,0,0-8.529-7.107c-2.192.556-10.712,2.779-14.753,4.75a.5.5,0,1,1-.441-.9c3.741-1.825,11.137-3.837,14.15-4.619-2.065-1.508-4.052-2.841-5.929-4.019-2.048.739-9.612,3.477-11.409,4.25a.5.5,0,0,1-.4-.924c1.647-.708,7.984-3.013,10.716-4-2.466-1.5-4.721-2.729-6.675-3.707-1.888.819-6.434,2.8-7.532,3.372a.5.5,0,0,1-.465-.894c.978-.507,4.65-2.118,6.81-3.059A54.45,54.45,0,0,0,250.265,226.634Z" transform="translate(-244.196 -219.676)" fill="#d7e8f7" fill-rule="evenodd"/></g><g transform="translate(123.24 27.718)"><path d="M405.406,231.111c2.117-6.408,6.82-16.532,17.183-27.859,17.587-19.224,28.653-42.013,18.351-51.8-9.924-9.425-34.843,17.84-46.582,75.209l11.006,4.431Z" transform="translate(-394.358 -149.625)" fill="#bad9f2" fill-rule="evenodd"/><path d="M440.885,163.931a.885.885,0,0,0-1.133-1.359,62.934,62.934,0,0,0-5.62,5.47l1.445-4.867a.589.589,0,0,0-1.129-.335l-2.148,7.233c-1.529,1.742-3.218,3.787-5,6.141l.732-6.069a.59.59,0,0,0-1.171-.143l-.982,8.133c-1.809,2.5-3.688,5.29-5.568,8.392l.44-5.29a.589.589,0,0,0-1.174-.1l-.642,7.723c-1.91,3.31-3.8,6.932-5.6,10.875l-.137-5.09a.588.588,0,1,0-1.176.029l.2,7.563c-1.627,3.77-3.164,7.809-4.551,12.123l-.745-2.926a.589.589,0,1,0-1.142.292L407,216.506c-1.009,3.321-1.93,6.8-2.733,10.432l-.859-2.894a.59.59,0,0,0-1.13.336l1.477,4.975q-.547,2.7-1.006,5.512l1.684.678q.451-2.819.993-5.525c1.185-.853,4.073-2.842,5.7-3.181a.589.589,0,1,0-.236-1.155,18.366,18.366,0,0,0-5.111,2.658q.451-2.113.951-4.16a25.006,25.006,0,0,1,7.063-2.888.59.59,0,1,0-.2-1.162,23.93,23.93,0,0,0-6.47,2.488c.716-2.784,1.5-5.464,2.338-8.046,2.032-.621,8.511-2.526,11.667-2.527a.589.589,0,0,0,0-1.179c-2.963,0-8.583,1.558-11.217,2.34q1.38-4.109,2.923-7.872c1.993-.663,8.57-2.718,13.938-2.819a.589.589,0,0,0-.023-1.178,52.863,52.863,0,0,0-13.325,2.57q.776-1.844,1.582-3.6a57.165,57.165,0,0,1,16.679-3.8.589.589,0,1,0-.068-1.177,58.308,58.308,0,0,0-15.895,3.444,126.324,126.324,0,0,1,6.158-11.439c2.624-.353,12.844-1.658,18.093-1.281a.589.589,0,1,0,.085-1.175c-4.86-.35-13.767.694-17.381,1.16,1.585-2.538,3.161-4.853,4.685-6.951,2.546-.092,11.953-.42,14.242-.365a.588.588,0,1,0,.03-1.176c-2.1-.051-9.983.212-13.381.331,2.022-2.709,3.935-5.023,5.63-6.939,2.408.065,8.21.234,9.65.375a.59.59,0,0,0,.114-1.174c-1.282-.124-5.973-.271-8.729-.349A63.6,63.6,0,0,1,440.885,163.931Z" transform="translate(-398.343 -156.054)" fill="#d7e8f7" fill-rule="evenodd"/></g><g transform="translate(107.369 74.517)"><path d="M373.818,330.141c5.119-6.852,14.84-17.132,31.848-26.583,28.865-16.04,51.321-38.986,42.87-54.884-8.142-15.318-49.05,7.441-86.21,71.683l11.449,9.747Z" transform="translate(-362.326 -244.08)" fill="#bad9f2" fill-rule="evenodd"/><path d="M445.92,260.449a1.121,1.121,0,0,0-.816-2.088,79.771,79.771,0,0,0-8.953,4.317l3.692-5.268a.746.746,0,0,0-1.222-.857l-5.488,7.832c-2.538,1.48-5.388,3.259-8.475,5.372l3.319-7a.748.748,0,0,0-1.351-.642l-4.448,9.381c-3.177,2.273-6.558,4.876-10.064,7.85l2.654-6.182a.746.746,0,1,0-1.371-.591l-3.876,9.026c-3.624,3.211-7.355,6.8-11.1,10.82l1.88-6.173a.746.746,0,0,0-1.426-.438l-2.793,9.174c-3.469,3.878-6.939,8.115-10.34,12.742l.28-3.815a.747.747,0,1,0-1.49-.109l-.458,6.233c-2.548,3.587-5.05,7.394-7.476,11.44l.13-3.823a.747.747,0,0,0-1.494-.05l-.223,6.574q-1.743,3.026-3.424,6.221l1.752,1.491q1.673-3.208,3.414-6.242c1.766-.549,6.037-1.78,8.126-1.533a.747.747,0,1,0,.179-1.483c-1.846-.218-5.027.53-7.211,1.142q1.391-2.36,2.814-4.618a31.684,31.684,0,0,1,9.651-.634.748.748,0,0,0,.222-1.479,30.346,30.346,0,0,0-8.778.391q2.969-4.587,6.043-8.731c2.69.069,11.244.383,15.039,1.65a.747.747,0,1,0,.475-1.416c-3.562-1.19-10.943-1.576-14.423-1.695q3.311-4.384,6.677-8.287c2.663,0,11.393.177,17.887,2.212a.747.747,0,1,0,.445-1.426c-5.847-1.833-13.423-2.2-17.049-2.265q1.674-1.9,3.348-3.689a72.422,72.422,0,0,1,21.576,2.131.747.747,0,0,0,.39-1.442,73.969,73.969,0,0,0-20.489-2.247,160.144,160.144,0,0,1,12-11.275c3.3.63,16.1,3.168,22.262,5.731a.747.747,0,1,0,.574-1.379c-5.7-2.372-16.827-4.7-21.357-5.589,2.924-2.414,5.748-4.563,8.423-6.472,3.1.913,14.537,4.3,17.265,5.284a.746.746,0,0,0,.51-1.4c-2.5-.9-12.086-3.757-16.217-4.979,3.518-2.444,6.747-4.457,9.555-6.078,2.868,1.046,9.773,3.58,11.449,4.327a.747.747,0,1,0,.608-1.365c-1.491-.664-7.069-2.726-10.351-3.928A80.843,80.843,0,0,1,445.92,260.449Z" transform="translate(-366.996 -250.212)" fill="#d7e8f7" fill-rule="evenodd"/></g></g><path d="M588.008,393.682s26.749-16.094,20.261-43.886c0,0-.19-.711.432-.826s13.912,21.264-4.658,40.834Z" transform="translate(-329.713 -197.306)" fill="#d2eaf9" fill-rule="evenodd"/><path d="M134.253,381.081s-28.1-18.621-21.287-50.781c0,0,.2-.823-.453-.956s-14.617,24.6,4.894,47.25Z" transform="translate(-87.064 -187.405)" fill="#d2eaf9" fill-rule="evenodd"/><path d="M89.411,417.836H368.6a3.339,3.339,0,0,1,3.329,3.329h0a3.339,3.339,0,0,1-3.329,3.33H357.364a1.856,1.856,0,0,0-1.85,1.85h0a1.855,1.855,0,0,0,1.85,1.85h4.11a2.319,2.319,0,0,1,2.312,2.312h0a2.319,2.319,0,0,1-2.312,2.312H96.9a2.319,2.319,0,0,1-2.312-2.312h0a2.319,2.319,0,0,1,2.312-2.312h3.237a1.855,1.855,0,0,0,1.85-1.85h0a1.855,1.855,0,0,0-1.85-1.85H89.411a3.34,3.34,0,0,1-3.33-3.33h0a3.34,3.34,0,0,1,3.33-3.329Zm1.734,14.984a2.226,2.226,0,0,0,2.22-2.22v-.185a2.226,2.226,0,0,0-2.22-2.22h0a2.226,2.226,0,0,0-2.22,2.22v.185a2.226,2.226,0,0,0,2.22,2.22Z" transform="translate(-76.477 -232.051)" fill="#3493d1" fill-rule="evenodd"/><g transform="translate(23.802 109.125)"><g transform="translate(13.296)"><path d="M153.055,265.665c-6.961-7.088-12.14,1.916-11.417,10.953.686,8.568,8.072,37.968,6.7,50.336h2.828C158.087,311.093,161.966,274.738,153.055,265.665Z" transform="translate(-141.571 -263.115)" fill="#3493d1" fill-rule="evenodd"/><path d="M156.187,330.887c6.734-25-1.791-59.552-1.819-59.67a.4.4,0,0,0-.777.188c.029.117,8.564,34.711,1.778,59.482Z" transform="translate(-147.63 -267.049)" fill="#80bee8" fill-rule="evenodd"/></g><g transform="translate(0 17.191)"><path d="M122.343,298.79c-7.335-3.887-9.185,4.593-6.325,11.609,2.369,5.814,12.84,23.011,16.8,34.06h3.729C136.862,329.189,131,303.377,122.343,298.79Z" transform="translate(-114.736 -297.811)" fill="#80bee8" fill-rule="evenodd"/><path d="M138.865,347.825c-2.426-20.652-16.16-43.1-16.21-43.181a.334.334,0,1,0-.571.347c.049.081,13.7,22.384,16.119,42.834Z" transform="translate(-118.419 -301.177)" fill="#3493d1" fill-rule="evenodd"/></g><g transform="translate(22.743 27.282)"><path d="M176.5,318.867c7.11-3.106,8.236,4.927,5.078,11.263-2.137,4.287-9.839,15.266-15.026,24.6h-5.919C162.662,340.606,169.156,322.077,176.5,318.867Z" transform="translate(-160.638 -318.178)" fill="#fff" fill-rule="evenodd"/><path d="M164.9,357.906c5.047-17.116,16.672-33.247,16.719-33.311a.312.312,0,0,1,.508.363c-.046.065-11.548,16.027-16.584,32.949Z" transform="translate(-162.79 -321.349)" fill="#d2eaf9" fill-rule="evenodd"/></g><g transform="translate(12.501 58.188)"><rect width="23.095" height="7.408" rx="2.286" fill="#151f42"/><path d="M145.826,389H159.51l3.573,3.224-2.919,11.243H145.172l-2.919-11.243Z" transform="translate(-141.12 -384.814)" fill="#151f42" fill-rule="evenodd"/><path d="M163.083,395.5l-.6,2.311h-19.63l-.6-2.311Z" transform="translate(-141.12 -388.097)" fill="#01051a" fill-rule="evenodd"/></g></g><g transform="translate(252.738 161.708)"><path d="M601.367,395.606a3.722,3.722,0,1,1-2.633,1.09,3.711,3.711,0,0,1,2.633-1.09Zm1.6,2.118a2.269,2.269,0,1,0,.665,1.605A2.261,2.261,0,0,0,602.972,397.724Z" transform="translate(-587.312 -382.543)" fill="#f7b63a" fill-rule="evenodd"/><path d="M587.247,405.166h0a5.857,5.857,0,0,0,5.84-5.84V393.24a.517.517,0,0,0-.517-.516H581.925a.517.517,0,0,0-.517.516v6.086A5.856,5.856,0,0,0,587.247,405.166Z" transform="translate(-579.12 -381.089)" fill="#fac74c" fill-rule="evenodd"/><path d="M594.023,398.6a5.79,5.79,0,0,1-.67,2.709,5.9,5.9,0,0,1-2.937,2.684,5.812,5.812,0,0,1-3.189.367,5.805,5.805,0,0,0,6.461-.367,5.907,5.907,0,0,0,1.571-1.783,5.809,5.809,0,0,0,.764-2.881V393.24a.517.517,0,0,0-.517-.516h-1.482V398.6Z" transform="translate(-582.056 -381.089)" fill="#f7b63a" fill-rule="evenodd"/><path d="M582.187,416.25h10.122a.781.781,0,0,0,.778-.779h0a.781.781,0,0,0-.778-.779H582.187a.781.781,0,0,0-.779.779h0A.781.781,0,0,0,582.187,416.25Z" transform="translate(-579.12 -392.173)" fill="#fac74c" fill-rule="evenodd"/><path d="M.983,0h0a.984.984,0,0,1,.984.984V4.506a.984.984,0,0,1-.984.984h0A.984.984,0,0,1,0,4.506V.983A.983.983,0,0,1,.983,0Z" transform="translate(3.174 12.744)" fill="#fad996"/><path d="M579.93,373.676h4.453a.615.615,0,0,0,.613-.613h0a.615.615,0,0,0-.613-.613h-5.989a1.608,1.608,0,0,1-1.6-1.6h0a1.607,1.607,0,0,1,1.6-1.6h15.573a1.608,1.608,0,0,1,1.6,1.6h0a1.608,1.608,0,0,1-1.6,1.6h-5.431a.616.616,0,0,0-.614.613h0a.615.615,0,0,0,.614.613h2.09a1.241,1.241,0,0,1,1.237,1.238h0a1.24,1.24,0,0,1-1.237,1.237h-3.457a2.467,2.467,0,0,0-2.459,2.46v1.128a.582.582,0,0,1-.581.58h0a.582.582,0,0,1-.581-.58v-2.145a1.446,1.446,0,0,0-1.442-1.442H579.93a1.24,1.24,0,0,1-1.236-1.237h0A1.241,1.241,0,0,1,579.93,373.676Z" transform="translate(-576.791 -369.242)" fill="#fff" fill-rule="evenodd"/></g><path d="M130.431,144.654a22.3,22.3,0,0,0-7.789,1.4,6,6,0,0,0-6.752-1.5,10,10,0,0,0-16.039-7.17,5.936,5.936,0,0,0-5.765-2.367s-.853-5.12-12.777-4.552c-7.774.37-12.954,6.931-14.383,14.513-1.449,7.69,4.112,12.4,14.186,12.4H137.3c6.514,0,15.82,1.067,9.355-5.745A22.3,22.3,0,0,0,130.431,144.654Z" transform="translate(-66.698 -87.038)" fill="#fff" fill-rule="evenodd"/><path d="M531.254,164.651a8.5,8.5,0,0,1,2.97.532,2.289,2.289,0,0,1,2.575-.573,3.811,3.811,0,0,1,6.116-2.734,2.261,2.261,0,0,1,2.2-.9,4.922,4.922,0,0,1,5.977-6.634,2.236,2.236,0,0,1,2.024-1.287h.065c-.01-.177-.017-.356-.017-.536a8.84,8.84,0,0,1,17.68,0c0,.068,0,.136,0,.2a5.439,5.439,0,0,1,3.866.461,7.082,7.082,0,0,1,12.446,6.384c.071,0,.142-.007.214-.007a3.489,3.489,0,0,1,3.424,4.149h.073a2.011,2.011,0,0,1,2.01,1.943,4.979,4.979,0,0,1,.932-.088,4.745,4.745,0,0,1,3.281,1.239c2.265,2.142-.208,2.7-2.591,2.7H528.635c-2.484,0-6.032.407-3.567-2.191A8.5,8.5,0,0,1,531.254,164.651Z" transform="translate(-297.537 -93.731)" fill="#fff" fill-rule="evenodd"/><path d="M446.06,61.846a7.693,7.693,0,0,1,2.687.482,2.07,2.07,0,0,1,2.329-.519,3.447,3.447,0,0,1,5.532-2.473,2.042,2.042,0,0,1,1.655-.844,2.067,2.067,0,0,1,.334.027,4.452,4.452,0,0,1,5.407-6,2.023,2.023,0,0,1,1.831-1.164h.058c-.009-.16-.015-.322-.015-.485a8,8,0,0,1,15.994,0c0,.061,0,.123,0,.185a4.913,4.913,0,0,1,3.5.417,6.408,6.408,0,0,1,11.26,5.775c.064,0,.129-.006.194-.006a3.156,3.156,0,0,1,3.1,3.753h.066a1.819,1.819,0,0,1,1.818,1.758,4.51,4.51,0,0,1,.843-.079,4.292,4.292,0,0,1,2.967,1.12c2.05,1.938-.187,2.442-2.344,2.442H443.692c-2.247,0-5.458.369-3.228-1.981A7.691,7.691,0,0,1,446.06,61.846Z" transform="translate(-254.892 -42.872)" fill="#d2eaf9" fill-rule="evenodd"/><g transform="translate(244.729 31.859)"><path d="M1.418,0H2.1A1.417,1.417,0,0,1,3.513,1.417V2.1A1.418,1.418,0,0,1,2.1,3.514H1.417A1.417,1.417,0,0,1,0,2.1V1.418A1.418,1.418,0,0,1,1.418,0Z" fill="#d2eaf9"/><path d="M1.419,0H2.1A1.418,1.418,0,0,1,3.514,1.418V2.1A1.418,1.418,0,0,1,2.1,3.514H1.418A1.418,1.418,0,0,1,0,2.1V1.419A1.419,1.419,0,0,1,1.419,0Z" transform="translate(7.202)" fill="#d2eaf9"/><path d="M1.418,0H2.1A1.418,1.418,0,0,1,3.514,1.418V2.1A1.418,1.418,0,0,1,2.1,3.514H1.417A1.417,1.417,0,0,1,0,2.1V1.418A1.418,1.418,0,0,1,1.418,0Z" transform="translate(14.405)" fill="#d2eaf9"/><path d="M1.417,0H2.1A1.416,1.416,0,0,1,3.513,1.416V2.1A1.418,1.418,0,0,1,2.1,3.514H1.417A1.417,1.417,0,0,1,0,2.1v-.68A1.417,1.417,0,0,1,1.417,0Z" transform="translate(21.608)" fill="#d2eaf9"/></g><path d="M648.547,296.08a.373.373,0,1,1,.745,0v1.677a.373.373,0,0,1-.745,0V296.08Zm-2.54,1.361a.373.373,0,0,1,.528-.527l1.185,1.185a.373.373,0,1,1-.527.528l-1.186-1.186Zm-.833,2.758a.372.372,0,1,1,0-.745h1.676a.372.372,0,0,1,0,.745Zm1.361,2.54a.373.373,0,0,1-.528-.527l1.186-1.186a.373.373,0,1,1,.527.528l-1.185,1.185Zm2.758.834a.373.373,0,0,1-.745,0V301.9a.373.373,0,1,1,.745,0v1.677Zm2.54-1.361a.372.372,0,1,1-.526.527l-1.186-1.185a.373.373,0,0,1,.528-.528l1.185,1.186Zm.834-2.758a.372.372,0,1,1,0,.745H650.99a.372.372,0,1,1,0-.745Zm-1.361-2.54a.372.372,0,0,1,.526.527l-1.185,1.186a.373.373,0,0,1-.528-.528Z" transform="translate(-358.366 -170.434)" fill="#d2eaf9" fill-rule="evenodd"/><g transform="translate(10.587 74.378)"><path d="M1.418,0H2.1A1.418,1.418,0,0,1,3.514,1.418V2.1A1.418,1.418,0,0,1,2.1,3.514H1.417A1.417,1.417,0,0,1,0,2.1V1.418A1.418,1.418,0,0,1,1.418,0Z" fill="#d2eaf9"/><path d="M1.418,0H2.1A1.417,1.417,0,0,1,3.514,1.417V2.1A1.418,1.418,0,0,1,2.1,3.514H1.418A1.418,1.418,0,0,1,0,2.1V1.418A1.418,1.418,0,0,1,1.418,0Z" transform="translate(7.203)" fill="#d2eaf9"/><path d="M1.418,0H2.1A1.418,1.418,0,0,1,3.513,1.418V2.1A1.417,1.417,0,0,1,2.1,3.514H1.417A1.417,1.417,0,0,1,0,2.1V1.418A1.418,1.418,0,0,1,1.418,0Z" transform="translate(14.406)" fill="#d2eaf9"/><rect width="3.514" height="3.514" rx="1.418" transform="translate(21.608)" fill="#d2eaf9"/></g><path d="M554.17,292.463a.372.372,0,1,1,.745,0v1.676a.372.372,0,1,1-.745,0v-1.676Zm-2.54,1.36a.373.373,0,0,1,.528-.527l1.184,1.186a.372.372,0,1,1-.526.526l-1.186-1.185Zm-.833,2.759a.373.373,0,1,1,0-.746h1.676a.373.373,0,0,1,0,.746Zm1.361,2.54a.373.373,0,0,1-.528-.527l1.186-1.186a.372.372,0,0,1,.526.527l-1.184,1.185Zm2.757.834a.372.372,0,0,1-.745,0v-1.677a.372.372,0,1,1,.745,0v1.677Zm2.54-1.361a.372.372,0,0,1-.527.527l-1.185-1.185a.373.373,0,0,1,.527-.527l1.185,1.186Zm.834-2.759a.373.373,0,0,1,0,.746h-1.676a.373.373,0,0,1,0-.746Zm-1.36-2.54a.373.373,0,0,1,.527.527l-1.185,1.185a.372.372,0,1,1-.527-.526Z" transform="translate(-310.75 -168.609)" fill="#fff" fill-rule="evenodd"/><path d="M81.914,69.518a.372.372,0,1,1,.745,0v1.676a.372.372,0,1,1-.745,0V69.518Zm-2.54,1.361a.373.373,0,0,1,.527-.527l1.185,1.185a.373.373,0,0,1-.527.527l-1.185-1.185Zm-.834,2.758a.373.373,0,0,1,0-.745h1.676a.373.373,0,0,1,0,.745Zm1.361,2.54a.373.373,0,0,1-.527-.527l1.185-1.185a.373.373,0,0,1,.527.527L79.9,76.177Zm2.758.834a.372.372,0,1,1-.745,0V75.334a.372.372,0,1,1,.745,0v1.676ZM85.2,75.65a.373.373,0,0,1-.527.527l-1.185-1.185a.373.373,0,0,1,.527-.527L85.2,75.65Zm.834-2.758a.373.373,0,1,1,0,.745H84.356a.373.373,0,1,1,0-.745Zm-1.361-2.54a.373.373,0,0,1,.527.527l-1.185,1.185a.373.373,0,0,1-.527-.527Z" transform="translate(-72.484 -56.127)" fill="#d2eaf9" fill-rule="evenodd"/><path d="M191.708,105.462a.373.373,0,0,1,.745,0v1.676a.373.373,0,0,1-.745,0v-1.676Zm-2.54,1.361a.373.373,0,1,1,.527-.527l1.185,1.185a.373.373,0,0,1-.527.527l-1.186-1.186Zm-.834,2.758a.373.373,0,0,1,0-.745h1.677a.373.373,0,0,1,0,.745Zm1.361,2.54a.373.373,0,1,1-.527-.527l1.186-1.185a.373.373,0,0,1,.527.527l-1.185,1.185Zm2.758.833a.373.373,0,1,1-.745,0v-1.676a.373.373,0,1,1,.745,0v1.676Zm2.54-1.361a.373.373,0,0,1-.527.527l-1.185-1.185a.373.373,0,0,1,.527-.527l1.185,1.185Zm.834-2.758a.373.373,0,1,1,0,.745H194.15a.373.373,0,0,1,0-.745Zm-1.361-2.54a.372.372,0,0,1,.527.527l-1.185,1.186a.373.373,0,0,1-.527-.527Z" transform="translate(-127.878 -74.262)" fill="#fff" fill-rule="evenodd"/></g><g transform="translate(98.496 90.046)"><ellipse cx="118.489" cy="2.519" rx="118.489" ry="2.519" transform="translate(0 151.174)" fill="#e6d2b1"/><g transform="translate(164.966 7.483)"><g transform="translate(18.972 49.162)"><g transform="translate(0 71.314)"><g transform="translate(0 15.727)"><path d="M506.531,435.081l-3.857,2.124a1.112,1.112,0,0,0-.529,1.228c.1.386.43.681,1.287.7,1.907.038,10.344-1.368,10.344-1.368v.987l3.916-.493s.273-5-.919-5.726Z" transform="translate(-502.112 -430.323)" fill="#1d0300"/><path d="M516.2,428.616l-5.167,4.217s.664,1.907,3.609.636,6.633-3.186,6.633-3.186l-.538-2.207Z" transform="translate(-506.612 -428.076)" fill="#fab093"/></g><path d="M525.951,412.062l.538-15.31-5.121-.416v17.933Z" transform="translate(-511.827 -396.336)" fill="#fab093"/></g><g transform="translate(17.248 71.314)"><g transform="translate(0 15.727)"><path d="M548.112,435.081l3.857,2.124a1.111,1.111,0,0,1,.529,1.228c-.1.386-.43.681-1.287.7-1.907.038-10.344-1.368-10.344-1.368v.987l-3.916-.493s-.273-5,.919-5.726Z" transform="translate(-536.923 -430.323)" fill="#1d0300"/><path d="M543.907,428.616l5.167,4.217s-.665,1.907-3.61.636-6.633-3.186-6.633-3.186l.538-2.207Z" transform="translate(-537.886 -428.076)" fill="#fab093"/></g><path d="M539.918,412.062l.392-15.31,5.121-.416-.93,17.933Z" transform="translate(-538.434 -396.336)" fill="#fab093"/></g><g transform="translate(5.337)"><path d="M518,254.055s-6.173,3.909-4.953,21.751,3.1,59.751,3.1,59.751h6.3l2.132-66.436,1.033-.044-.029,66.48h6.3l4.952-61.083s1.452-11.906-4.382-20.419C533.279,254.6,524.867,250.084,518,254.055Z" transform="translate(-512.884 -252.405)" fill="#063886"/><g transform="translate(8.902 16.712)"><line x2="6.332" y2="0.29" fill="none" stroke="#000" stroke-linecap="round" stroke-linejoin="round" stroke-width="0.996"/></g></g></g><g transform="translate(27.956)"><circle cx="4.552" cy="4.552" r="4.552" transform="translate(9.66 13.137)" fill="#95514c"/><g transform="translate(0 10.329)"><path d="M522.718,174.4a1.479,1.479,0,0,0-2.082.175c-1.336,1.687,1,4.742,3.035,3.169Z" transform="translate(-520.243 -174.031)" fill="#f8b498"/><path d="M522.782,177.049s.673-.212,1.4,1.206" transform="translate(-521.524 -175.548)" fill="none" stroke="#000" stroke-linecap="round" stroke-linejoin="round" stroke-width="0.519"/><path d="M525.835,183.4c-.1,1.349-.816,2.159-1.544,2.159-.833,0-1.508-.916-1.508-2.046s.675-2.046,1.508-2.046" transform="translate(-521.524 -177.784)" fill="none" stroke="#f6c668" stroke-linecap="round" stroke-linejoin="round" stroke-width="1.033"/></g><g transform="translate(13.486 10.329)"><g transform="translate(0.94)"><path d="M550.311,174.4a1.479,1.479,0,0,1,2.082.175c1.336,1.687-1,4.742-3.035,3.169Z" transform="translate(-549.358 -174.031)" fill="#f8b498"/><path d="M552.312,177.049s-.673-.212-1.4,1.206" transform="translate(-550.142 -175.548)" fill="none" stroke="#000" stroke-linecap="round" stroke-linejoin="round" stroke-width="0.519"/></g><path d="M547.461,183.256c0,1.257.873,2.305,1.6,2.305.833,0,1.508-.916,1.508-2.046s-.675-2.046-1.508-2.046" transform="translate(-547.461 -177.784)" fill="none" stroke="#f6c668" stroke-linecap="round" stroke-linejoin="round" stroke-width="1.033"/></g><ellipse cx="7.698" cy="7.507" rx="7.698" ry="7.507" transform="translate(1.271)" fill="#95514c"/><path d="M533.45,188.423,532.937,196h5.278l-.744-7.667Z" transform="translate(-526.647 -170.919)" fill="#f8b498"/><path d="M533.856,188.959c.176.1,4.44,3.107,4.44,3.107l-.362-3.729Z" transform="translate(-527.111 -170.919)"/><path d="M525.185,161.889s-.812,11.59,6.24,11.59c7.626,0,6.827-11.59,6.827-11.59s-.043-5.219-6.592-5.219C525.656,156.67,525.185,161.889,525.185,161.889Z" transform="translate(-522.722 -154.943)" fill="#f8b498"/><g transform="translate(3.719 7.825)"><path d="M532.532,174.828a.557.557,0,1,1-.556-.556A.557.557,0,0,1,532.532,174.828Z" transform="translate(-529.601 -171.648)"/><circle cx="0.557" cy="0.557" r="0.557" transform="translate(7.38 2.624)"/><g transform="translate(3.161 6.576)"><path d="M534.13,182.248h3.516s-.237.892-1.738.892S534.13,182.248,534.13,182.248Z" transform="translate(-534.13 -182.248)" fill="#fff"/></g><path d="M537.067,178.218v.9l.659.012" transform="translate(-532.45 -173.638)" fill="none" stroke="#000" stroke-linecap="round" stroke-linejoin="round" stroke-width="0.519"/><path d="M542.152,169.024s-1.428-.277-1.494.491c0,0-.034.521,1.214.732s2.123.267,2.27-.214S542.826,169.087,542.152,169.024Z" transform="translate(-534.262 -168.976)" fill="#1d0300"/><path d="M529.094,169.156s-1.453.064-1.337.827c0,0,.09.514,1.352.427s2.16-.233,2.16-.789C531.268,168.974,529.764,169.058,529.094,169.156Z" transform="translate(-527.75 -169.033)" fill="#1d0300"/></g><path d="M524.2,162.057s4.763-1.28,5.279-5.443C529.474,156.614,524.408,155.625,524.2,162.057Z" transform="translate(-522.237 -154.887)" fill="#95514c"/><path d="M532.558,155.772s1.118,5.582,10.038,5.286c0,0-.578-4.984-5.04-5.8S532.558,155.772,532.558,155.772Z" transform="translate(-526.456 -154.099)" fill="#95514c"/></g><g transform="translate(0 18.668)"><g transform="translate(25.938 3.652)"><path d="M523.2,249.66v1.95a73.584,73.584,0,0,1,14.454,0v-1.95l-7.241-2.1Z" transform="translate(-519.718 -223.118)" fill="#1d0300"/><g transform="translate(0 2.379)"><path d="M521.258,203.388l-5.088,1.2s2.115,15.255,3.485,22.606a49.808,49.808,0,0,1,14.454,0s3.667-15.978,5.287-22.606l-5.846-1.557Z" transform="translate(-516.17 -203.031)" fill="#f5cc58"/></g><g transform="translate(5.088)"><path d="M532.425,198.23l-5.987,2.736s.182,2.617,6.371,2.627c5.272.008,5.921-2.984,5.921-2.984Z" transform="translate(-526.438 -198.23)" fill="#f8b498"/></g></g><g transform="translate(45.618)"><g transform="translate(0 7.209)"><path d="M556.628,205.532s4.025-1.292,6.643,4.522,5.272,12.458,5.272,12.458l-4.859,1.307-7.8-11.577Z" transform="translate(-555.889 -205.409)" fill="#f5cc58"/><line y1="2.552" x2="0.48" transform="translate(1.377 6.653)" fill="none" stroke="#000" stroke-linecap="round" stroke-linejoin="round" stroke-width="0.996"/></g><g transform="translate(7.797)"><path d="M579.765,203.972l2.84.644-4.368,18.727a3.356,3.356,0,0,1-4.785,2.166h0a3.357,3.357,0,0,1-1.522-4.38Z" transform="translate(-571.626 -197.475)" fill="#fab093"/><g transform="translate(8.107)"><path d="M588.084,196.74l.162-.74a6.486,6.486,0,0,1,1.307-2.711l1.13-1.388a.687.687,0,0,1,1.05-.02h0a.88.88,0,0,1,.124.978l-.856,1.7,5.472-3.6a.533.533,0,0,1,.776.191l.1.191a.532.532,0,0,1-.138.66l-3.594,2.554,4.534-2.363a.533.533,0,0,1,.761.239l.064.145a.532.532,0,0,1-.211.673l-3.89,2.314,3.339-1.108a.533.533,0,0,1,.711.429l.009.068a.532.532,0,0,1-.3.554l-3.386,1.4,1.907-.318a.532.532,0,0,1,.688.583h0a.532.532,0,0,1-.32.415L588.94,201l-.708-1.97A4.148,4.148,0,0,1,588.084,196.74Z" transform="translate(-587.989 -190.86)" fill="#fab093"/><path d="M593.688,198.319a3.5,3.5,0,0,1-.373,2.952" transform="translate(-590.676 -194.623)" fill="none" stroke="#ea967c" stroke-linecap="round" stroke-linejoin="round" stroke-width="0.898"/></g></g></g><g transform="translate(0 7.454)"><g transform="translate(15.343)"><path d="M507.469,206.027s-4.024-1.292-6.643,4.522a109.77,109.77,0,0,1-6.039,11.306l5.627,2.458,8.179-11.577Z" transform="translate(-494.787 -205.905)" fill="#f5cc58"/><line x1="0.277" y1="2.751" transform="translate(11.664 6.721)" fill="none" stroke="#000" stroke-linecap="round" stroke-linejoin="round" stroke-width="0.996"/></g><g transform="translate(0 7.128)"><path d="M465.457,220.292,463.82,222.7l15.972,10.709a3.356,3.356,0,0,0,4.976-1.682h0a3.356,3.356,0,0,0-1.876-4.241Z" transform="translate(-463.82 -220.292)" fill="#fab093"/></g></g></g></g><g transform="translate(1.37)"><g transform="translate(45.937)"><g transform="translate(10.418 59.54)"><g transform="translate(0 75.034)"><path d="M269.456,421.892h6.254l.247-12.2H269.7Z" transform="translate(-258.517 -409.688)" fill="#db7e68"/><g transform="translate(0 9.984)"><path d="M265.1,429.839h-7.676a9.269,9.269,0,0,1-5.1,2.395c-3.033.32-4.71,1.916-4.949,4.071h19A33.549,33.549,0,0,0,265.1,429.839Z" transform="translate(-247.379 -429.839)" fill="#fff"/><rect width="19" height="1.357" transform="translate(19 7.823) rotate(180)" fill="#281818"/><path d="M281.041,436.151s-3.6.366-3.6,3.339" transform="translate(-262.546 -433.024)" fill="none" stroke="#1d0300" stroke-linecap="round" stroke-linejoin="round" stroke-width="1.424"/><path d="M264.2,432.2a3.5,3.5,0,0,1,1.787.891" transform="translate(-255.864 -431.029)" fill="none" stroke="#1d0300" stroke-linecap="round" stroke-linejoin="round" stroke-width="1.424"/><path d="M261.365,433.995a2.612,2.612,0,0,1,1.76.907" transform="translate(-254.435 -431.936)" fill="none" stroke="#1d0300" stroke-linecap="round" stroke-linejoin="round" stroke-width="1.424"/></g></g><g transform="translate(25.521 75.034)"><path d="M308.536,421.892h-6.254l-.247-12.2h6.254Z" transform="translate(-300.476 -409.688)" fill="#db7e68"/><g transform="translate(0 9.984)"><path d="M300.162,429.839h7.676a9.269,9.269,0,0,0,5.1,2.395c3.034.32,4.71,1.916,4.95,4.071h-19A33.549,33.549,0,0,1,300.162,429.839Z" transform="translate(-298.888 -429.839)" fill="#fff"/><rect width="19" height="1.357" transform="translate(0 6.466)" fill="#281818"/><path d="M299.906,436.151s3.6.366,3.6,3.339" transform="translate(-299.401 -433.024)" fill="none" stroke="#1d0300" stroke-linecap="round" stroke-linejoin="round" stroke-width="1.424"/><path d="M318.6,432.2a3.5,3.5,0,0,0-1.787.891" transform="translate(-307.929 -431.029)" fill="none" stroke="#1d0300" stroke-linecap="round" stroke-linejoin="round" stroke-width="1.424"/><path d="M321.455,433.995a2.61,2.61,0,0,0-1.759.907" transform="translate(-309.386 -431.936)" fill="none" stroke="#1d0300" stroke-linecap="round" stroke-linejoin="round" stroke-width="1.424"/></g></g><g transform="translate(9.5)"><path d="M267,263.183l-.169,17.046L266.552,338h10.535l1.923-61,2.931,61h10.449s-.379-52.072-1.536-71.411l-.353-3.41-11.111-4.933Z" transform="translate(-266.552 -258.25)" fill="#281818"/><line x1="5.02" y1="1.876" transform="translate(7.434 16.98)" fill="none" stroke="#4c4c4c" stroke-linecap="round" stroke-linejoin="round" stroke-width="0.996"/></g></g><g transform="translate(22.654)"><g transform="translate(0 11.371)"><path d="M274.582,161.4a1.5,1.5,0,0,0-2.109.177c-1.354,1.708,1.015,4.8,3.074,3.21Z" transform="translate(-272.075 -161.031)" fill="#db7e68"/><path d="M274.647,164.087s.682-.215,1.419,1.221" transform="translate(-273.373 -162.567)" fill="none" stroke="#000" stroke-linecap="round" stroke-linejoin="round" stroke-width="0.525"/></g><g transform="translate(14.531 11.371)"><path d="M302.367,161.4a1.5,1.5,0,0,1,2.11.177c1.353,1.708-1.015,4.8-3.075,3.21Z" transform="translate(-301.402 -161.031)" fill="#db7e68"/><path d="M304.394,164.087s-.681-.215-1.418,1.221" transform="translate(-302.196 -162.567)" fill="none" stroke="#000" stroke-linecap="round" stroke-linejoin="round" stroke-width="0.525"/></g><circle cx="8.09" cy="8.09" r="8.09" transform="translate(1.02)"/><path d="M284.7,176.4l-.838,6.347,6.677-.071-1.216-6.363Z" transform="translate(-278.02 -157.372)" fill="#db7e68"/><path d="M285.414,176.947c.2.1,5.374,2.944,5.374,2.944l-.683-3.575Z" transform="translate(-278.805 -157.372)"/><path d="M277.063,147.783s-1,12.224,6.32,12.371c7.914.159,6.915-12.371,6.915-12.371a6.279,6.279,0,0,0-6.677-6.219C277.54,141.564,277.063,147.783,277.063,147.783Z" transform="translate(-274.568 -139.838)" fill="#db7e68"/><path d="M278.2,143.886s4.791,1.159,12.589,0c0,0-.665-3.568-6.294-3.568S278.2,143.886,278.2,143.886Z" transform="translate(-275.163 -139.21)"/><path d="M277.665,145.6s.6,1.549-1.076,3.644l-.511-1.407,1.489-3.38" transform="translate(-274.095 -141.297)"/><path d="M301.717,145.6s-.6,1.549,1.076,3.644l.511-1.407-1.489-3.38" transform="translate(-286.977 -141.297)"/><g transform="translate(3.428 7.696)"><circle cx="0.564" cy="0.564" r="0.564" transform="translate(2.038 3.389)"/><circle cx="0.564" cy="0.564" r="0.564" transform="translate(7.672 3.389)"/><path d="M279.491,155.149l3.309-.3a.458.458,0,0,0,.214-.837,2.848,2.848,0,0,0-1.937-.376,3.708,3.708,0,0,0-1.9.685A.458.458,0,0,0,279.491,155.149Z" transform="translate(-278.993 -153.613)"/><path d="M295.783,155.149l-3.31-.3a.458.458,0,0,1-.213-.837,2.846,2.846,0,0,1,1.937-.376,3.71,3.71,0,0,1,1.9.685A.458.458,0,0,1,295.783,155.149Z" transform="translate(-285.584 -153.613)"/><path d="M288.794,162.971l.016,1.647.93.017" transform="translate(-283.938 -158.335)" fill="none" stroke="#000" stroke-linecap="round" stroke-linejoin="round" stroke-width="0.525"/><path d="M285.463,168.249h4.667a2.549,2.549,0,0,1-4.667,0Z" transform="translate(-282.257 -160.997)" fill="#fff"/></g></g><g transform="translate(0 24.864)"><g transform="translate(38.147 2.413)"><path d="M320.84,208.952l6.571,12.062a4.412,4.412,0,0,1-1.691,5.944h0a4.412,4.412,0,0,1-5.936-1.512l-6.831-11.037Z" transform="translate(-308.193 -201.115)" fill="#db7e68"/><path d="M318.041,202.658l-9.56,6.059-4.312-7.052a5.605,5.605,0,0,1,1.783-7.66h0a5.605,5.605,0,0,1,7.742,1.749Z" transform="translate(-303.345 -193.134)" fill="#f696b6"/><g transform="translate(11.141 17.981)"><path d="M347.836,243.494l2.265-5.627-18.094-7.938a4.189,4.189,0,0,0-6.027,2.581h0a4.19,4.19,0,0,0,2.752,5.093Z" transform="translate(-325.83 -229.425)" fill="#db7e68"/></g></g><g transform="translate(0 1.677)"><g transform="translate(0 2.785)"><path d="M242.9,206.235l-11.492,2.02a4.375,4.375,0,0,1-4.984-3.561h0a4.148,4.148,0,0,1,3.44-4.991l11.565-2.432Z" transform="translate(-226.353 -197.271)" fill="#db7e68"/></g><path d="M248.777,194.167l10.807-2.517,1.379,11.667-9.877,1.216Z" transform="translate(-237.667 -191.649)" fill="#f696b6"/></g><g transform="translate(19.602)"><g transform="translate(0 0.612)"><path d="M281.283,189.5l7.226,1.538a2.444,2.444,0,0,1,1.935,2.43l.983,36.188s-12.778,5.489-25.509-.007l.5-36.7a2.444,2.444,0,0,1,2.171-2.452l6.316-.712Z" transform="translate(-265.916 -189.499)" fill="#f696b6"/><line y1="8.562" x2="0.046" transform="translate(24.309 8.422)" fill="none" stroke="#000" stroke-linecap="round" stroke-linejoin="round" stroke-width="0.996"/><line x1="0.117" y1="4.412" transform="translate(0.469 8.703)" fill="none" stroke="#000" stroke-linecap="round" stroke-linejoin="round" stroke-width="0.996"/></g><g transform="translate(6.206)"><g transform="translate(2.527 0.442)"><path d="M290.5,189.156l-3.583,6.236-3.378-6.161Z" transform="translate(-283.542 -189.156)" fill="#db7e68"/></g><path d="M295.352,188.346l2.14,1.116-2.453,4.848-2.069-1.578Z" transform="translate(-285.772 -188.305)" fill="#fff"/><path d="M280.865,188.264l-2.423,1.123,2.525,4.844,2.1-1.623Z" transform="translate(-278.442 -188.264)" fill="#fff"/></g></g></g></g><g transform="translate(0 1.832)"><g transform="translate(20.281 62.077)"><g transform="translate(0 70.909)"><path d="M196.871,422.7l6.327-.711-.6-11.2-6.4-.61Z" transform="translate(-185.486 -410.179)" fill="#fff"/><g transform="translate(0 9.986)"><path d="M192.622,430.387l-7.975-.053a6.74,6.74,0,0,1-4.49,2.389c-2.959.312-5.352,1.869-5.586,3.972h19.293A32.724,32.724,0,0,0,192.622,430.387Z" transform="translate(-174.572 -430.334)"/><rect width="19.293" height="1.324" transform="translate(19.293 7.685) rotate(180)" fill="#fff"/><path d="M190.4,433.618a3.412,3.412,0,0,1,1.744.869" transform="translate(-182.556 -431.991)" fill="none" stroke="#fff" stroke-linecap="round" stroke-linejoin="round" stroke-width="1.118"/><path d="M188.013,434.812a2.547,2.547,0,0,1,1.717.885" transform="translate(-181.353 -432.593)" fill="none" stroke="#fff" stroke-linecap="round" stroke-linejoin="round" stroke-width="1.118"/></g></g><g transform="translate(28.258 70.909)"><path d="M239.8,422.7l-6.327-.711-1.3-11.2,6.4-.61Z" transform="translate(-231.893 -410.179)" fill="#fff"/><g transform="translate(0 9.986)"><path d="M232.847,430.387l7.975-.053a6.74,6.74,0,0,0,4.49,2.389c2.959.312,5.352,1.869,5.586,3.972H231.6A32.724,32.724,0,0,1,232.847,430.387Z" transform="translate(-231.604 -430.334)"/><rect width="19.293" height="1.324" transform="translate(0 6.361)" fill="#fff"/><path d="M252.943,433.618a3.41,3.41,0,0,0-1.744.869" transform="translate(-241.49 -431.991)" fill="none" stroke="#fff" stroke-linecap="round" stroke-linejoin="round" stroke-width="1.118"/><path d="M255.353,434.812a2.547,2.547,0,0,0-1.717.885" transform="translate(-242.72 -432.593)" fill="none" stroke="#fff" stroke-linecap="round" stroke-linejoin="round" stroke-width="1.118"/></g></g><g transform="translate(5.124)"><path d="M186.776,267.066s-2.388,6.625-1.755,19.279l3.852,56.9h9.187V285.011l9.452,58.231h9.367l-6.657-74.191h-5.959Z" transform="translate(-184.914 -267.066)" fill="#3859b6"/><line x1="5.222" y1="0.919" transform="translate(8.015 17.347)" fill="none" stroke="#000" stroke-linecap="round" stroke-linejoin="round" stroke-width="0.996"/></g></g><g transform="translate(29.797)"><path d="M200.858,151.92s-4.013.084-4.489,3.108c-.413,2.623,1.389,5.814,1.389,5.814l1.021-6.791Z" transform="translate(-195.055 -146.895)"/><path d="M221.8,148.6s5.2-1.362,5.609,2.928c.334,3.455-2.438,8.264-2.438,8.264l-.283-7.288Z" transform="translate(-207.918 -145.115)"/><path d="M209.236,148.545s3.248-3.466-.239-5.766c-2.847-1.878-4.664-.268-8.176-.889-3.953-.7-5.869,2.073-5.747,4.219.228,4.014,6.9,5.758,6.9,5.758Z" transform="translate(-194.429 -141.779)"/><g transform="translate(0.683 13.455)"><path d="M197.767,169.322a1.559,1.559,0,0,0-2.2.184c-1.409,1.779,1.056,5,3.2,3.341Z" transform="translate(-195.157 -168.934)" fill="#f8b498"/><path d="M197.834,172.127a1.741,1.741,0,0,1,1.477,1.271" transform="translate(-196.508 -170.545)" fill="none" stroke="#000" stroke-linecap="round" stroke-linejoin="round" stroke-width="0.547"/></g><g transform="translate(15.807 13.455)"><path d="M226.685,169.322a1.559,1.559,0,0,1,2.2.184c1.409,1.779-1.056,5-3.2,3.341Z" transform="translate(-225.681 -168.934)" fill="#f8b498"/><path d="M228.795,172.127a1.693,1.693,0,0,0-1.477,1.271" transform="translate(-226.507 -170.545)" fill="none" stroke="#000" stroke-linecap="round" stroke-linejoin="round" stroke-width="0.547"/></g><circle cx="8.293" cy="8.293" r="8.293" transform="translate(0 16.291) rotate(-76.058)"/><path d="M208.556,184.789l-.615,7.641h6.318l-.891-7.732Z" transform="translate(-200.924 -163.433)" fill="#f8b498"/><path d="M209.041,185.354c.212.1,5.232,2.386,5.232,2.386l-.35-3.043Z" transform="translate(-201.479 -163.433)"/><path d="M200.389,156.134s-.532,12.571,6.576,12.571c7.5,0,7.2-12.571,7.2-12.571s-.045-5.5-6.949-5.5C200.885,150.632,200.389,156.134,200.389,156.134Z" transform="translate(-197.109 -146.245)" fill="#f8b498"/><g transform="translate(4.652 9.889)"><path d="M218.567,161.789s-1.527-.3-1.6.525c0,0-.036.557,1.3.782s2.27.285,2.428-.228S219.288,161.855,218.567,161.789Z" transform="translate(-210.132 -161.737)" fill="#1d0300"/><path d="M204.605,161.929s-1.553.069-1.429.884c0,0,.1.55,1.445.456s2.309-.249,2.309-.843C206.93,161.735,205.322,161.825,204.605,161.929Z" transform="translate(-203.169 -161.798)" fill="#1d0300"/><path d="M208.034,168.767a.6.6,0,1,1-.6-.6A.6.6,0,0,1,208.034,168.767Z" transform="translate(-205.018 -164.981)" fill="#1d0300"/><path d="M219.914,168.767a.6.6,0,1,1-.6-.6A.6.6,0,0,1,219.914,168.767Z" transform="translate(-211.012 -164.981)" fill="#1d0300"/><path d="M212.886,171.906v1.278h.7" transform="translate(-208.072 -166.867)" fill="none" stroke="#000" stroke-linecap="round" stroke-linejoin="round" stroke-width="0.547"/><path d="M209.256,177.059l4.482.015S211.763,180.27,209.256,177.059Z" transform="translate(-206.24 -169.467)" fill="#fff"/></g><path d="M201.064,151.842s.688-2.82,5.671-2.981c3-.1,6.687,1.719,7.423-.541l-2.625-3.409-10.425,1.57Z" transform="translate(-197.454 -143.359)"/><path d="M225.158,149.8s-2.261,2.984,1.54,6.043C226.7,155.848,227.59,152.161,225.158,149.8Z" transform="translate(-209.274 -145.828)"/></g><g transform="translate(0 8.342)"><g transform="translate(48.462 22.852)"><g transform="translate(2.624 11.244)"><path d="M247.247,292.537s-1.63,1.7-.411,4.658l-.553,3.036a.96.96,0,0,0,.643,1.084h0a.961.961,0,0,0,1.2-.582l.638-1.743.122.636a4.568,4.568,0,0,1-.434,2.967l-1.351,2.6a.912.912,0,0,0,.051.928h0a.912.912,0,0,0,1.509.014l2.2-3.176a5.2,5.2,0,0,0,.772-4.223l-1.332-7.131Z" transform="translate(-241.549 -259.805)" fill="#f8b498"/><path d="M242.443,260.161,236.785,231.9c-.344-1.81,1.578-4.1,3.393-4.422h0a3.3,3.3,0,0,1,3.874,3.246l1.45,28.5Z" transform="translate(-236.745 -227.43)" fill="#f8b498"/></g><path d="M236.34,204.736s7.389,2.9,7.389,18.94l-12.281.476Z" transform="translate(-231.449 -204.736)" fill="#f62828"/></g><path d="M163.5,224.234l15.652-7.447-7.955-4.734-7.124,4.412Z" transform="translate(-148.705 -185.576)" fill="#f8b498"/><path d="M149.677,185.147l-3.3.159,3.229,22.117a3.8,3.8,0,0,0,4.912,3.359h0a3.8,3.8,0,0,0,2.561-4.587Z" transform="translate(-140.069 -172.001)" fill="#f8b498"/><path d="M143.249,171.761l.74-2.078a7.348,7.348,0,0,0,.369-3.386l-.254-2.01a.778.778,0,0,0-1-.648h0a1,1,0,0,0-.705.864l-.194,2.142-3.485-7.666a.6.6,0,0,0-.86-.281l-.21.124a.6.6,0,0,0-.263.716l1.92,4.6-2.938-4.984a.6.6,0,0,0-.874-.226l-.149.1a.6.6,0,0,0-.2.773l2.9,5.276-3.1-3.788a.6.6,0,0,0-.939-.014l-.05.06a.6.6,0,0,0-.041.713l2.8,4.3-2.027-2.379a.6.6,0,0,0-1.01.148h0a.6.6,0,0,0,.058.59l6.581,9.35Z" transform="translate(-133.64 -158.614)" fill="#f8b498"/><path d="M149.5,174.824a3.962,3.962,0,0,0-1.41,3.058" transform="translate(-140.93 -166.793)" fill="none" stroke="#f5ab8e" stroke-linecap="round" stroke-linejoin="round" stroke-width="0.856"/><path d="M176.412,204.736c-3.328,1.8-9.435,7.256-9.435,7.256l4.731,10.813,11.161-4.658Z" transform="translate(-150.46 -181.884)" fill="#f62828"/><g transform="translate(21.075 17.024)"><g transform="translate(4.52)"><path d="M208.53,200.654l4.525,2.013-2.171,36.678a89.926,89.926,0,0,1-25.588-.661l.358-36.016,4.843-2.031Z" transform="translate(-185.297 -196.84)" fill="#f62828"/><line y1="10.664" x2="0.643" transform="translate(26.588 14.58)" fill="none" stroke="#000" stroke-linecap="round" stroke-linejoin="round" stroke-width="0.996"/><line y1="8.806" x2="0.088" transform="translate(0.197 13.194)" fill="none" stroke="#000" stroke-linecap="round" stroke-linejoin="round" stroke-width="0.996"/><path d="M205.026,192.974l8.8,3.815s-8.853,7.168-18.032-.018Z" transform="translate(-190.593 -192.974)" fill="#f8b498"/></g><path d="M183.4,202.405s-1.236.516-.488,2.43h0a2.28,2.28,0,0,1-1.079,2.855l-2.157,1.112a2.274,2.274,0,0,1-3.172-1.2,3.306,3.306,0,0,1-.106-2.575C177.308,203.177,181.807,201.384,183.4,202.405Z" transform="translate(-176.175 -197.582)" fill="#db7e68"/></g></g></g></g><g transform="translate(113.456 0.206)"><g transform="translate(24.811 65.892)"><g transform="translate(0 68.826)"><g transform="translate(0 9.256)"><path d="M428.117,429.076h-6.851l-11.33,5.808,19.482-.223Z" transform="translate(-409.935 -429.076)" fill="#fff"/><g transform="translate(0 5.586)"><path d="M424.639,441.69a1.178,1.178,0,0,1,1.177,1.155l3.669-.039-.068-2.457-19.482.222L410,443.03l13.457-.157v0A1.179,1.179,0,0,1,424.639,441.69Z" transform="translate(-409.935 -440.35)" fill="#1d0300"/></g><path d="M423.246,433.364a1.806,1.806,0,0,1,1.9.922" transform="translate(-416.651 -431.225)" fill="none" stroke="#1d0300" stroke-linecap="round" stroke-linejoin="round" stroke-width="1.424"/><path d="M427.072,431.443a1.807,1.807,0,0,1,1.9.922" transform="translate(-418.581 -430.256)" fill="none" stroke="#1d0300" stroke-linecap="round" stroke-linejoin="round" stroke-width="1.424"/></g><rect width="6.983" height="9.256" transform="translate(11.198)" fill="#f1a289"/></g><g transform="translate(25.322 68.826)"><g transform="translate(0 9.256)"><path d="M462.479,429.076h6.851l11.33,5.808-19.482-.223Z" transform="translate(-461.111 -429.076)" fill="#fff"/><g transform="translate(0 5.586)"><path d="M465.888,441.69a1.178,1.178,0,0,0-1.177,1.155l-3.669-.039.068-2.457,19.482.222-.068,2.457-13.457-.157v0A1.179,1.179,0,0,0,465.888,441.69Z" transform="translate(-461.042 -440.35)" fill="#1d0300"/></g><path d="M485.257,433.364a1.806,1.806,0,0,0-1.9.922" transform="translate(-472.303 -431.225)" fill="none" stroke="#1d0300" stroke-linecap="round" stroke-linejoin="round" stroke-width="1.424"/><path d="M481.431,431.443a1.807,1.807,0,0,0-1.9.922" transform="translate(-470.372 -430.256)" fill="none" stroke="#1d0300" stroke-linecap="round" stroke-linejoin="round" stroke-width="1.424"/></g><rect width="6.983" height="9.256" transform="translate(8.351 9.256) rotate(180)" fill="#f1a289"/></g><g transform="translate(8.86)"><g transform="translate(13.758)"><path d="M467.244,271.486l.267,70.681h-8.839l-3.086-69.86Z" transform="translate(-455.585 -271.486)" fill="#f62828"/><path d="M461.22,413.107l9.029-.093a.567.567,0,0,1,.664.56v3.741a.565.565,0,0,1-.4.543H460.9a.57.57,0,0,1-.385-.541v-3.661A.566.566,0,0,1,461.22,413.107Z" transform="translate(-458.073 -342.886)" fill="#f75353"/><line y1="0.101" x2="8.786" transform="translate(3.147 70.119)" fill="none" stroke="#282828" stroke-miterlimit="10" stroke-width="1.014"/></g><path d="M430.325,271.486l-.661,70.681H438.9l3.086-69.86Z" transform="translate(-428.749 -271.486)" fill="#f62828"/><path d="M437.737,413.176l-9.083-.1a.715.715,0,0,0-.838.7v3.459a.716.716,0,0,0,.513.686h9.794a.71.71,0,0,0,.484-.678v-3.371A.713.713,0,0,0,437.737,413.176Z" transform="translate(-427.817 -342.915)" fill="#f75353"/><line y1="0.101" x2="9.18" transform="translate(0.868 70.119)" fill="none" stroke="#282828" stroke-miterlimit="10" stroke-width="1.014"/><g transform="translate(6.289)"><rect width="16.778" height="12.468" fill="#f62828"/><line x1="7.458" transform="translate(2.859 12.468)" fill="none" stroke="#282828" stroke-miterlimit="10" stroke-width="1.014"/></g></g></g><g transform="translate(0 26.665)"><g transform="translate(55.691 5.399)"><g transform="translate(2.471 9.168)"><path d="M488.608,285.652a4.11,4.11,0,0,0-.291,4.428l-.46,2.891a.911.911,0,0,0,.634,1.014h0a.911.911,0,0,0,1.129-.577l.568-1.667.129.6a4.331,4.331,0,0,1-.348,2.823l-1.226,2.491a.865.865,0,0,0,.067.879h0a.866.866,0,0,0,1.431-.019l2.022-3.06a4.933,4.933,0,0,0,.643-4.022l-1.416-6.735Z" transform="translate(-482.592 -253.492)" fill="#f1a289"/><path d="M483.262,253.875l-5.967-27.833c-.365-1.71,1.409-3.927,3.124-4.267h0a3.134,3.134,0,0,1,3.743,3l1.981,28.149Z" transform="translate(-477.247 -221.714)" fill="#f1a289"/></g><path d="M476.9,203.211s7.01,2.752,7.01,17.969l-11.651.451Z" transform="translate(-472.259 -203.211)" fill="#3859b6"/></g><g transform="translate(0 5.399)"><g transform="translate(18.02)"><g transform="translate(0 3.44)"><path d="M400.171,226.725l16.637-12.08-7.547-4.491L396.228,220.31Z" transform="translate(-396.228 -210.154)" fill="#f1a289"/></g><path d="M419.653,203.211a101.847,101.847,0,0,0-9.334,6.5l4.872,10.642,10.588-4.42Z" transform="translate(-403.337 -203.211)" fill="#3859b6"/></g><g transform="translate(0 5.061)"><path d="M362.65,213.426l-2.791,5.385,17.254,9.628a4.189,4.189,0,0,0,6.246-2h0a4.189,4.189,0,0,0-2.253-5.332Z" transform="translate(-359.859 -213.426)" fill="#f1a289"/></g></g><g transform="translate(34.336)"><path d="M448.143,196.917l7.01,3.118-.625,38.774a77.083,77.083,0,0,1-24.853,0l-.517-38.774,7.436-3.118Z" transform="translate(-429.158 -194.637)" fill="#3859b6"/><line y1="9.789" x2="0.02" transform="translate(25.695 13.862)" fill="none" stroke="#000" stroke-linecap="round" stroke-linejoin="round" stroke-width="0.996"/><line y1="7.132" transform="translate(0.256 13.439)" fill="none" stroke="#000" stroke-linecap="round" stroke-linejoin="round" stroke-width="0.996"/><path d="M450.083,192.315l5.632,2.28s-4.225,3.118-11.549,0Z" transform="translate(-436.73 -192.315)" fill="#f1a289"/></g></g><g transform="translate(37.693)"><path d="M442.6,148.609s-4.007-.623-4.375,3.13a11.479,11.479,0,0,0,1.258,5.91l1.038-6.909Z" transform="translate(-437.068 -143.579)" fill="#702c2b"/><path d="M464.35,147.1s4.05.129,4.488,3.875c.309,2.637-1.389,5.814-1.389,5.814l-1.02-6.79Z" transform="translate(-450.27 -142.837)" fill="#702c2b"/><g transform="translate(0.408 13.459)"><path d="M439.366,166.049a1.559,1.559,0,0,0-2.2.185c-1.409,1.778,1.056,5,3.2,3.34Z" transform="translate(-436.756 -165.661)" fill="#f1a289"/><path d="M439.433,168.855a1.741,1.741,0,0,1,1.477,1.271" transform="translate(-438.107 -167.272)" fill="none" stroke="#000" stroke-linecap="round" stroke-linejoin="round" stroke-width="0.547"/></g><g transform="translate(15.531 13.459)"><path d="M468.284,166.049a1.559,1.559,0,0,1,2.2.185c1.409,1.778-1.056,5-3.2,3.34Z" transform="translate(-467.28 -165.661)" fill="#f1a289"/><path d="M470.394,168.855a1.692,1.692,0,0,0-1.476,1.271" transform="translate(-468.106 -167.272)" fill="none" stroke="#000" stroke-linecap="round" stroke-linejoin="round" stroke-width="0.547"/></g><circle cx="8.293" cy="8.293" r="8.293" transform="matrix(0.198, -0.98, 0.98, 0.198, 0, 16.731)" fill="#702c2b"/><path d="M450.155,181.517l-.615,7.641h6.318l-.891-7.732Z" transform="translate(-442.798 -160.156)" fill="#f1a289"/><path d="M450.64,182.083c.212.1,5.232,2.386,5.232,2.386l-.35-3.042Z" transform="translate(-443.353 -160.156)"/><path d="M441.972,152.862s-.79,12.571,6.576,12.571c7.829,0,7.2-12.571,7.2-12.571s-.045-5.5-6.949-5.5C442.468,147.36,441.972,152.862,441.972,152.862Z" transform="translate(-438.968 -142.969)" fill="#f1a289"/><g transform="translate(3.147 9.749)"><g transform="translate(0.949)"><path d="M449.633,165.495a.6.6,0,1,1-.6-.6A.6.6,0,0,1,449.633,165.495Z" transform="translate(-446.336 -161.564)" fill="#1d0300"/><path d="M461.513,165.495a.6.6,0,1,1-.6-.6A.6.6,0,0,1,461.513,165.495Z" transform="translate(-452.33 -161.564)" fill="#1d0300"/><path d="M455,169.408v.894h.7" transform="translate(-449.648 -163.841)" fill="none" stroke="#000" stroke-linecap="round" stroke-linejoin="round" stroke-width="0.547"/><path d="M452.186,173.526s.819.93,2.919.338" transform="translate(-448.23 -165.919)" fill="none" stroke="#000" stroke-linecap="round" stroke-linejoin="round" stroke-width="0.547"/><path d="M444.7,159.708l3.31-.3a.458.458,0,0,0,.213-.837,2.846,2.846,0,0,0-1.937-.376,3.71,3.71,0,0,0-1.9.685A.458.458,0,0,0,444.7,159.708Z" transform="translate(-444.201 -158.172)" fill="#702c2b"/><path d="M460.991,159.708l-3.309-.3a.458.458,0,0,1-.214-.837,2.847,2.847,0,0,1,1.937-.376,3.708,3.708,0,0,1,1.9.685A.458.458,0,0,1,460.991,159.708Z" transform="translate(-450.792 -158.172)" fill="#702c2b"/></g><g transform="translate(0 1.401)"><path d="M445.281,161.213l3.111,4.224s-.938,1.794-2.433,1.594l-3.14-4.121S443.667,161.1,445.281,161.213Z" transform="translate(-442.554 -161.105)" fill="#fff" opacity="0.23"/><path d="M459.725,161.213l3.111,4.224s-.938,1.794-2.433,1.594l-3.14-4.121S458.112,161.1,459.725,161.213Z" transform="translate(-449.842 -161.105)" fill="#fff" opacity="0.23"/><path d="M448.37,164.043A3.042,3.042,0,1,1,445.328,161,3.042,3.042,0,0,1,448.37,164.043Z" transform="translate(-442.286 -161.001)" fill="none" stroke="#fff" stroke-miterlimit="10" stroke-width="0.578"/><path d="M462.831,164.043A3.042,3.042,0,1,1,459.789,161,3.042,3.042,0,0,1,462.831,164.043Z" transform="translate(-449.582 -161.001)" fill="none" stroke="#fff" stroke-miterlimit="10" stroke-width="0.578"/><path d="M454.566,167.006a1.2,1.2,0,0,1,1.081,0" transform="translate(-448.482 -163.964)" fill="none" stroke="#fff" stroke-miterlimit="10" stroke-width="0.578"/></g></g><path d="M466.757,146.533s-2.261,2.984,1.54,6.043C468.3,152.576,469.189,148.889,466.757,146.533Z" transform="translate(-451.148 -142.551)" fill="#702c2b"/><path d="M442.915,146.533s2.261,2.984-1.54,6.043C441.374,152.576,440.482,148.889,442.915,146.533Z" transform="translate(-438.598 -142.551)" fill="#702c2b"/><path d="M441.314,143.565s-.332-3.714,4.113-3.714,8.1,1.207,9.34-1.355c0,0,4.45,5.871-3.2,7.383C444.947,147.188,441.551,145.806,441.314,143.565Z" transform="translate(-438.646 -138.497)" fill="#702c2b"/></g></g><g transform="translate(92.047 7.854)"><g transform="translate(14.887)"><path d="M371.513,177.028c.7-2.237.573-4.342-1.4-5.788a4.354,4.354,0,0,1-1.767-3.017l-8.4,7.493-8.6-7.633a5.283,5.283,0,0,1-1.965,3.157c-2,1.408-1.674,3.551-.972,5.788s-1.2,2.48-1.7,5.167a6.977,6.977,0,0,1,5.28,2.482c1.133,1.381,4.409,2.059,7.981,1.845,3.571.215,6.848-.464,7.981-1.845a6.978,6.978,0,0,1,5.28-2.482C372.717,179.508,370.811,179.264,371.513,177.028Z" transform="translate(-346.697 -161.072)" fill="#ef6901"/><g transform="translate(4.214 11.28)"><path d="M357.678,177.067a1.479,1.479,0,0,0-2.083.175c-1.336,1.687,1,4.742,3.036,3.169Z" transform="translate(-355.203 -176.699)" fill="#fdbda6"/><path d="M357.742,179.717s.673-.212,1.4,1.206" transform="translate(-356.484 -178.216)" fill="none" stroke="#000" stroke-linecap="round" stroke-linejoin="round" stroke-width="0.519"/></g><g transform="translate(18.64 11.28)"><path d="M385.271,177.067a1.479,1.479,0,0,1,2.082.175c1.336,1.687-1,4.742-3.035,3.169Z" transform="translate(-384.318 -176.699)" fill="#fdbda6"/><path d="M387.272,179.717s-.673-.212-1.4,1.206" transform="translate(-385.102 -178.216)" fill="none" stroke="#000" stroke-linecap="round" stroke-linejoin="round" stroke-width="0.519"/></g><ellipse cx="7.698" cy="7.507" rx="7.698" ry="7.507" transform="translate(5.485 0.951)" fill="#ef6901"/><path d="M368.767,191.09l-.519,7.952h5.138L372.636,191Z" transform="translate(-357.57 -172.636)" fill="#fdbda6"/><path d="M369.182,191.627c.17.1,4.273,3.107,4.273,3.107L373.107,191Z" transform="translate(-358.041 -172.636)"/><path d="M360.145,164.557s-.812,11.59,6.24,11.59c7.626,0,6.827-11.59,6.827-11.59s-.043-5.219-6.592-5.219C360.616,159.338,360.145,164.557,360.145,164.557Z" transform="translate(-353.468 -156.66)" fill="#fdbda6"/><g transform="translate(8.061 8.391)"><path d="M367.492,177.5a.557.557,0,1,1-.557-.557A.557.557,0,0,1,367.492,177.5Z" transform="translate(-364.688 -173.932)"/><path d="M378.718,177.5a.557.557,0,1,1-.556-.557A.557.557,0,0,1,378.718,177.5Z" transform="translate(-370.352 -173.932)"/><g transform="translate(3.034 6.959)"><path d="M369.09,184.915h3.516s-.237.893-1.738.893S369.09,184.915,369.09,184.915Z" transform="translate(-369.09 -184.915)" fill="#fff"/></g><path d="M372.027,180.885v.9l.659.012" transform="translate(-367.537 -175.923)" fill="none" stroke="#000" stroke-linecap="round" stroke-linejoin="round" stroke-width="0.519"/><path d="M377.112,170.918s-1.428-.278-1.494.491c0,0-.034.521,1.214.732s2.124.267,2.271-.213S377.786,170.98,377.112,170.918Z" transform="translate(-369.349 -170.869)" fill="#ef6901"/><path d="M364.267,171.086s-1.4.079-1.3.838c0,0,.081.512,1.3.412s2.083-.254,2.088-.808C366.364,170.883,364.914,170.982,364.267,171.086Z" transform="translate(-362.966 -170.94)" fill="#ef6901"/></g><path d="M356.152,162.937s11.26-1.756,11.49-6.6c0,0-2.45-4.186-7.986-1.512C354.86,157.143,356.152,162.937,356.152,162.937Z" transform="translate(-351.387 -153.933)" fill="#ef6901"/><path d="M376.012,158.032s.544,3.605,5.822,7.437c0,0,3.157-3.773.514-6.656S376.012,158.032,376.012,158.032Z" transform="translate(-361.487 -155.628)" fill="#ef6901"/></g><g transform="translate(0 24.161)"><g transform="translate(0 2.627)"><path d="M338.313,227.324l4.579-16.917a3.016,3.016,0,0,1,3.69-2.316h0c1.59.4,3.564,2,3.2,3.6l-5.755,17.8Z" transform="translate(-327.58 -207.999)" fill="#fdbda6"/><g transform="translate(0 17.285)"><path d="M316.764,247.083l-.114-4.2,11.983.737c2.157.03,4.959,1.564,4.445,3.659h0c-.427,1.742-2.833,2.721-4.593,2.374Z" transform="translate(-316.65 -242.884)" fill="#fdbda6"/></g></g><g transform="translate(36.29 2.627)"><path d="M396.321,234.019a3.12,3.12,0,0,0,1.9-3.239l-2.3-19.956a3.017,3.017,0,0,0-3.331-2.808h0a3.017,3.017,0,0,0-2.685,3.253l2.883,20.194c.217,2.078,1.607,3.359,3.536,2.556Z" transform="translate(-389.892 -207.998)" fill="#fdbda6"/><g transform="translate(2.749 19.058)"><path d="M401.677,272.746l2.6-.331L401.2,250.706c-.3-2.207-2.219-4.89-4.3-4.1h0c-1.733.654-1.58,2.913-1.239,4.734C396.724,257.037,401.677,272.746,401.677,272.746Z" transform="translate(-395.44 -246.463)" fill="#fdbda6"/><path d="M407.711,296.1a3.853,3.853,0,0,0,1.762,3.769l.929,2.583a.855.855,0,0,0,.979.547h0a.855.855,0,0,0,.666-.985l-.287-1.625.378.435a4.06,4.06,0,0,1,.99,2.477l.118,2.6a.812.812,0,0,0,.453.692h0a.812.812,0,0,0,1.167-.663l.278-3.427a4.623,4.623,0,0,0-1.29-3.594l-4.59-4.893Z" transform="translate(-401.608 -270.452)" fill="#fdbda6"/></g></g><g transform="translate(17.364)"><path d="M362.288,202.7,351.7,205.484l4.168,23.2h13.777l3.749-23.348Z" transform="translate(-351.695 -202.697)" fill="#fdbda6"/><g transform="translate(0.681 1.327)"><path d="M356.557,236.463l-3.487-13.495,5.2-4.851,4.968,3.142,5.156-3.142,5.264,4.742-3.322,13.6Z" transform="translate(-353.07 -211.803)" fill="#fff"/><line y1="6.314" transform="translate(5.198)" fill="none" stroke="#000" stroke-linecap="round" stroke-linejoin="round" stroke-width="0.996"/><line y1="6.314" transform="translate(15.251)" fill="none" stroke="#000" stroke-linecap="round" stroke-linejoin="round" stroke-width="0.996"/></g></g></g><g transform="translate(7.715 50.147)"><g transform="translate(0 47.547)"><path d="M354.443,393.06l5.31-.683,1.775-41.272-8.458,1.336Z" transform="translate(-342.74 -351.106)" fill="#fdbda6"/><g transform="translate(0 39.516)"><g transform="translate(0)"><path d="M349.558,430.911l-7.66-.051a6.474,6.474,0,0,1-4.312,2.295c-2.843.3-5.141,1.8-5.365,3.815h18.531A31.441,31.441,0,0,0,349.558,430.911Z" transform="translate(-332.221 -430.86)"/><g clip-path="url(#a)"><path d="M332.59,434.856s4.206.054,4.589,5.2H330S330.3,435.27,332.59,434.856Z" transform="translate(-331.099 -432.876)" fill="#fff"/></g></g><rect width="18.531" height="1.272" transform="translate(18.531 7.381) rotate(180)" fill="#fff"/><path d="M347.419,434.014a3.273,3.273,0,0,1,1.675.835" transform="translate(-339.889 -432.451)" fill="none" stroke="#fff" stroke-linecap="round" stroke-linejoin="round" stroke-width="1.074"/><path d="M349.816,432.754a3.276,3.276,0,0,1,1.675.834" transform="translate(-341.098 -431.816)" fill="none" stroke="#fff" stroke-linecap="round" stroke-linejoin="round" stroke-width="1.074"/><path d="M345.131,435.161a2.446,2.446,0,0,1,1.649.85" transform="translate(-338.734 -433.03)" fill="none" stroke="#fff" stroke-linecap="round" stroke-linejoin="round" stroke-width="1.074"/></g></g><g transform="translate(21.407 47.547)"><path d="M382.51,393.06l-5.309-.683-1.776-41.272,8.458,1.336Z" transform="translate(-375.425 -351.106)" fill="#fdbda6"/><g transform="translate(0.257 39.516)"><g transform="translate(0)"><path d="M377.139,430.911l7.66-.051a6.471,6.471,0,0,0,4.312,2.295c2.843.3,5.141,1.8,5.365,3.815H375.945A31.441,31.441,0,0,1,377.139,430.911Z" transform="translate(-375.945 -430.86)"/><g clip-path="url(#b)"><path d="M405.665,434.856s-4.207.054-4.589,5.2h7.18S407.959,435.27,405.665,434.856Z" transform="translate(-388.624 -432.876)" fill="#fff"/></g></g><rect width="18.531" height="1.272" transform="translate(0 6.11)" fill="#fff"/><path d="M396.441,434.014a3.273,3.273,0,0,0-1.675.835" transform="translate(-385.44 -432.451)" fill="none" stroke="#fff" stroke-linecap="round" stroke-linejoin="round" stroke-width="1.074"/><path d="M394.045,432.754a3.274,3.274,0,0,0-1.675.834" transform="translate(-384.232 -431.816)" fill="none" stroke="#fff" stroke-linecap="round" stroke-linejoin="round" stroke-width="1.074"/><path d="M398.756,435.161a2.445,2.445,0,0,0-1.649.85" transform="translate(-386.622 -433.03)" fill="none" stroke="#fff" stroke-linecap="round" stroke-linejoin="round" stroke-width="1.074"/></g></g><path d="M350.557,255.144s-9.378,15.057-9.378,65.211h31.355s3.038-37.578-8.2-65.211Z" transform="translate(-336.74 -255.144)" fill="#f5cc58"/></g></g></g></g></svg>