<svg id="icones" xmlns="http://www.w3.org/2000/svg" viewBox="0 0 32 32"><path d="M30.82,29.93,27.09,26.2a6.26,6.26,0,1,0-.89.89l3.73,3.73a.65.65,0,0,0,.44.18h0a.67.67,0,0,0,.44-.18A.64.64,0,0,0,30.82,29.93ZM17.25,22.25a5,5,0,0,1,5-5h0a5,5,0,1,1-5,5Z" fill="#edf0f8"/><path d="M14.12,26h-10a1.87,1.87,0,0,1-1.87-1.87V7.88A1.88,1.88,0,0,1,4.12,6H6v.63A1.87,1.87,0,0,0,7.87,8.5h7.5a1.87,1.87,0,0,0,1.87-1.87V6h1.88A1.88,1.88,0,0,1,21,7.88v5a.62.62,0,0,0,.62.62.64.64,0,0,0,.63-.62v-5a3.13,3.13,0,0,0-3.13-3.13H17.24V4.13a.65.65,0,0,0-.62-.63H14.69a3.13,3.13,0,0,0-6.13,0H6.62A.64.64,0,0,0,6,4.13v.62H4.12A3.13,3.13,0,0,0,1,7.88V24.13a3.12,3.12,0,0,0,3.12,3.12h10a.63.63,0,1,0,0-1.25ZM7.25,4.75H9.13a.63.63,0,0,0,.62-.62,1.88,1.88,0,1,1,3.75,0,.62.62,0,0,0,.62.62H16v.62h0V6.63a.63.63,0,0,1-.63.62H7.87a.62.62,0,0,1-.62-.62Z" fill="#edf0f8"/><path d="M18.5,11.63a.63.63,0,0,0-.63-.63H5.37a.63.63,0,0,0,0,1.25h12.5A.63.63,0,0,0,18.5,11.63Z" fill="#edf0f8"/><path d="M17.25,15.38a.63.63,0,0,0-.63-.63H5.37a.63.63,0,0,0,0,1.25H16.62A.63.63,0,0,0,17.25,15.38Z" fill="#edf0f8"/><path d="M5.37,18.5a.63.63,0,0,0,0,1.25H13.5a.63.63,0,0,0,0-1.25Z" fill="#edf0f8"/></svg>